<svg xmlns="http://www.w3.org/2000/svg" xmlns:xlink="http://www.w3.org/1999/xlink" viewBox="0 0 64 64"><defs><style>.cls-1{fill:url(#linear-gradient);}.cls-2{fill:url(#linear-gradient-2);}.cls-3{fill:#dd8b37;}.cls-4{fill:url(#linear-gradient-3);}.cls-5{fill:url(#linear-gradient-4);}.cls-6{fill:url(#linear-gradient-5);}.cls-7{fill:url(#linear-gradient-6);}.cls-8{fill:url(#linear-gradient-7);}.cls-9{fill:#4da67f;}.cls-10{fill:#f69163;}.cls-11{fill:#5b8dc9;}.cls-12{fill:#cf4055;}.cls-13{fill:#8a6762;}</style><linearGradient id="linear-gradient" x1="32" y1="47" x2="32" y2="17" gradientUnits="userSpaceOnUse"><stop offset="0" stop-color="#fbcc88"/><stop offset="1" stop-color="#ffe5c3"/></linearGradient><linearGradient id="linear-gradient-2" x1="32" y1="40" x2="32" y2="24" gradientUnits="userSpaceOnUse"><stop offset="0" stop-color="#e9a254"/><stop offset="1" stop-color="#f4bb79"/></linearGradient><linearGradient id="linear-gradient-3" x1="53" y1="41" x2="53" y2="33" gradientUnits="userSpaceOnUse"><stop offset="0" stop-color="#6ab891"/><stop offset="1" stop-color="#85cba9"/></linearGradient><linearGradient id="linear-gradient-4" x1="54" y1="16" x2="54" y2="4" gradientUnits="userSpaceOnUse"><stop offset="0" stop-color="#f8aa88"/><stop offset="1" stop-color="#fac2ab"/></linearGradient><linearGradient id="linear-gradient-5" x1="6" y1="54" x2="6" y2="44" gradientUnits="userSpaceOnUse"><stop offset="0" stop-color="#7aa8d7"/><stop offset="1" stop-color="#c3d2e7"/></linearGradient><linearGradient id="linear-gradient-6" x1="16.5" y1="19" x2="16.5" y2="14" gradientUnits="userSpaceOnUse"><stop offset="0" stop-color="#da5466"/><stop offset="1" stop-color="#f4929c"/></linearGradient><linearGradient id="linear-gradient-7" x1="50.5" y1="60" x2="50.5" y2="53" gradientUnits="userSpaceOnUse"><stop offset="0" stop-color="#9b756d"/><stop offset="1" stop-color="#bc9388"/></linearGradient></defs><title>Astronomy</title><g id="Astronomy"><path class="cls-1" d="M47,32l-1.6.45a3.53,3.53,0,0,0-1.57,5.86L45,39.5l-1.6-.41a3.54,3.54,0,0,0-4.3,4.3L39.5,45l-1.19-1.16a3.53,3.53,0,0,0-5.86,1.57L32,47l-.45-1.6a3.53,3.53,0,0,0-5.86-1.57L24.5,45l.41-1.6a3.54,3.54,0,0,0-4.3-4.3L19,39.5l1.16-1.19a3.53,3.53,0,0,0-1.57-5.86L17,32l1.6-.45a3.53,3.53,0,0,0,1.57-5.86L19,24.5l1.6.41a3.54,3.54,0,0,0,4.3-4.3L24.5,19l1.19,1.16a3.53,3.53,0,0,0,5.86-1.57L32,17l.45,1.6a3.53,3.53,0,0,0,5.86,1.57L39.5,19l-.41,1.6a3.54,3.54,0,0,0,4.3,4.3L45,24.5l-1.16,1.19a3.53,3.53,0,0,0,1.57,5.86Z"/><circle class="cls-2" cx="32" cy="32" r="8"/><path class="cls-3" d="M32,40a8,8,0,0,1-7.94-9,8,8,0,0,0,15.88,0A8,8,0,0,1,32,40Z"/><circle class="cls-4" cx="53" cy="37" r="4"/><circle class="cls-5" cx="54" cy="10" r="6"/><circle class="cls-6" cx="6" cy="49" r="5"/><circle class="cls-7" cx="16.5" cy="16.5" r="2.5"/><circle class="cls-8" cx="50.5" cy="56.5" r="3.5"/><path class="cls-9" d="M57,37a4,4,0,0,1-8,0,3.66,3.66,0,0,1,.13-1,4,4,0,0,0,7.74,0A3.66,3.66,0,0,1,57,37Z"/><path class="cls-10" d="M60,10a6,6,0,0,1-12,0,5.47,5.47,0,0,1,.09-1A6,6,0,0,0,59.91,9,5.47,5.47,0,0,1,60,10Z"/><path class="cls-11" d="M11,49A5,5,0,0,1,1,49a4.62,4.62,0,0,1,.1-1,5,5,0,0,0,9.8,0A4.62,4.62,0,0,1,11,49Z"/><path class="cls-12" d="M19,16.5a2.5,2.5,0,0,1-5,0,2.42,2.42,0,0,1,.21-1,2.5,2.5,0,0,0,4.58,0A2.42,2.42,0,0,1,19,16.5Z"/><path class="cls-13" d="M54,56.5a3.5,3.5,0,0,1-7,0,3.32,3.32,0,0,1,.15-1,3.49,3.49,0,0,0,6.7,0A3.32,3.32,0,0,1,54,56.5Z"/><path d="M47.27,31c-1.55-.44-2.92-.59-3.36-2.23s.69-2.48,1.8-3.61a1,1,0,0,0-1-1.67c-1.55.39-2.81.95-4-.25s-.64-2.47-.25-4a1,1,0,0,0-1.66-1c-1.15,1.12-2,2.24-3.62,1.8S33.4,18.29,33,16.73a1,1,0,0,0-1.92,0c-.44,1.54-.58,2.92-2.23,3.36s-2.48-.69-3.62-1.8a1,1,0,0,0-1.66,1c.39,1.54.95,2.81-.25,4s-2.49.64-4,.25a1,1,0,0,0-1,1.66c1.13,1.15,2.24,2,1.8,3.62S18.28,30.6,16.73,31a1,1,0,0,0,0,1.92c1.55.44,2.92.59,3.36,2.23s-.69,2.48-1.8,3.61a1,1,0,0,0,1,1.67c1.55-.39,2.81-1,4,.25s.64,2.47.25,4a1,1,0,0,0,1.66,1c1.15-1.13,2-2.24,3.62-1.8s1.79,1.8,2.23,3.36a1,1,0,0,0,1.92,0c.44-1.54.58-2.92,2.23-3.36s2.46.67,3.62,1.8a1,1,0,0,0,1.66-1c-.39-1.54-.95-2.81.25-4s2.49-.64,4-.25a1,1,0,0,0,1-1.66c-1.13-1.15-2.24-2-1.8-3.62S45.72,33.4,47.27,33A1,1,0,0,0,47.27,31ZM42.35,38A4.55,4.55,0,0,0,38,42.35,4.54,4.54,0,0,0,32,44a4.54,4.54,0,0,0-6-1.61A4.55,4.55,0,0,0,21.65,38,4.54,4.54,0,0,0,20,32a4.55,4.55,0,0,0,1.61-6A4.55,4.55,0,0,0,26,21.65,4.55,4.55,0,0,0,32,20a4.54,4.54,0,0,0,6,1.61A4.55,4.55,0,0,0,42.35,26,4.54,4.54,0,0,0,44,32,4.55,4.55,0,0,0,42.35,38Z"/><path d="M32,23a9,9,0,1,0,9,9A9,9,0,0,0,32,23Zm0,16a7,7,0,1,1,7-7A7,7,0,0,1,32,39Z"/><path d="M52.71,42A5,5,0,0,0,55,32.42C55.37,13.23,33.4,2.28,18.33,13.53a3.49,3.49,0,0,0-4.8,4.8C2.39,33.26,13,55,32,55A23,23,0,0,0,52.71,42ZM56,37a3,3,0,1,1-3-3A3,3,0,0,1,56,37ZM16.5,15a1.5,1.5,0,0,1,0,3A1.5,1.5,0,0,1,16.5,15ZM32,53C14.74,53,5,33.31,15,19.66A3.48,3.48,0,0,0,19.66,15C33.35,5,53,14.77,53,32a5,5,0,0,0-2.25,9.44A21,21,0,0,1,32,53Z"/><path d="M59,14.87A7,7,0,0,0,49.13,5C28.06-8.41,0,6.67,0,32A31.8,31.8,0,0,0,2.42,44.2,6,6,0,0,0,9,54.21a32,32,0,0,0,38.64,5.71,4.48,4.48,0,0,0,7-5.27A31.9,31.9,0,0,0,59,14.87ZM54,5a5,5,0,1,1-5,5A5,5,0,0,1,54,5ZM2,49a4,4,0,1,1,4,4A4,4,0,0,1,2,49Zm8.52,3.93A6,6,0,0,0,4.2,43.28c-10.95-26.95,19.28-52,43.7-36.7a7,7,0,0,0,9.52,9.52,29.92,29.92,0,0,1-4.06,37,4.48,4.48,0,0,0-7,5.25A30,30,0,0,1,10.52,52.93ZM50.5,59A2.5,2.5,0,1,1,53,56.5,2.5,2.5,0,0,1,50.5,59Z"/></g></svg>