<svg xmlns="http://www.w3.org/2000/svg" xmlns:xlink="http://www.w3.org/1999/xlink" viewBox="0 0 64 64"><defs><style>.cls-1{fill:url(#linear-gradient);}.cls-2{fill:url(#linear-gradient-2);}.cls-3{fill:url(#linear-gradient-3);}.cls-4{fill:url(#linear-gradient-4);}.cls-5{fill:url(#linear-gradient-5);}.cls-6{fill:url(#linear-gradient-6);}.cls-7{fill:url(#linear-gradient-7);}.cls-8{fill:#cf4055;}.cls-9{fill:#7ece67;}.cls-10{fill:#5b8dc9;}.cls-11{fill:#f6b756;}</style><linearGradient id="linear-gradient" x1="32" y1="38" x2="32" y2="26" gradientUnits="userSpaceOnUse"><stop offset="0" stop-color="#da5466"/><stop offset="1" stop-color="#f4929c"/></linearGradient><linearGradient id="linear-gradient-2" x1="38" y1="10" x2="38" y2="4" xlink:href="#linear-gradient"/><linearGradient id="linear-gradient-3" x1="38" y1="10" x2="38" y2="4" gradientUnits="userSpaceOnUse"><stop offset="0" stop-color="#8cdd79"/><stop offset="1" stop-color="#d4e6b6"/></linearGradient><linearGradient id="linear-gradient-4" x1="50.65" y1="52.7" x2="50.65" y2="46.7" xlink:href="#linear-gradient"/><linearGradient id="linear-gradient-5" x1="50.65" y1="52.7" x2="50.65" y2="46.7" gradientUnits="userSpaceOnUse"><stop offset="0" stop-color="#7aa8d7"/><stop offset="1" stop-color="#c3d2e7"/></linearGradient><linearGradient id="linear-gradient-6" x1="7.35" y1="42.3" x2="7.35" y2="36.3" xlink:href="#linear-gradient"/><linearGradient id="linear-gradient-7" x1="7.35" y1="42.3" x2="7.35" y2="36.3" gradientUnits="userSpaceOnUse"><stop offset="0" stop-color="#fbcc88"/><stop offset="1" stop-color="#ffe5c3"/></linearGradient></defs><title>Atom</title><g id="Atom"><circle class="cls-1" cx="32" cy="32" r="6"/><circle class="cls-2" cx="38" cy="7" r="3"/><circle class="cls-3" cx="38" cy="7" r="3"/><circle class="cls-4" cx="50.65" cy="49.7" r="3"/><circle class="cls-5" cx="50.65" cy="49.7" r="3"/><circle class="cls-6" cx="7.35" cy="39.3" r="3"/><circle class="cls-7" cx="7.35" cy="39.3" r="3"/><path class="cls-8" d="M32,38a6,6,0,0,1-5.91-7c1.1,6.64,10.72,6.63,11.82,0A6,6,0,0,1,32,38Z"/><path class="cls-9" d="M38,10a3,3,0,0,1-2.82-4,3,3,0,0,0,5.64,0A3,3,0,0,1,38,10Z"/><path class="cls-10" d="M53.25,51.2a3,3,0,0,1-5.42-2.51,3,3,0,0,0,5.64,0A3,3,0,0,1,53.25,51.2Z"/><path class="cls-11" d="M8.85,41.9a3,3,0,0,1-4.32-3.6,3,3,0,0,0,5.64,0A3,3,0,0,1,8.85,41.9Z"/><path d="M39,32a7,7,0,1,0-7,7A7,7,0,0,0,39,32Zm-7,5a5,5,0,1,1,5-5A5,5,0,0,1,32,37Z"/><path d="M51,32c15.87-13.92,10.6-23.27-9.5-16.44a51.69,51.69,0,0,0-1.3-5.22,4,4,0,0,0-3.27-7.17C35.43,1.07,33.78,0,32,0c-4,0-7.55,5.8-9.49,15.56C2.51,8.77-2.95,18,13,32a53.51,53.51,0,0,0-3.87,3.73,4,4,0,0,0-3.79.11h0a4,4,0,0,0-.79,6.31C3.5,44.5,3.4,46.47,4.28,48c2.76,4.79,13,2.22,18.23.44,4.13,20.8,14.86,20.72,19,0,6.35,2.16,4.9.81,5.3,2.29a4,4,0,0,0,7.72,0c3.17-.31,4.59-1.6,5.21-2.68C61.73,44.5,58.47,38.56,51,32Zm7-15c1.46,2.53-2,8-8.53,13.69a80.48,80.48,0,0,0-6.66-4.93,80,80,0,0,0-.94-8.21C50.09,14.71,56.53,14.47,58,17Zm-18,28.75c-1.87-.7-3.78-1.51-5.71-2.43C36.78,42,38.4,41,40.69,39.59,40.51,41.72,40.26,43.78,39.94,45.75Zm-15.88,0c-.32-2-.57-4-.75-6.16C25.6,41,27.23,42,29.77,43.32,27.84,44.24,25.93,45.05,24.06,45.75Zm0-27.5c1.87.7,3.78,1.51,5.71,2.43C27.22,22,25.6,23,23.31,24.41,23.49,22.28,23.74,20.22,24.06,18.25Zm-3,17.49q-2.64-1.83-5-3.74,2.33-1.91,5-3.74C21,31.07,21,32.93,21.08,35.74Zm2.07,1.38a87.46,87.46,0,0,1,0-10.24A89.91,89.91,0,0,1,32,21.78a90.53,90.53,0,0,1,8.85,5.1,87.46,87.46,0,0,1,0,10.24A89.91,89.91,0,0,1,32,42.22,90.53,90.53,0,0,1,23.15,37.12ZM39.94,18.25c.32,2,.57,4,.75,6.16C38.4,23,36.77,22,34.23,20.68,36.16,19.76,38.07,19,39.94,18.25Zm3,10q2.64,1.83,5,3.74-2.32,1.91-5,3.74C43,32.93,43,31.07,42.92,28.26ZM40,7a2,2,0,1,1-2-2A2,2,0,0,1,40,7ZM35.18,4.17A4,4,0,0,0,38.29,11a51.43,51.43,0,0,1,1.3,5.27A77.94,77.94,0,0,0,32,19.54a79,79,0,0,0-7.59-3.3C26,8,30.18-2.6,35.18,4.17ZM6,17c1.45-2.53,7.89-2.29,16.13.55a80,80,0,0,0-.94,8.21,80.48,80.48,0,0,0-6.66,4.93C8,25,4.56,19.53,6,17Zm-.6,21.79A2,2,0,1,1,8.35,41,2,2,0,0,1,5.42,38.79Zm.88,4.37a4,4,0,0,0,4.34-6.1,50.62,50.62,0,0,1,3.91-3.75,80.48,80.48,0,0,0,6.66,4.93,80,80,0,0,0,.94,8.21C14.19,49.19,3,50.89,6.3,43.16ZM32,62c-2.92,0-5.93-5.69-7.59-14.24A77.94,77.94,0,0,0,32,44.46a79,79,0,0,0,7.59,3.3C37.93,56.31,34.92,62,32,62ZM52.38,50.7a2,2,0,1,1,.2-1.52A2,2,0,0,1,52.38,50.7Zm2.14-2A4,4,0,0,0,47.06,48a51.43,51.43,0,0,1-5.21-1.52,80,80,0,0,0,.94-8.21,80.48,80.48,0,0,0,6.66-4.93C55.81,38.84,62.87,47.73,54.52,48.68Z"/></g></svg>