<svg xmlns="http://www.w3.org/2000/svg" xmlns:xlink="http://www.w3.org/1999/xlink" viewBox="0 0 64 64"><defs><style>.cls-1{fill:url(#linear-gradient);}.cls-2{fill:url(#linear-gradient-2);}.cls-3{fill:#5b8dc9;}.cls-4{fill:url(#linear-gradient-3);}.cls-5{fill:#dd8b37;}.cls-6{fill:url(#linear-gradient-4);}.cls-7{fill:url(#linear-gradient-5);}</style><linearGradient id="linear-gradient" x1="32" y1="20.84" x2="32" y2="3" gradientUnits="userSpaceOnUse"><stop offset="0" stop-color="#7aa8d7"/><stop offset="1" stop-color="#c3d2e7"/></linearGradient><linearGradient id="linear-gradient-2" y1="59" y2="39" xlink:href="#linear-gradient"/><linearGradient id="linear-gradient-3" x1="32" y1="63" x2="32" y2="5" gradientUnits="userSpaceOnUse"><stop offset="0" stop-color="#e9a254"/><stop offset="1" stop-color="#f4bb79"/></linearGradient><linearGradient id="linear-gradient-4" x1="32" y1="30" x2="32" y2="20" gradientTransform="translate(-8.31 29.95) rotate(-45)" gradientUnits="userSpaceOnUse"><stop offset="0" stop-color="#fbcc88"/><stop offset="1" stop-color="#ffe5c3"/></linearGradient><linearGradient id="linear-gradient-5" y1="59" y2="41" xlink:href="#linear-gradient"/></defs><title>Bag</title><g id="Bag"><path class="cls-1" d="M53,5V20.84H11V5a2,2,0,0,1,2-2h6a2,2,0,0,1,2,2V8H43V5a2,2,0,0,1,2-2h6A2,2,0,0,1,53,5Z"/><path class="cls-2" d="M5,39V55a4,4,0,0,0,4,4H55a4,4,0,0,0,4-4V39Z"/><path class="cls-3" d="M59,52v3a4,4,0,0,1-4,4H9a4,4,0,0,1-4-4V52a4,4,0,0,0,4,4H55A4,4,0,0,0,59,52Z"/><path class="cls-3" d="M53,15.52v5.32H11V15.52A23.69,23.69,0,0,1,21,5.67V8H43V5.67A23.69,23.69,0,0,1,53,15.52Z"/><path class="cls-4" d="M48,63H16a7,7,0,0,1-7-7c0-.12,1.18-30.13,1.18-30a21.84,21.84,0,0,1,43.64,0L55,56A7,7,0,0,1,48,63Z"/><path class="cls-5" d="M55,56a7,7,0,0,1-7,7H16a7,7,0,0,1-7-7l.08-2A7,7,0,0,0,16,60H48a7,7,0,0,0,6.92-6Z"/><rect class="cls-6" x="28.46" y="21.46" width="7.07" height="7.07" transform="translate(27.05 -15.31) rotate(45)"/><rect class="cls-7" x="17" y="41" width="30" height="18" rx="4"/><path class="cls-3" d="M47,52v3a4,4,0,0,1-4,4H21a4,4,0,0,1-4-4V52a4,4,0,0,0,4,4H43A4,4,0,0,0,47,52Z"/><path d="M32,8A18.79,18.79,0,0,0,13.17,26.1L12.82,35a1,1,0,0,0,2,.08l.35-8.86a16.84,16.84,0,0,1,33.66,0L49.18,35a1,1,0,0,0,2-.08l-.35-8.86A18.79,18.79,0,0,0,32,8Z"/><path d="M32,31c.57,0,.35.06,5.71-5.29a1,1,0,0,0,0-1.42l-5-5a1,1,0,0,0-1.42,0l-5,5a1,1,0,0,0,0,1.42C31.53,30.94,31.41,31,32,31Zm0-9.59L35.59,25,32,28.59,28.41,25Z"/><path d="M43,40H21a5,5,0,0,0-5,5V55a5,5,0,0,0,5,5H43a5,5,0,0,0,5-5V45A5,5,0,0,0,43,40Zm3,15a3,3,0,0,1-3,3H21a3,3,0,0,1-3-3V45a3,3,0,0,1,3-3H43a3,3,0,0,1,3,3Z"/><path d="M59,38H55.29C54,6,54,36.94,54,5a3,3,0,0,0-3-3H45a3,3,0,0,0-3,3V6.31A22.17,22.17,0,0,0,38.69,5,7,7,0,0,0,25.31,5,22.17,22.17,0,0,0,22,6.31V5a3,3,0,0,0-3-3H13a3,3,0,0,0-3,3c0,32,0,1-1.29,33H5a1,1,0,0,0-1,1V55a5,5,0,0,0,5.08,5A8,8,0,0,0,16,64H48c4.91,0,6.79-4,7-4a5,5,0,0,0,5-5V39A1,1,0,0,0,59,38ZM44,5a1,1,0,0,1,1-1h6a1,1,0,0,1,1,1V15.8a22.79,22.79,0,0,0-8-8.4Zm-7.74-.6a22.81,22.81,0,0,0-8.52,0A5,5,0,0,1,36.26,4.4ZM12,5a1,1,0,0,1,1-1h6a1,1,0,0,1,1,1V7.4a22.79,22.79,0,0,0-8,8.4ZM6,55V40H8.63C8,57.14,7.86,56.36,8.23,57.89A3,3,0,0,1,6,55Zm42,7H16a6,6,0,0,1-5.4-3.38c-.87-2.1-.73.75.58-32.6a20.84,20.84,0,0,1,41.64,0c3,75.86-2-51.24,1.18,30A6,6,0,0,1,48,62Zm10-7a3,3,0,0,1-2.24,2.89c.39-1.6.27-1-.39-17.89H58Z"/></g></svg>