<svg xmlns="http://www.w3.org/2000/svg" xmlns:xlink="http://www.w3.org/1999/xlink" viewBox="0 0 64 64"><defs><style>.cls-1{fill:url(#linear-gradient);}.cls-2{fill:url(#linear-gradient-2);}.cls-3{fill:url(#linear-gradient-3);}.cls-4{fill:#4da67f;}.cls-5{fill:url(#linear-gradient-4);}</style><linearGradient id="linear-gradient" x1="10.56" y1="44.2" x2="10.56" y2="37.92" gradientUnits="userSpaceOnUse"><stop offset="0" stop-color="#6ab891"/><stop offset="1" stop-color="#85cba9"/></linearGradient><linearGradient id="linear-gradient-2" x1="35.2" y1="47.19" x2="35.2" y2="1" xlink:href="#linear-gradient"/><linearGradient id="linear-gradient-3" x1="53.45" y1="26.07" x2="53.45" y2="19.8" xlink:href="#linear-gradient"/><linearGradient id="linear-gradient-4" x1="28.81" y1="63" x2="28.81" y2="16.81" xlink:href="#linear-gradient"/></defs><title>Biology</title><g id="Biology"><path class="cls-1" d="M20.12,43.89c-.86,0-10.49-4.48-15.69-.3h0c-.23.19-.46.39-.68.61L1,41.46c4.75-4.75,11.23-3.93,17.69-2.06Z"/><path class="cls-2" d="M43.66,43.66c-5.09,5.07-12.16,3.79-19.06,1.65L23.2,40.8a48.46,48.46,0,0,0,10.08,2.48c6.55.53,10.53-3.44,10-10C42.5,23.39,32.87,9.59,41.46,1L44.2,3.74C35.3,12.64,54.77,32.53,43.66,43.66Z"/><path class="cls-3" d="M63,22.54c-4.75,4.75-11.24,3.93-17.69,2.06l-1.42-4.48c5.61,1.73,12.23,3.82,16.37-.32Z"/><path class="cls-4" d="M18.69,39.4l1.43,4.49h0c-2.62-.84-2.29-.58-2.41-1-1.07-3.37-.85-2.65-1.28-4.09C17.18,39,17.93,39.18,18.69,39.4Z"/><path class="cls-4" d="M26.85,46c-.76-.2-1.51-.42-2.25-.65L23.2,40.8c.78.25,1.56.5,2.33.73C26.31,44,26.48,44.62,26.85,46Z"/><path class="cls-5" d="M40.8,23.2c-6-1.94-13.35-4.49-17.72-.12C14.16,32,33.69,51.85,22.54,63L19.8,60.26c8.93-8.93-10.57-28.79.54-39.92,5.11-5.1,12.18-3.76,19.06-1.65Z"/><path class="cls-4" d="M39.4,18.69l1.4,4.51c-.78-.25-1.56-.5-2.33-.73C38,21,37.57,19.6,37.14,18,37.9,18.24,38.65,18.46,39.4,18.69Z"/><path class="cls-4" d="M47.58,25.2c-.76-.18-1.51-.38-2.27-.6l-1.42-4.48c2.64.81,2.29.59,2.41,1C46.33,21.22,47.15,23.75,47.58,25.2Z"/><path d="M63.71,21.83c-2.12-2.11-2,6.29-17.61,2l-.68-2.15c5.47,1.64,11.49,2.93,15.55-1.12a1,1,0,0,0-1.35-1.46L45,4.38A1,1,0,0,0,43.49,3C34,12.53,53.53,32.35,43,43c-4.67,4.65-11.23,3.46-17.55,1.56-.21-.73-.43-1.45-.66-2.17a40.83,40.83,0,0,0,8.46,1.94c7,.56,11.63-3.77,11.08-11,0-8.38-10.48-23.2-2.11-31.57A1,1,0,0,0,40.75.29C36,5.06,36.49,11.39,38,17.23c-6.66-1.86-13.35-2.57-18.34,2.4S15.37,31.3,17.23,38C11.4,36.48,5.07,36,.29,40.75A1,1,0,0,0,1,42.46c1.7,0,3.17-6.08,16.9-2.24.34,1.08.51,1.59.69,2.15C13.12,40.73,7.08,39.44,3,43.49A1,1,0,0,0,4.38,45L19.05,59.62a1,1,0,0,0,.75,1.64c.56,0,.86-.41,1.38-1,8-9.54-10.49-28.8-.13-39.17,4.76-4.76,11.5-3.37,17.55-1.56.21.73.43,1.46.66,2.17-4.57-1.43-10.36-3.11-14.62-.93a8.88,8.88,0,0,0-3.86,3.8c-3,5.65.73,13.61,2.86,21,4.63,16.19-3.93,16-1.81,18.13a1,1,0,0,0,1.42,0C28,58.94,27.51,52.61,26,46.77c6.74,1.91,13.36,2.56,18.34-2.4S48.63,32.69,46.77,26c6.27,1.59,12.34,1.81,16.94-2.78A1,1,0,0,0,63.71,21.83ZM20.26,58,6,43.74a7.7,7.7,0,0,1,3-.87L21.13,55A7.7,7.7,0,0,1,20.26,58ZM11.8,42.89a40.11,40.11,0,0,1,7.52,1.8,41.78,41.78,0,0,1,1.79,7.51ZM24,40c-.69-2.15-1.37-4.33-1.82-6.4l8.23,8.22C28.33,41.37,26.15,40.69,24,40Zm9.71,2.29-12-12a10.42,10.42,0,0,1,.32-3.5L37.21,42A10.39,10.39,0,0,1,33.71,42.29ZM40,24c.69,2.15,1.37,4.33,1.82,6.4L33.6,22.18C35.67,22.63,37.85,23.31,40,24Zm-9.71-2.29,12,12a10.42,10.42,0,0,1-.32,3.5L26.79,22A10.42,10.42,0,0,1,30.29,21.71Zm-5.44,1.22L41.07,39.15a6.51,6.51,0,0,1-1.92,1.92L22.93,24.85A6.39,6.39,0,0,1,24.85,22.93ZM43.74,6,58,20.26a7.7,7.7,0,0,1-3,.87L42.87,9A7.7,7.7,0,0,1,43.74,6ZM52.2,21.11a41.78,41.78,0,0,1-7.51-1.79,40.91,40.91,0,0,1-1.8-7.52Z"/></g></svg>