<svg xmlns="http://www.w3.org/2000/svg" xmlns:xlink="http://www.w3.org/1999/xlink" viewBox="0 0 64 64"><defs><style>.cls-1{fill:#42455e;}.cls-2{fill:url(#linear-gradient);}.cls-3{fill:#c7cdd8;}.cls-4{fill:url(#linear-gradient-2);}.cls-5{fill:url(#linear-gradient-3);}.cls-6{fill:#cf4055;}.cls-7{fill:url(#linear-gradient-4);}.cls-8{fill:url(#linear-gradient-5);}.cls-9{fill:url(#linear-gradient-6);}.cls-10{fill:url(#linear-gradient-7);}.cls-11{fill:#86b8e0;}.cls-12{fill:#adb3c4;}</style><linearGradient id="linear-gradient" x1="1" y1="59" x2="49" y2="59" gradientUnits="userSpaceOnUse"><stop offset="0" stop-color="#d4d8e1"/><stop offset="1" stop-color="#f3f4f5"/></linearGradient><linearGradient id="linear-gradient-2" x1="25" y1="59" x2="25" y2="1" gradientUnits="userSpaceOnUse"><stop offset="0" stop-color="#da5466"/><stop offset="1" stop-color="#f4929c"/></linearGradient><linearGradient id="linear-gradient-3" x1="4" y1="59" x2="4" y2="1" gradientUnits="userSpaceOnUse"><stop offset="0" stop-color="#474f72"/><stop offset="1" stop-color="#878c9f"/></linearGradient><linearGradient id="linear-gradient-4" x1="28" y1="26" x2="28" y2="12" xlink:href="#linear-gradient"/><linearGradient id="linear-gradient-5" x1="56" y1="17" x2="56" y2="9" gradientUnits="userSpaceOnUse"><stop offset="0" stop-color="#949aaf"/><stop offset="1" stop-color="#c6ccda"/></linearGradient><linearGradient id="linear-gradient-6" x1="56" y1="59" x2="56" y2="17" gradientUnits="userSpaceOnUse"><stop offset="0" stop-color="#7aa8d7"/><stop offset="1" stop-color="#c3d2e7"/></linearGradient><linearGradient id="linear-gradient-7" y1="9" y2="3.02" xlink:href="#linear-gradient-6"/></defs><title>Book pen</title><g id="Book_pen" data-name="Book pen"><path class="cls-1" d="M55,61V59a1,1,0,0,1,2,0v2A1,1,0,0,1,55,61Z"/><path class="cls-2" d="M49,55v8H5a4,4,0,0,1,0-8Z"/><path class="cls-3" d="M49,61v2H5a4,4,0,0,1-3.87-5A4,4,0,0,0,5,61Z"/><path class="cls-4" d="M49,1V55H5a4,4,0,0,0-4,4V5A4,4,0,0,1,5,1Z"/><path class="cls-5" d="M7,1V55H5a4,4,0,0,0-4,4V5A4,4,0,0,1,5,1Z"/><path class="cls-6" d="M49,52v3H5a4,4,0,0,0-4,4V56a4,4,0,0,1,4-4Z"/><path class="cls-1" d="M7,52v3H5a4,4,0,0,0-4,4V56a4,4,0,0,1,4-4Z"/><rect class="cls-7" x="13" y="12" width="30" height="14"/><rect class="cls-3" x="13" y="23" width="30" height="3"/><rect class="cls-8" x="53" y="9" width="6" height="8"/><polygon class="cls-9" points="59 17 59 53 57 59 55 59 53 53 53 17 59 17"/><path class="cls-10" d="M54,5V9h4V5A2,2,0,0,0,54,5Z"/><rect class="cls-11" x="53" y="17" width="6" height="2"/><rect class="cls-12" x="53" y="9" width="6" height="2"/><path d="M49,0H5A5,5,0,0,0,0,5V59a5,5,0,0,0,5,5H49a1,1,0,0,0,1-1V1A1,1,0,0,0,49,0ZM48,54H8V2H48ZM2,5A3,3,0,0,1,5,2H6V54a5.93,5.93,0,0,0-3.88.92C1.94,55.05,2,58.77,2,5ZM5,62a3,3,0,0,1,0-6H48v2H5a1,1,0,0,0,0,2H48v2Z"/><path d="M13,27H43a1,1,0,0,0,1-1V12a1,1,0,0,0-1-1H13a1,1,0,0,0-1,1V26A1,1,0,0,0,13,27Zm1-14H42V25H14Z"/><path d="M40,41H16a1,1,0,0,0,0,2H40A1,1,0,0,0,40,41Z"/><path d="M38,46H18a1,1,0,0,0,0,2H38A1,1,0,0,0,38,46Z"/><path d="M63.73,14.54,60,10.6V9a1,1,0,0,0-1-1V5a3,3,0,0,0-6,0V8a1,1,0,0,0-1,1V53c0,.23-.13-.23,2,6.32A1,1,0,0,0,55,60v1a1,1,0,0,0,2,0V60a1,1,0,0,0,1-.68c2.18-6.56,2-6.09,2-6.32V13.51l2,2.12V24a1,1,0,0,0,2,0C64,14.6,64.12,15,63.73,14.54ZM58,16H54V10h4ZM55,5a1,1,0,0,1,2,0V8H55Zm3,47.84L56.28,58h-.56L54,52.84V18h4Z"/></g></svg>