<svg xmlns="http://www.w3.org/2000/svg" xmlns:xlink="http://www.w3.org/1999/xlink" viewBox="0 0 64 64"><defs><style>.cls-1{fill:url(#linear-gradient);}.cls-2{fill:url(#linear-gradient-2);}.cls-3{fill:#5b8dc9;}.cls-4{fill:url(#linear-gradient-3);}.cls-5{fill:url(#linear-gradient-4);}.cls-6{fill:url(#linear-gradient-5);}.cls-7{fill:#7ece67;}.cls-8{fill:#cf4055;}.cls-9{fill:#dfe3ea;}</style><linearGradient id="linear-gradient" x1="33" y1="55" x2="33" y2="40" gradientUnits="userSpaceOnUse"><stop offset="0" stop-color="#d4d8e1"/><stop offset="1" stop-color="#f3f4f5"/></linearGradient><linearGradient id="linear-gradient-2" x1="32" y1="57" x2="32" y2="37" gradientUnits="userSpaceOnUse"><stop offset="0" stop-color="#7aa8d7"/><stop offset="1" stop-color="#c3d2e7"/></linearGradient><linearGradient id="linear-gradient-3" x1="18" y1="54" x2="18" y2="46" gradientUnits="userSpaceOnUse"><stop offset="0" stop-color="#fbcc88"/><stop offset="1" stop-color="#ffe5c3"/></linearGradient><linearGradient id="linear-gradient-4" x1="32" y1="37" x2="32" y2="13" gradientUnits="userSpaceOnUse"><stop offset="0" stop-color="#da5466"/><stop offset="1" stop-color="#f4929c"/></linearGradient><linearGradient id="linear-gradient-5" x1="37" y1="14" x2="37" y2="8" gradientUnits="userSpaceOnUse"><stop offset="0" stop-color="#8cdd79"/><stop offset="1" stop-color="#d4e6b6"/></linearGradient></defs><title>Book Apple</title><g id="Book_Apple" data-name="Book Apple"><rect class="cls-1" x="4" y="40" width="58" height="15"/><path class="cls-2" d="M21,53H63v4H5a4,4,0,0,1-4-4V41a4,4,0,0,1,4-4H63v4H5V53H15"/><path class="cls-3" d="M63,55v2H5a4,4,0,0,1-4-4V51a4,4,0,0,0,4,4Z"/><polygon class="cls-4" points="21 54 18 53 15 54 15 46 21 46 21 54"/><path class="cls-5" d="M39.19,13.08C43.46,13.69,46,18,46,22.23,46,28.69,40.93,37,36,37c-2.46,0-3.22-.92-4-.92S30.43,37,28,37c-4.91,0-10-8.31-10-14.77C18,17.62,21,13,25.88,13c2.44,0,4.48.92,6.12.92Z"/><path class="cls-6" d="M36,14H32a6,6,0,0,1,6-6h4A6,6,0,0,1,36,14Z"/><path class="cls-7" d="M42,8a6,6,0,0,1-6,6H32a5.8,5.8,0,0,1,.35-2c3.34,0,5.75.4,7.89-1.76A5.77,5.77,0,0,0,41.65,8Z"/><path class="cls-8" d="M44.52,28.87C42.67,33.27,39.31,37,36,37c-2.46,0-3.22-.92-4-.92S30.43,37,28,37c-3.29,0-6.65-3.73-8.5-8.13C25.37,37,30.75,33.08,32,33.08S38.68,36.94,44.52,28.87Z"/><rect class="cls-9" x="5" y="41" width="57" height="2"/><path d="M63,42a1,1,0,0,0,1-1V37a1,1,0,0,0-1-1H40.75A19.7,19.7,0,0,0,47,22.23c0-3.88-2-8.08-5.75-9.62A6.92,6.92,0,0,0,43,8a1,1,0,0,0-1-1c-3.89,0-6.85-.5-9.37,2.52C31.44,5.93,27,5.06,27,7a1,1,0,0,0,1,1c.12,0,3,.05,3,4v.81A26.7,26.7,0,0,0,25.88,12C20.32,12,17,17.2,17,22.23A19.67,19.67,0,0,0,23.26,36H5a5,5,0,0,0-5,5V53a5,5,0,0,0,5,5H63a1,1,0,0,0,1-1V53a1,1,0,0,0-1-1Zm-2,2H9a1,1,0,0,0,0,2h5v6H6V42H61ZM20,52.61c-2.43-.81-1.54-.82-4,0V46h4ZM38,9h2.9A5,5,0,0,1,36,13H33.1A5,5,0,0,1,38,9ZM19,22.23C19,18.18,21.57,14,25.88,14a31.63,31.63,0,0,1,5.12.84v2a6.56,6.56,0,0,1-1.48-.67,1,1,0,0,0-1.37.33C27.27,17.92,30.51,19,32,19a5.87,5.87,0,0,0,3.59-1.19,1,1,0,0,0-1.18-1.62,4,4,0,0,1-1.41.68V15c3,0,4.43.2,6.37-.87C43,14.86,45,18.79,45,22.23c0,6.18-5,13.77-9,13.77-2.26,0-2.89-.92-4-.92S30.25,36,28,36C23.87,36,19,28.54,19,22.23ZM62,56H5a3,3,0,0,1-3-3V41a3,3,0,0,1,3-3H62v2H5a1,1,0,0,0-1,1V53a1,1,0,0,0,1,1c12.13,0,8-.22,9.42.81.54.39.79.18,3.58-.76,2.87,1,2.77,1,3,1a1,1,0,0,0,1-1H62ZM22,52V46H61v2H28a1,1,0,0,0,0,2H61v2Z"/></g></svg>