<svg xmlns="http://www.w3.org/2000/svg" xmlns:xlink="http://www.w3.org/1999/xlink" viewBox="0 0 64 64"><defs><style>.cls-1{fill:url(#linear-gradient);}.cls-2{fill:#42455e;}.cls-3{fill:url(#linear-gradient-2);}.cls-4{fill:#5b8dc9;}.cls-5{fill:url(#linear-gradient-3);}.cls-6{fill:#dd8b37;}.cls-7{fill:url(#linear-gradient-5);}.cls-8{fill:url(#linear-gradient-6);}.cls-9{fill:#fcd2c3;}.cls-10{fill:url(#linear-gradient-7);}.cls-11{fill:url(#linear-gradient-8);}.cls-12{fill:url(#linear-gradient-9);}.cls-13{fill:#8a6762;}.cls-14{fill:url(#linear-gradient-10);}.cls-15{fill:url(#linear-gradient-11);}</style><linearGradient id="linear-gradient" x1="32" y1="63" x2="32" y2="43.27" gradientUnits="userSpaceOnUse"><stop offset="0" stop-color="#474f72"/><stop offset="1" stop-color="#878c9f"/></linearGradient><linearGradient id="linear-gradient-2" x1="32" y1="55.99" x2="32" y2="42" gradientUnits="userSpaceOnUse"><stop offset="0" stop-color="#7aa8d7"/><stop offset="1" stop-color="#c3d2e7"/></linearGradient><linearGradient id="linear-gradient-3" x1="32" y1="63" x2="32" y2="55" gradientUnits="userSpaceOnUse"><stop offset="0" stop-color="#e9a254"/><stop offset="1" stop-color="#f4bb79"/></linearGradient><linearGradient id="linear-gradient-5" x1="32" y1="43.66" x2="32" y2="38.31" gradientUnits="userSpaceOnUse"><stop offset="0" stop-color="#f2c4b0"/><stop offset="1" stop-color="#ffe3d7"/></linearGradient><linearGradient id="linear-gradient-6" y1="39" y2="13.19" xlink:href="#linear-gradient-5"/><linearGradient id="linear-gradient-7" x1="46" y1="28" x2="46" y2="22" xlink:href="#linear-gradient-5"/><linearGradient id="linear-gradient-8" x1="18" y1="28" x2="18" y2="22" xlink:href="#linear-gradient-5"/><linearGradient id="linear-gradient-9" x1="32" y1="23" x2="32" y2="3.96" gradientUnits="userSpaceOnUse"><stop offset="0" stop-color="#9b756d"/><stop offset="1" stop-color="#bc9388"/></linearGradient><linearGradient id="linear-gradient-10" x1="19.99" y1="23" x2="19.99" y2="22.96" xlink:href="#linear-gradient"/><linearGradient id="linear-gradient-11" y1="11" y2="1" xlink:href="#linear-gradient"/></defs><title>Boy Graduation</title><g id="Boy_Graduation" data-name="Boy Graduation"><path class="cls-1" d="M56,63H8c1.41-8.48,1.5-14.39,8.06-19.73H47.94C54.51,48.62,54.63,54.76,56,63Z"/><polygon class="cls-2" points="56 63 8 63 8.5 60 55.5 60 56 63"/><path class="cls-3" d="M48,42A14,14,0,0,1,34.62,56H29.37A14,14,0,0,1,16,42Z"/><path class="cls-4" d="M48,42a14.07,14.07,0,0,1-4.1,9.9C39.17,56.61,34.17,56,29.37,56A14,14,0,0,1,16,42c.4,0-.13-.12.69,2.33A14,14,0,0,0,29.37,54h5.25a14,14,0,0,0,12.69-9.65C48.12,41.89,47.6,42,48,42Z"/><circle class="cls-5" cx="32" cy="59" r="4"/><circle class="cls-5" cx="32" cy="59" r="4"/><path class="cls-6" d="M32,63a4,4,0,0,1-3.87-5,4,4,0,0,0,7.74,0A4,4,0,0,1,32,63Z"/><path class="cls-7" d="M36,38.31V42a5.66,5.66,0,0,1-8,0V38.31A11.94,11.94,0,0,0,36,38.31Z"/><path class="cls-8" d="M44,13.19V27a12,12,0,0,1-23.95,1.06c-.07-.82-.05.2-.05-14.87Z"/><path class="cls-9" d="M36,38.31v2a11.94,11.94,0,0,1-8,0v-2A11.94,11.94,0,0,0,36,38.31Z"/><path class="cls-10" d="M45,28H44V22h1a3,3,0,0,1,0,6Z"/><path class="cls-11" d="M19,22h1v6H19a3,3,0,0,1,0-6Z"/><path class="cls-9" d="M44,13.19V23.41S42,18,39.6,16.56c-3.72,1.91-7.38,1.5-15.28,1.44A40.82,40.82,0,0,0,20,23V13.19Z"/><path class="cls-12" d="M44,23c-.55-3.31-1-6-4-9-4,2.64-6.79,2-17,2-2.46,5.75-2.94,6.78-3,7a33.13,33.13,0,0,1-1-8.08A10.88,10.88,0,0,1,29.88,4C34.81,4,37.49,3.49,40,6a6.21,6.21,0,0,1,5,6.1A38.78,38.78,0,0,1,44,23Z"/><path class="cls-13" d="M44,23c-.55-3.31-1-6-4-9-4,2.64-6.79,2-17,2-2.46,5.75-2.94,6.78-3,7-.23-.92.57-4.9,2.05-8.36A1,1,0,0,1,23,14c9.89,0,13.12.53,17-1.61C42.25,11.12,44.5,21,44,23Z"/><path class="cls-14" d="M20,23s0,0,0,0S20,23,20,23Z"/><rect class="cls-15" x="19" y="1" width="26" height="10"/><rect class="cls-2" x="19" y="9" width="26" height="2"/><path d="M34.83,32.41a1,1,0,0,0-1.42,0,2,2,0,0,1-2.82,0,1,1,0,0,0-1.42,1.42C31.86,36.52,36.32,33.91,34.83,32.41Z"/><path d="M25,23v1a1,1,0,0,0,2,0V23A1,1,0,0,0,25,23Z"/><path d="M39,24V23a1,1,0,0,0-2,0v1A1,1,0,0,0,39,24Z"/><path d="M49,42.85c0-.28,0-.57,0-.85a1,1,0,0,0-1-1H37V39a13,13,0,0,0,7.83-10c5.3,0,5.55-7.42.6-8,.71-3.88.57-6.58.57-19h2V19a1,1,0,0,0,2,0V2h3a1,1,0,0,0,0-2H11a1,1,0,0,0,0,2h7c0,9.83-.16,9.36.41,9.79-.73,2.71-.33,6.58.16,9.25-5,.54-4.7,8,.6,8A12.94,12.94,0,0,0,27,39v2H16a1,1,0,0,0-1,1c0,.28,0,.57,0,.85-6.49,5.59-6.63,11.68-8,20A1,1,0,0,0,7.84,64c3.06.53-.24-11,7.52-18.74A15.06,15.06,0,0,0,27.54,56.79a5,5,0,1,0,8.92,0A15,15,0,0,0,48.64,45.25c5,5,5.06,10.06,6.37,17.91a1,1,0,0,0,2-.32C55.59,54.49,55.46,48.44,49,42.85ZM31,54.11,24.71,43h2.91a6.64,6.64,0,0,0,8.76,0h2.91L33,54.11A5,5,0,0,0,31,54.11ZM20.35,19.64c-.34-2.32-.61-5.39.09-7.64C45.74,12,44,12,44,12.1A52.23,52.23,0,0,1,43.84,18a14.34,14.34,0,0,0-3.13-4.74,1,1,0,0,0-1.26-.12C35.86,15.55,33.39,15,23,15,22.06,15,22.06,15.66,20.35,19.64ZM47,25a2,2,0,0,1-2,2,30.9,30.9,0,0,1,0-4A2,2,0,0,1,47,25ZM44,2v8H20V2ZM17,25a2,2,0,0,1,2-2c0,.15,0-.28,0,4A2,2,0,0,1,17,25Zm4,2V23.2L23.66,17c9.74,0,12.32.49,16.17-1.72,2.42,2.75,2.75,5.28,3.17,7.8V27a11,11,0,0,1-22,0ZM35,39.65v1.91a4.66,4.66,0,0,1-6,0c0-2.17-.05-1.93.13-1.89A13.07,13.07,0,0,0,35,39.65ZM17,43h5.37c7,12.45,6.77,11.89,6.67,12A13,13,0,0,1,17,43ZM32,62c-3.93,0-4-6,0-6S35.93,62,32,62ZM43.2,51.19a12.87,12.87,0,0,1-8.32,3.74L41.59,43H47A13.12,13.12,0,0,1,43.2,51.19Z"/></g></svg>