<svg xmlns="http://www.w3.org/2000/svg" xmlns:xlink="http://www.w3.org/1999/xlink" viewBox="0 0 64 64"><defs><style>.cls-1{fill:url(#linear-gradient);}.cls-2{fill:url(#linear-gradient-2);}.cls-3{fill:url(#linear-gradient-3);}.cls-4{fill:url(#linear-gradient-4);}.cls-5{fill:url(#linear-gradient-5);}.cls-6{fill:url(#linear-gradient-6);}.cls-7{fill:url(#linear-gradient-7);}.cls-8{fill:url(#linear-gradient-8);}.cls-9{fill:url(#linear-gradient-9);}.cls-10{fill:url(#linear-gradient-10);}.cls-11{fill:url(#linear-gradient-11);}.cls-12{fill:url(#linear-gradient-12);}.cls-13{fill:url(#linear-gradient-13);}.cls-14{fill:url(#linear-gradient-14);}.cls-15{fill:url(#linear-gradient-15);}.cls-16{fill:url(#linear-gradient-16);}.cls-17{fill:#42455e;}.cls-18{fill:#8288a1;}.cls-19{fill:#cf4055;}.cls-20{fill:url(#linear-gradient-17);}.cls-21{fill:#5b8dc9;}</style><linearGradient id="linear-gradient" x1="32" y1="63" x2="32" y2="1" gradientUnits="userSpaceOnUse"><stop offset="0" stop-color="#474f72"/><stop offset="1" stop-color="#878c9f"/></linearGradient><linearGradient id="linear-gradient-2" x1="15.5" y1="58" x2="15.5" y2="52" gradientUnits="userSpaceOnUse"><stop offset="0" stop-color="#949aaf"/><stop offset="1" stop-color="#c6ccda"/></linearGradient><linearGradient id="linear-gradient-3" x1="26.5" x2="26.5" xlink:href="#linear-gradient-2"/><linearGradient id="linear-gradient-4" x1="37.5" x2="37.5" xlink:href="#linear-gradient-2"/><linearGradient id="linear-gradient-5" x1="15.5" y1="48" x2="15.5" y2="42" xlink:href="#linear-gradient-2"/><linearGradient id="linear-gradient-6" x1="26.5" y1="48" x2="26.5" y2="42" xlink:href="#linear-gradient-2"/><linearGradient id="linear-gradient-7" x1="37.5" y1="48" x2="37.5" y2="42" xlink:href="#linear-gradient-2"/><linearGradient id="linear-gradient-8" x1="48.5" y1="58" x2="48.5" y2="42" gradientUnits="userSpaceOnUse"><stop offset="0" stop-color="#da5466"/><stop offset="1" stop-color="#f4929c"/></linearGradient><linearGradient id="linear-gradient-9" x1="15.5" y1="38" x2="15.5" y2="32" xlink:href="#linear-gradient-2"/><linearGradient id="linear-gradient-10" x1="26.5" y1="38" x2="26.5" y2="32" xlink:href="#linear-gradient-2"/><linearGradient id="linear-gradient-11" x1="37.5" y1="38" x2="37.5" y2="32" xlink:href="#linear-gradient-2"/><linearGradient id="linear-gradient-12" x1="48.5" y1="38" x2="48.5" y2="32" xlink:href="#linear-gradient-2"/><linearGradient id="linear-gradient-13" x1="15.51" y1="28" x2="15.51" y2="24" xlink:href="#linear-gradient-2"/><linearGradient id="linear-gradient-14" x1="26.51" y1="28" x2="26.51" y2="24" xlink:href="#linear-gradient-2"/><linearGradient id="linear-gradient-15" x1="37.51" y1="28" x2="37.51" y2="24" xlink:href="#linear-gradient-2"/><linearGradient id="linear-gradient-16" x1="48.51" y1="28" x2="48.51" y2="24" xlink:href="#linear-gradient-2"/><linearGradient id="linear-gradient-17" x1="32" y1="20" x2="32" y2="6" gradientUnits="userSpaceOnUse"><stop offset="0" stop-color="#7aa8d7"/><stop offset="1" stop-color="#c3d2e7"/></linearGradient></defs><title>Calculator</title><g id="Calculator"><rect class="cls-1" x="7" y="1" width="50" height="62" rx="2"/><rect class="cls-2" x="12" y="52" width="7" height="6" rx="2"/><rect class="cls-3" x="23" y="52" width="7" height="6" rx="2"/><rect class="cls-4" x="34" y="52" width="7" height="6" rx="2"/><rect class="cls-5" x="12" y="42" width="7" height="6" rx="2"/><rect class="cls-6" x="23" y="42" width="7" height="6" rx="2"/><rect class="cls-7" x="34" y="42" width="7" height="6" rx="2"/><rect class="cls-8" x="45" y="42" width="7" height="16" rx="2"/><rect class="cls-9" x="12" y="32" width="7" height="6" rx="2"/><rect class="cls-10" x="23" y="32" width="7" height="6" rx="2"/><rect class="cls-11" x="34" y="32" width="7" height="6" rx="2"/><rect class="cls-12" x="45" y="32" width="7" height="6" rx="2"/><path class="cls-13" d="M17,28H14a2,2,0,0,1-2-2h0a2,2,0,0,1,2-2h3a2,2,0,0,1,0,4Z"/><path class="cls-14" d="M28,28H25a2,2,0,0,1-2-2h0a2,2,0,0,1,2-2h3a2,2,0,0,1,0,4Z"/><path class="cls-15" d="M39,28H36a2,2,0,0,1-2-2h0a2,2,0,0,1,2-2h3a2,2,0,0,1,0,4Z"/><path class="cls-16" d="M50,28H47a2,2,0,0,1-2-2h0a2,2,0,0,1,2-2h3a2,2,0,0,1,0,4Z"/><path class="cls-17" d="M57,58v3a2,2,0,0,1-2,2H9a2,2,0,0,1-2-2V58a2,2,0,0,0,2,2H55A2,2,0,0,0,57,58Z"/><path class="cls-18" d="M19,54v2a2,2,0,0,1-2,2H14a2,2,0,0,1-2-2V54a2,2,0,0,0,2,2h3A2,2,0,0,0,19,54Z"/><path class="cls-18" d="M30,54v2a2,2,0,0,1-2,2H25a2,2,0,0,1-2-2V54a2,2,0,0,0,2,2h3A2,2,0,0,0,30,54Z"/><path class="cls-18" d="M41,54v2a2,2,0,0,1-2,2H36a2,2,0,0,1-2-2V54a2,2,0,0,0,2,2h3A2,2,0,0,0,41,54Z"/><path class="cls-18" d="M19,44v2a2,2,0,0,1-2,2H14a2,2,0,0,1-2-2V44a2,2,0,0,0,2,2h3A2,2,0,0,0,19,44Z"/><path class="cls-18" d="M30,44v2a2,2,0,0,1-2,2H25a2,2,0,0,1-2-2V44a2,2,0,0,0,2,2h3A2,2,0,0,0,30,44Z"/><path class="cls-18" d="M41,44v2a2,2,0,0,1-2,2H36a2,2,0,0,1-2-2V44a2,2,0,0,0,2,2h3A2,2,0,0,0,41,44Z"/><path class="cls-19" d="M52,54v2a2,2,0,0,1-2,2H47a2,2,0,0,1-2-2V54a2,2,0,0,0,2,2h3A2,2,0,0,0,52,54Z"/><path class="cls-18" d="M19,34v2a2,2,0,0,1-2,2H14a2,2,0,0,1-2-2V34a2,2,0,0,0,2,2h3A2,2,0,0,0,19,34Z"/><path class="cls-18" d="M30,34v2a2,2,0,0,1-2,2H25a2,2,0,0,1-2-2V34a2,2,0,0,0,2,2h3A2,2,0,0,0,30,34Z"/><path class="cls-18" d="M41,34v2a2,2,0,0,1-2,2H36a2,2,0,0,1-2-2V34a2,2,0,0,0,2,2h3A2,2,0,0,0,41,34Z"/><path class="cls-18" d="M52,34v2a2,2,0,0,1-2,2H47a2,2,0,0,1-2-2V34a2,2,0,0,0,2,2h3A2,2,0,0,0,52,34Z"/><path class="cls-18" d="M17,28H14a2,2,0,0,1-1.73-3A2,2,0,0,0,14,26c3.17,0,4,.24,4.73-1A2,2,0,0,1,17,28Z"/><path class="cls-18" d="M28,28H25a2,2,0,0,1-1.73-3A2,2,0,0,0,25,26c3.17,0,4,.24,4.73-1A2,2,0,0,1,28,28Z"/><path class="cls-18" d="M39,28H36a2,2,0,0,1-1.73-3A2,2,0,0,0,36,26c3.17,0,4,.24,4.73-1A2,2,0,0,1,39,28Z"/><path class="cls-18" d="M50,28H47a2,2,0,0,1-1.73-3A2,2,0,0,0,47,26c3.17,0,4,.24,4.73-1A2,2,0,0,1,50,28Z"/><rect class="cls-20" x="12" y="6" width="40" height="14"/><rect class="cls-21" x="12" y="17" width="40" height="3"/><path d="M55,0H9A3,3,0,0,0,6,3V61a3,3,0,0,0,3,3H55a3,3,0,0,0,3-3V3A3,3,0,0,0,55,0Zm1,61a1,1,0,0,1-1,1H9a1,1,0,0,1-1-1V3A1,1,0,0,1,9,2H55a1,1,0,0,1,1,1Z"/><path d="M17,51H14a3,3,0,0,0-3,3v2a3,3,0,0,0,3,3h3a3,3,0,0,0,3-3V54A3,3,0,0,0,17,51Zm1,5a1,1,0,0,1-1,1H14a1,1,0,0,1-1-1V54a1,1,0,0,1,1-1h3a1,1,0,0,1,1,1Z"/><path d="M28,51H25a3,3,0,0,0-3,3v2a3,3,0,0,0,3,3h3a3,3,0,0,0,3-3V54A3,3,0,0,0,28,51Zm1,5a1,1,0,0,1-1,1H25a1,1,0,0,1-1-1V54a1,1,0,0,1,1-1h3a1,1,0,0,1,1,1Z"/><path d="M39,51H36a3,3,0,0,0-3,3v2a3,3,0,0,0,3,3h3a3,3,0,0,0,3-3V54A3,3,0,0,0,39,51Zm1,5a1,1,0,0,1-1,1H36a1,1,0,0,1-1-1V54a1,1,0,0,1,1-1h3a1,1,0,0,1,1,1Z"/><path d="M17,41H14a3,3,0,0,0-3,3v2a3,3,0,0,0,3,3h3a3,3,0,0,0,3-3V44A3,3,0,0,0,17,41Zm1,5a1,1,0,0,1-1,1H14a1,1,0,0,1-1-1V44a1,1,0,0,1,1-1h3a1,1,0,0,1,1,1Z"/><path d="M28,41H25a3,3,0,0,0-3,3v2a3,3,0,0,0,3,3h3a3,3,0,0,0,3-3V44A3,3,0,0,0,28,41Zm1,5a1,1,0,0,1-1,1H25a1,1,0,0,1-1-1V44a1,1,0,0,1,1-1h3a1,1,0,0,1,1,1Z"/><path d="M39,41H36a3,3,0,0,0-3,3v2a3,3,0,0,0,3,3h3a3,3,0,0,0,3-3V44A3,3,0,0,0,39,41Zm1,5a1,1,0,0,1-1,1H36a1,1,0,0,1-1-1V44a1,1,0,0,1,1-1h3a1,1,0,0,1,1,1Z"/><path d="M50,41H47a3,3,0,0,0-3,3V56a3,3,0,0,0,3,3h3a3,3,0,0,0,3-3V44A3,3,0,0,0,50,41Zm1,15a1,1,0,0,1-1,1H47a1,1,0,0,1-1-1V44a1,1,0,0,1,1-1h3a1,1,0,0,1,1,1Z"/><path d="M17,31H14a3,3,0,0,0-3,3v2a3,3,0,0,0,3,3h3a3,3,0,0,0,3-3V34A3,3,0,0,0,17,31Zm1,5a1,1,0,0,1-1,1H14a1,1,0,0,1-1-1V34a1,1,0,0,1,1-1h3a1,1,0,0,1,1,1Z"/><path d="M28,31H25a3,3,0,0,0-3,3v2a3,3,0,0,0,3,3h3a3,3,0,0,0,3-3V34A3,3,0,0,0,28,31Zm1,5a1,1,0,0,1-1,1H25a1,1,0,0,1-1-1V34a1,1,0,0,1,1-1h3a1,1,0,0,1,1,1Z"/><path d="M39,31H36a3,3,0,0,0-3,3v2a3,3,0,0,0,3,3h3a3,3,0,0,0,3-3V34A3,3,0,0,0,39,31Zm1,5a1,1,0,0,1-1,1H36a1,1,0,0,1-1-1V34a1,1,0,0,1,1-1h3a1,1,0,0,1,1,1Z"/><path d="M50,31H47a3,3,0,0,0-3,3v2a3,3,0,0,0,3,3h3a3,3,0,0,0,3-3V34A3,3,0,0,0,50,31Zm1,5a1,1,0,0,1-1,1H47a1,1,0,0,1-1-1V34a1,1,0,0,1,1-1h3a1,1,0,0,1,1,1Z"/><path d="M17,23H14a3,3,0,0,0,0,6h3a3,3,0,0,0,0-6Zm0,4H14a1,1,0,0,1,0-2h3A1,1,0,0,1,17,27Z"/><path d="M28,23H25a3,3,0,0,0,0,6h3a3,3,0,0,0,0-6Zm0,4H25a1,1,0,0,1,0-2h3A1,1,0,0,1,28,27Z"/><path d="M39,23H36a3,3,0,0,0,0,6h3a3,3,0,0,0,0-6Zm0,4H36a1,1,0,0,1,0-2h3A1,1,0,0,1,39,27Z"/><path d="M50,23H47a3,3,0,0,0,0,6h3a3,3,0,0,0,0-6Zm0,4H47a1,1,0,0,1,0-2h3A1,1,0,0,1,50,27Z"/><path d="M52,5H12a1,1,0,0,0-1,1V20a1,1,0,0,0,1,1H52a1,1,0,0,0,1-1V6A1,1,0,0,0,52,5ZM51,19H13V7H51Z"/></g></svg>