<svg xmlns="http://www.w3.org/2000/svg" xmlns:xlink="http://www.w3.org/1999/xlink" viewBox="0 0 64 64"><defs><style>.cls-1{fill:url(#linear-gradient);}.cls-2{fill:url(#linear-gradient-2);}.cls-3{fill:#7ece67;}.cls-4{fill:#aae0e5;}.cls-5{fill:#77cacb;}.cls-6{fill:url(#linear-gradient-3);}.cls-7{fill:url(#linear-gradient-4);}.cls-8{fill:#cf4055;}.cls-9{fill:url(#linear-gradient-5);}.cls-10{fill:url(#linear-gradient-6);}.cls-11{fill:url(#linear-gradient-7);}</style><linearGradient id="linear-gradient" x1="47.92" y1="63.04" x2="47.92" y2="5" gradientUnits="userSpaceOnUse"><stop offset="0" stop-color="#9dd5df"/><stop offset="1" stop-color="#c3e1f5"/></linearGradient><linearGradient id="linear-gradient-2" x1="47.07" y1="59" x2="47.07" y2="38.31" gradientUnits="userSpaceOnUse"><stop offset="0" stop-color="#8cdd79"/><stop offset="1" stop-color="#d4e6b6"/></linearGradient><linearGradient id="linear-gradient-3" x1="23" y1="63" x2="23" y2="5" xlink:href="#linear-gradient"/><linearGradient id="linear-gradient-4" x1="23" y1="59" x2="23" y2="36.73" gradientUnits="userSpaceOnUse"><stop offset="0" stop-color="#da5466"/><stop offset="1" stop-color="#f4929c"/></linearGradient><linearGradient id="linear-gradient-5" x1="16.16" y1="37.75" x2="29.84" y2="37.75" xlink:href="#linear-gradient-4"/><linearGradient id="linear-gradient-6" x1="23" y1="5" x2="23" y2="1" xlink:href="#linear-gradient"/><linearGradient id="linear-gradient-7" x1="38.02" y1="3" x2="53.98" y2="3" xlink:href="#linear-gradient"/></defs><title>Chemistry</title><g id="Chemistry"><path class="cls-1" d="M63,46A17,17,0,0,1,41.45,62.38L32.84,35.24A17,17,0,0,1,40,30.09V5H52V30.09A17,17,0,0,1,63,46Z"/><path class="cls-2" d="M44.61,58.92A10.7,10.7,0,0,0,46,59,13,13,0,0,0,59,46a12.88,12.88,0,0,0-2.06-7c-10.89,4.93-11-3-21.8-.05"/><path class="cls-3" d="M59,46A13,13,0,0,1,46,59a10.7,10.7,0,0,1-1.39-.08L35.14,39c.44-.12,9.47,17,9.47,17A10.7,10.7,0,0,0,46,56,13,13,0,0,0,58.91,44.52,12.12,12.12,0,0,1,59,46Z"/><path class="cls-4" d="M36.08,36.7c-.81.15-1.76.42-2.57.64l-.67-2.1a16.91,16.91,0,0,1,1.41-1.52Z"/><path class="cls-5" d="M45.82,61a8.5,8.5,0,0,1-1.58,1.9,15.11,15.11,0,0,1-2.79-.52L36.24,46l7,14.8A18.17,18.17,0,0,0,45.82,61Z"/><path class="cls-6" d="M45,56.76A6.24,6.24,0,0,1,38.76,63H7.24A6.25,6.25,0,0,1,1,56.76C1,54.32.82,55.29,17,29V5H29V29C45.54,55.9,45,54.33,45,56.76Z"/><path class="cls-7" d="M41,56.76A2.24,2.24,0,0,1,38.76,59H7.24a2.24,2.24,0,0,1-1.91-3.41L16.16,38C23,34,23,41,29.84,38L40.67,55.59A2.23,2.23,0,0,1,41,56.76Z"/><path class="cls-8" d="M41,56.76A2.24,2.24,0,0,1,38.76,59H7.24a2.24,2.24,0,0,1-1.91-3.41l.22-.36A2.21,2.21,0,0,0,7.24,56H38.76a2.21,2.21,0,0,0,1.69-.77l.22.36A2.23,2.23,0,0,1,41,56.76Z"/><path class="cls-9" d="M16.16,38C23,34,23,41,29.84,38"/><path class="cls-10" d="M29,5H17a2,2,0,0,1,0-4H29A2,2,0,0,1,29,5Z"/><path class="cls-11" d="M52,5H40a2,2,0,0,1,0-4H52A2,2,0,0,1,52,5Z"/><rect class="cls-4" x="17" y="5" width="12" height="3"/><rect class="cls-4" x="40" y="5" width="12" height="3"/><path d="M30.69,37.48a1,1,0,0,0-1.25-.4c-6,2.65-6.54-4.18-13.78.06-.33.19.34-.79-11.18,17.93A3.24,3.24,0,0,0,7.24,60H38.76A3.24,3.24,0,0,0,42,56.76C42,55.44,42.33,56.38,30.69,37.48ZM38.76,58H7.24A1.25,1.25,0,0,1,6,56.76c0-.5-.86,1.05,10.87-18,5.73-3.23,6,2.76,12.47.51.13,0-.39-.8,10.48,16.85A1.24,1.24,0,0,1,38.76,58Z"/><path d="M53,29.41V5.82A3,3,0,0,0,52,0H40a3,3,0,0,0-1,5.82V29.41a18,18,0,0,0-6,4.16l-3-4.85V5.82A3,3,0,0,0,29,0H17a3,3,0,0,0-1,5.82v22.9C.09,54.58,0,53.94,0,56.76A7.25,7.25,0,0,0,7.24,64c33.93,0,32.41.24,34.32-.56A18,18,0,0,0,53,29.41ZM40,2H52a1,1,0,0,1,0,2H40A1,1,0,0,1,40,2ZM17,2H29a1,1,0,0,1,0,2H17A1,1,0,0,1,17,2ZM7.24,62a5.24,5.24,0,0,1-4.46-8C18.86,27.88,18,29.43,18,29V6H28V9H27a1,1,0,0,0,0,2h1v3H26a1,1,0,0,0,0,2h2v3H27a1,1,0,0,0,0,2h1v3H26a1,1,0,0,0,0,2h2v3H27a1,1,0,0,0,0,2h2.05C44.48,56.06,44,54.71,44,56.76A5.25,5.25,0,0,1,38.76,62Zm37.69-9L36.72,39.64c8.84-1.78,9.74,4.82,19.81.65A12,12,0,0,1,45.89,58,7.21,7.21,0,0,0,44.93,53Zm-1,8.89A7.19,7.19,0,0,0,45.24,60a14,14,0,0,0,12.54-21.5,1,1,0,0,0-1.25-.37c-10.29,4.66-10.22-2.8-20.92-.28l-1.53-2.49A15.87,15.87,0,0,1,40.35,31c.93-.35.65.93.65-25H51V9H50a1,1,0,0,0,0,2h1v3H49a1,1,0,0,0,0,2h2v3H50a1,1,0,0,0,0,2h1v3H49a1,1,0,0,0,0,2h2v3H50a1,1,0,0,0,0,2h1.6C69.94,39.07,61.88,64.23,43.89,61.86Z"/></g></svg>