<svg xmlns="http://www.w3.org/2000/svg" xmlns:xlink="http://www.w3.org/1999/xlink" viewBox="0 0 64 64"><defs><style>.cls-1{fill:url(#linear-gradient);}.cls-2{fill:#cf4055;}.cls-3{fill:url(#linear-gradient-2);}.cls-4{fill:url(#linear-gradient-3);}.cls-5{fill:#8288a1;}.cls-6{fill:url(#linear-gradient-4);}.cls-7{fill:url(#linear-gradient-5);}.cls-8{fill:url(#linear-gradient-6);}.cls-9{fill:url(#linear-gradient-7);}.cls-10{fill:#dfe3ea;}</style><linearGradient id="linear-gradient" x1="32" y1="63" x2="32" y2="9" gradientUnits="userSpaceOnUse"><stop offset="0" stop-color="#da5466"/><stop offset="1" stop-color="#f4929c"/></linearGradient><linearGradient id="linear-gradient-2" x1="10.75" y1="24.5" x2="10.75" y2="5" gradientUnits="userSpaceOnUse"><stop offset="0" stop-color="#949aaf"/><stop offset="1" stop-color="#c6ccda"/></linearGradient><linearGradient id="linear-gradient-3" x1="53.25" x2="53.25" y2="5" xlink:href="#linear-gradient-2"/><linearGradient id="linear-gradient-4" x1="15.41" y1="63" x2="15.41" y2="57.31" gradientUnits="userSpaceOnUse"><stop offset="0" stop-color="#474f72"/><stop offset="1" stop-color="#878c9f"/></linearGradient><linearGradient id="linear-gradient-5" x1="48.58" x2="48.58" y2="57.31" xlink:href="#linear-gradient-4"/><linearGradient id="linear-gradient-6" x1="29" y1="3" x2="35" y2="3" xlink:href="#linear-gradient-2"/><linearGradient id="linear-gradient-7" x1="32" y1="58" x2="32" y2="14" gradientUnits="userSpaceOnUse"><stop offset="0" stop-color="#d4d8e1"/><stop offset="1" stop-color="#f3f4f5"/></linearGradient></defs><title>Clock</title><g id="Clock"><circle class="cls-1" cx="32" cy="36" r="27"/><path class="cls-2" d="M32,63C16.24,63,4.15,49.5,5,35A27,27,0,0,0,59,35C59.85,49.47,47.79,63,32,63Z"/><path class="cls-3" d="M20.5,9.5l-15,15L4.11,23.11A10.61,10.61,0,0,1,15.67,5.81C17.92,6.75,19,8,20.5,9.5Z"/><path class="cls-4" d="M43.5,9.5l15,15,1.39-1.39A10.61,10.61,0,0,0,48.33,5.81C46.08,6.75,45.05,8,43.5,9.5Z"/><path class="cls-5" d="M20.5,9.5l-15,15L4.11,23.11a10.35,10.35,0,0,1-2.9-9.41A5.09,5.09,0,0,0,9.8,16.2l8.67-8.67C19,7.93,19.26,8.26,20.5,9.5Z"/><path class="cls-5" d="M58.5,24.5l-15-15c1.36-1.36,1.58-1.6,2-2l8.68,8.68a5.08,5.08,0,0,0,8.6-2.61C63.74,18.62,61.5,21.5,58.5,24.5Z"/><polyline class="cls-6" points="15.43 57.31 11 63 16 63 19.83 60.1"/><polyline class="cls-7" points="48.57 57.31 53 63 48 63 44.17 60.1"/><rect class="cls-8" x="29" y="1" width="6" height="4"/><circle class="cls-9" cx="32" cy="36" r="22"/><path class="cls-10" d="M54,37A22,22,0,0,0,10,37,22,22,0,1,1,54,37Z"/><path d="M32,13A23,23,0,1,0,55,36,23,23,0,0,0,32,13Zm0,44A21,21,0,1,1,53,36,21,21,0,0,1,32,57Z"/><path d="M59.21,25.21c2.14-2.15,4.79-4.64,4.79-9.6A11.61,11.61,0,0,0,52.39,4c-4.78,0-7.3,2.5-9.6,4.79a1,1,0,0,0,0,1.36A27.86,27.86,0,0,0,33,8V6h2a1,1,0,0,0,1-1V1a1,1,0,0,0-1-1H29a1,1,0,0,0-1,1V5a1,1,0,0,0,1,1h2V8a27.86,27.86,0,0,0-9.76,2.12,1,1,0,0,0,0-1.36c-1.62-1.61-2.73-2.89-5.16-3.9A11.61,11.61,0,0,0,3.4,23.82C4.93,25.35,5,25.5,5.5,25.5a1,1,0,0,0,.65-.26A28,28,0,0,0,14,57.46l-3.83,4.93A1,1,0,0,0,11,64c5.34,0,5.23.08,5.6-.2l3.34-2.53a28,28,0,0,0,24.12,0L47.4,63.8c.36.28.22.2,5.6.2a1,1,0,0,0,.79-1.61L50,57.46a28,28,0,0,0,7.89-32.22A1,1,0,0,0,59.21,25.21ZM30,2h4V4H30ZM5.5,23.09C-4.45,13.13,9.08-.5,19.09,9.5l-5,5a30.26,30.26,0,0,0-3.58,3.58ZM15.66,62H13.05l2.57-3.31c.77.55,1.56,1.07,2.38,1.54ZM51,62H48.34L46,60.23c.82-.47,1.61-1,2.38-1.54ZM32,62C10,62-2,36.3,12,19.46l3.5-3.5a25.93,25.93,0,0,1,33.08,0l3.51,3.51C66,36.31,53.94,62,32,62ZM49.92,14.5l-5-5,.69-.68A9.62,9.62,0,0,1,62,15.61c0,3.29-1.42,5.4-3.5,7.48l-5-5A29.53,29.53,0,0,0,49.92,14.5Z"/><path d="M33,20V17a1,1,0,0,0-2,0v3A1,1,0,0,0,33,20Z"/><path d="M31,52v3a1,1,0,0,0,2,0V52A1,1,0,0,0,31,52Z"/><path d="M16,35H13a1,1,0,0,0,0,2h3A1,1,0,0,0,16,35Z"/><path d="M48,37h3a1,1,0,0,0,0-2H48A1,1,0,0,0,48,37Z"/><path d="M23,20.41a1,1,0,0,0-1-1.73A1,1,0,0,0,23,20.41Z"/><path d="M41,51.59a1,1,0,0,0,1,1.73A1,1,0,0,0,41,51.59Z"/><path d="M42,18.68a1,1,0,0,0-1,1.73A1,1,0,0,0,42,18.68Z"/><path d="M23,51.59a1,1,0,0,0-1,1.73A1,1,0,0,0,23,51.59Z"/><path d="M49,44.63a1,1,0,0,0-1,1.74A1,1,0,0,0,49,44.63Z"/><path d="M15.05,27.37a1,1,0,0,0,1-1.74A1,1,0,0,0,15.05,27.37Z"/><path d="M49,27.37a1,1,0,0,0-1-1.74A1,1,0,0,0,49,27.37Z"/><path d="M15.05,44.63a1,1,0,0,0,1,1.74A1,1,0,0,0,15.05,44.63Z"/><path d="M35,35H33.72c-1-1.65-.72,2.18-.72-11a1,1,0,0,0-2,0V34.28c-1.6.93,1.72.72-8,.72a1,1,0,0,0,0,2c9.72,0,6.4-.21,8,.72V39a1,1,0,0,0,2,0V37.72a1.91,1.91,0,0,0,.72-.72H35A1,1,0,0,0,35,35Z"/></g></svg>