<svg xmlns="http://www.w3.org/2000/svg" xmlns:xlink="http://www.w3.org/1999/xlink" viewBox="0 0 64 64"><defs><style>.cls-1{fill:url(#linear-gradient);}.cls-2{fill:url(#linear-gradient-2);}.cls-3{fill:url(#linear-gradient-3);}.cls-4{fill:#5b8dc9;}.cls-5{fill:#adb3c4;}.cls-6{fill:url(#linear-gradient-4);}.cls-7{fill:url(#linear-gradient-5);}.cls-8{fill:url(#linear-gradient-6);}.cls-9{fill:#42455e;}.cls-10{fill:#575f7c;}.cls-11{fill:url(#linear-gradient-7);}.cls-12{fill:#f2a961;}.cls-13{fill:#dd8b37;}</style><linearGradient id="linear-gradient" x1="32" y1="10.41" x2="32" y2="1" gradientUnits="userSpaceOnUse"><stop offset="0" stop-color="#7aa8d7"/><stop offset="1" stop-color="#c3d2e7"/></linearGradient><linearGradient id="linear-gradient-2" x1="17" y1="63" x2="17" y2="24" gradientUnits="userSpaceOnUse"><stop offset="0" stop-color="#e9a254"/><stop offset="1" stop-color="#f4bb79"/></linearGradient><linearGradient id="linear-gradient-3" x1="33.27" y1="54" x2="33.27" y2="15" gradientUnits="userSpaceOnUse"><stop offset="0" stop-color="#949aaf"/><stop offset="1" stop-color="#c6ccda"/></linearGradient><linearGradient id="linear-gradient-4" y1="20" y2="10" xlink:href="#linear-gradient"/><linearGradient id="linear-gradient-5" x1="46" y1="59" x2="46" y2="49" xlink:href="#linear-gradient-3"/><linearGradient id="linear-gradient-6" x1="17" y1="46" x2="17" y2="40" gradientUnits="userSpaceOnUse"><stop offset="0" stop-color="#474f72"/><stop offset="1" stop-color="#878c9f"/></linearGradient><linearGradient id="linear-gradient-7" x1="17" y1="63" x2="17" y2="55" gradientUnits="userSpaceOnUse"><stop offset="0" stop-color="#d1a788"/><stop offset="1" stop-color="#f2d3b8"/></linearGradient></defs><title>Compass</title><g id="Compass"><path class="cls-1" d="M34,3v7.41H30V3a2,2,0,0,1,4,0Z"/><path class="cls-2" d="M20,24H14V55.68c0,.48-.39-.59,3,7.32,3.38-7.89,3-6.84,3-7.32Z"/><path class="cls-3" d="M46.61,49.06,43,54c-9.92-35.16-8.87-31.44-9.64-34.19H30.64c-.64,2.3.59-2.07-6,21.19L20,43c-.07-4.29-1.07.6,7-28H37C38.58,20.61,42.85,35.74,46.61,49.06Z"/><path class="cls-4" d="M34,10.41H30V8.29a7,7,0,0,1,4,0Z"/><path class="cls-5" d="M38,18.58a6.94,6.94,0,0,1-4.11,3.15l-.54-1.92H30.64l-.54,1.93A7,7,0,0,1,26,18.58L27,15H37Z"/><circle class="cls-6" cx="32" cy="15" r="5"/><path class="cls-7" d="M46,49a3,3,0,0,1,3,3v5l-2,2H45l-2-2V52A3,3,0,0,1,46,49Z"/><rect class="cls-8" x="13" y="40" width="8" height="6"/><rect class="cls-9" x="13" y="44" width="8" height="2"/><rect class="cls-10" x="21" y="41" width="4" height="4" transform="translate(46 86) rotate(180)"/><path class="cls-11" d="M20,55.68c0,.48.39-.59-3,7.32-3.38-7.89-3-6.84-3-7.32A6.93,6.93,0,0,1,20,55.68Z"/><rect class="cls-12" x="14" y="24" width="6" height="3"/><rect class="cls-13" x="14" y="46" width="6" height="3"/><path d="M47.43,48.28,38,14.83a6,6,0,0,0-3-5c0-7,.29-7.79-.87-8.92A3,3,0,0,0,29,3V9.81a6,6,0,0,0-3,5L21,32.59V24a1,1,0,0,0-1-1H14a1,1,0,0,0-1,1V39a1,1,0,0,0-1,1v6a1,1,0,0,0,1,1c0,9.84,0,9.12.08,9.39C16.19,63.64,16.08,64,17,64s.68,0,3.92-7.61c.11-.26.08.28.08-9.39a1,1,0,0,0,1-1h3a1,1,0,0,0,1-1c0-4.48.05-4.15-.15-4.5L31.35,21a5.65,5.65,0,0,0,1.3,0L42,54.14c0,3.08-.09,3.18.29,3.57C44.43,59.85,44.45,60,45,60v3a1,1,0,0,0,2,0V60c.54,0,.57-.15,2.71-2.29.39-.4.29-.23.29-5.71A4,4,0,0,0,47.43,48.28ZM31,3a1,1,0,0,1,1.71-.69c.41.4.29.36.29,6.78a5.6,5.6,0,0,0-2,0ZM14,45V41H20c.11,0,.05-.28.05,4Zm1-20h4V39H15Zm2.6,34a6.12,6.12,0,0,0-1.21,0l-1.18-2.77a6,6,0,0,1,3.55,0ZM19,54.27a8,8,0,0,0-4,0V47h4ZM24,44H22V42h2Zm-.09-4H22a1,1,0,0,0-.74-1l5.82-20.63a6,6,0,0,0,2.35,2ZM28,15a4,4,0,1,1,4,4A4,4,0,0,1,28,15Zm8.92,3.42,8.37,29.65a4,4,0,0,0-2.49,1.55L34.57,20.41A6,6,0,0,0,36.92,18.42ZM48,56.59,46.59,58H45.41L44,56.59V52a2,2,0,0,1,4,0Z"/><path d="M46,52a1,1,0,0,0,0,2A1,1,0,0,0,46,52Z"/><circle cx="32" cy="15" r="2"/></g></svg>