<svg xmlns="http://www.w3.org/2000/svg" xmlns:xlink="http://www.w3.org/1999/xlink" viewBox="0 0 64 64"><defs><style>.cls-1{fill:url(#linear-gradient);}.cls-2{fill:#f6b756;}.cls-3{fill:url(#linear-gradient-2);}.cls-4{fill:#cf4055;}.cls-5{fill:url(#linear-gradient-3);}.cls-6{fill:url(#linear-gradient-4);}.cls-7{fill:url(#linear-gradient-5);}.cls-8{fill:url(#linear-gradient-6);}.cls-9{fill:url(#linear-gradient-7);}.cls-10{fill:url(#linear-gradient-8);}.cls-11{fill:url(#linear-gradient-9);}.cls-12{fill:#eab39b;}.cls-13{fill:url(#linear-gradient-13);}.cls-14{fill:#c7cdd8;}.cls-15{fill:#dfe3ea;}</style><linearGradient id="linear-gradient" x1="32" y1="36" x2="32" y2="1" gradientUnits="userSpaceOnUse"><stop offset="0" stop-color="#fbcc88"/><stop offset="1" stop-color="#ffe5c3"/></linearGradient><linearGradient id="linear-gradient-2" x1="32" y1="25.09" x2="32" y2="9.09" gradientUnits="userSpaceOnUse"><stop offset="0" stop-color="#da5466"/><stop offset="1" stop-color="#f4929c"/></linearGradient><linearGradient id="linear-gradient-3" x1="21" y1="15.09" x2="32" y2="15.09" gradientUnits="userSpaceOnUse"><stop offset="0" stop-color="#d4d8e1"/><stop offset="1" stop-color="#f3f4f5"/></linearGradient><linearGradient id="linear-gradient-4" x1="32" y1="15.09" x2="43" y2="15.09" xlink:href="#linear-gradient-3"/><linearGradient id="linear-gradient-5" x1="32" y1="53" x2="32" y2="41" gradientUnits="userSpaceOnUse"><stop offset="0" stop-color="#f2c4b0"/><stop offset="1" stop-color="#ffe3d7"/></linearGradient><linearGradient id="linear-gradient-6" x1="32" y1="63" y2="53" xlink:href="#linear-gradient-3"/><linearGradient id="linear-gradient-7" x1="52" x2="52" xlink:href="#linear-gradient-5"/><linearGradient id="linear-gradient-8" x1="52" y1="63" x2="52" y2="53" xlink:href="#linear-gradient-3"/><linearGradient id="linear-gradient-9" x1="12" x2="12" xlink:href="#linear-gradient-5"/><linearGradient id="linear-gradient-13" x1="12" y1="63" x2="12" y2="53" xlink:href="#linear-gradient-3"/></defs><title>Discussion Class</title><g id="Discussion_Class" data-name="Discussion Class"><path class="cls-1" d="M59,1H5C2.79,1,1,1.79,1,4V26a4,4,0,0,0,4,4H9l3,6,3-6H29l3,6,3-6H49l3,6,3-6h4a4,4,0,0,0,4-4V4C63,1.79,61.21,1,59,1Z"/><path class="cls-2" d="M63,25v1a4,4,0,0,1-4,4H55l-3,6-3-6H35l-3,6-3-6H15l-3,6L9,30H5a4,4,0,0,1-4-4V25a3,3,0,0,0,3,3H60A3,3,0,0,0,63,25Z"/><path class="cls-3" d="M17,9.09v16H47v-16Z"/><path class="cls-4" d="M17,23v2.09H47V23Z"/><path class="cls-5" d="M32,9.09v16c-4.31-4.31-5-4-11-4v-16C27,5.09,27.69,4.78,32,9.09Z"/><path class="cls-6" d="M32,9.09v16c4.31-4.31,5-4,11-4v-16C37,5.09,36.31,4.78,32,9.09Z"/><path class="cls-7" d="M32,53a5,5,0,0,1-5-5V46a5,5,0,0,1,10,0v2A5,5,0,0,1,32,53Z"/><path class="cls-8" d="M42,63H22a10,10,0,0,1,20,0Z"/><path class="cls-9" d="M52,53a5,5,0,0,1-5-5V46a5,5,0,0,1,10,0v2A5,5,0,0,1,52,53Z"/><path class="cls-10" d="M62,63H42a10,10,0,0,1,20,0Z"/><path class="cls-11" d="M12,53a5,5,0,0,1-5-5V46a5,5,0,0,1,10,0v2A5,5,0,0,1,12,53Z"/><path class="cls-7" d="M32,53a5,5,0,0,1-5-5V46a5,5,0,0,1,10,0v2A5,5,0,0,1,32,53Z"/><path class="cls-9" d="M52,53a5,5,0,0,1-5-5V46a5,5,0,0,1,10,0v2A5,5,0,0,1,52,53Z"/><path class="cls-11" d="M12,53a5,5,0,0,1-5-5V46a5,5,0,0,1,10,0v2A5,5,0,0,1,12,53Z"/><path class="cls-12" d="M37,46v2a5,5,0,0,1-10,0V46a5,5,0,0,0,10,0Z"/><path class="cls-12" d="M57,46v2a5,5,0,0,1-10,0V46a5,5,0,0,0,10,0Z"/><path class="cls-12" d="M17,46v2A5,5,0,0,1,7,48V46a5,5,0,0,0,10,0Z"/><path class="cls-13" d="M22,63H2a10,10,0,0,1,20,0Z"/><path class="cls-14" d="M21.8,61a10.2,10.2,0,0,1,.2,2H2a10,10,0,0,1,.2-2Z"/><path class="cls-14" d="M41.8,61a10.2,10.2,0,0,1,.2,2H22a10,10,0,0,1,.2-2Z"/><path class="cls-14" d="M62,63H42a10,10,0,0,1,.2-2H61.8A10.2,10.2,0,0,1,62,63Z"/><path class="cls-15" d="M36.92,54.3a8,8,0,0,1-9.84,0A10,10,0,0,1,36.92,54.3Z"/><path class="cls-15" d="M56.92,54.3a8,8,0,0,1-9.84,0A10,10,0,0,1,56.92,54.3Z"/><path class="cls-15" d="M16.92,54.3a8,8,0,0,1-9.84,0A10,10,0,0,1,16.92,54.3Z"/><path d="M55.75,52.67c2.52-2,2.25-4.5,2.25-6.67a6,6,0,0,0-12,0c0,2.24-.27,4.65,2.25,6.67A11.08,11.08,0,0,0,42,58.44a11.08,11.08,0,0,0-6.25-5.77c2.52-2,2.25-4.5,2.25-6.67a6,6,0,0,0-12,0c0,2.24-.27,4.65,2.25,6.67A11.08,11.08,0,0,0,22,58.44a11.08,11.08,0,0,0-6.25-5.77c2.52-2,2.25-4.5,2.25-6.67A6,6,0,0,0,6,46c0,2.24-.27,4.65,2.25,6.67A11,11,0,0,0,1,63a1,1,0,0,0,2,0,9,9,0,0,1,18,0,1,1,0,0,0,2,0,9,9,0,0,1,18,0,1,1,0,0,0,2,0,9,9,0,0,1,18,0,1,1,0,0,0,2,0A11,11,0,0,0,55.75,52.67ZM8,48V46a4,4,0,0,1,8,0v2a4,4,0,0,1-8,0Zm20,0V46a4,4,0,0,1,8,0v2a4,4,0,0,1-8,0Zm20,0V46a4,4,0,0,1,8,0v2a4,4,0,0,1-8,0Z"/><path d="M6,61v2a1,1,0,0,0,2,0V61A1,1,0,0,0,6,61Z"/><path d="M16,61v2a1,1,0,0,0,2,0V61A1,1,0,0,0,16,61Z"/><path d="M26,61v2a1,1,0,0,0,2,0V61A1,1,0,0,0,26,61Z"/><path d="M36,61v2a1,1,0,0,0,2,0V61A1,1,0,0,0,36,61Z"/><path d="M46,61v2a1,1,0,0,0,2,0V61A1,1,0,0,0,46,61Z"/><path d="M56,61v2a1,1,0,0,0,2,0V61A1,1,0,0,0,56,61Z"/><path d="M47,8.09H44v-3a1,1,0,0,0-1-1c-5.54,0-7-.34-11,3.59-4-3.93-5.46-3.59-11-3.59a1,1,0,0,0-1,1v3H17a1,1,0,0,0-1,1v16a1,1,0,0,0,1,1H47a1,1,0,0,0,1-1v-16A1,1,0,0,0,47,8.09Zm-5-2v14c-3.9,0-5.86-.21-9,2.64V9.5C36.59,5.92,37.29,6.09,42,6.09Zm-20,0c4.68,0,5.38-.2,9,3.41V22.73c-3.14-2.85-5.11-2.64-9-2.64Zm-4,4h2v11a1,1,0,0,0,1,1c4.27,0,5.85-.37,8.52,2H18Zm28,14H34.48c2.69-2.39,4.32-2,8.52-2a1,1,0,0,0,1-1v-11h2Z"/><path d="M59,0H5C1.87,0,0,1.5,0,4V26a5,5,0,0,0,5,5H8.38l2.73,5.45a1,1,0,0,0,1.78,0L15.62,31H28.38l2.73,5.45a1,1,0,0,0,1.78,0L35.62,31H48.38l2.73,5.45a1,1,0,0,0,1.78,0L55.62,31H59a5,5,0,0,0,5-5V4C64,1.5,62.13,0,59,0Zm3,26a3,3,0,0,1-3,3H55c-.82,0-.78.31-3,4.76C49.73,29.23,49.81,29,49,29c-15,0-14.51-.22-14.89.55L32,33.76l-2.11-4.21C29.51,28.77,30,29,15,29c-.82,0-.78.31-3,4.76C9.73,29.23,9.81,29,9,29H5a3,3,0,0,1-3-3V4c0-.5,0-2,3-2H59c3,0,3,1.5,3,2Z"/></g></svg>