<svg xmlns="http://www.w3.org/2000/svg" xmlns:xlink="http://www.w3.org/1999/xlink" viewBox="0 0 64 64"><defs><style>.cls-1{fill:url(#linear-gradient);}.cls-2{fill:#8a6762;}.cls-3{fill:url(#linear-gradient-2);}.cls-4{fill:#fcd2c3;}.cls-5{fill:url(#linear-gradient-3);}.cls-6{fill:url(#linear-gradient-4);}.cls-7{fill:url(#linear-gradient-5);}.cls-8{fill:url(#linear-gradient-6);}.cls-9{fill:#5b8dc9;}.cls-10{fill:url(#linear-gradient-7);}.cls-11{fill:url(#linear-gradient-8);}.cls-12{fill:url(#linear-gradient-9);}.cls-13{fill:url(#linear-gradient-10);}.cls-14{fill:url(#linear-gradient-11);}</style><linearGradient id="linear-gradient" x1="26" y1="41" x2="26" y2="0.98" gradientUnits="userSpaceOnUse"><stop offset="0" stop-color="#9b756d"/><stop offset="1" stop-color="#bc9388"/></linearGradient><linearGradient id="linear-gradient-2" x1="26.01" y1="36" x2="26.01" y2="9" gradientUnits="userSpaceOnUse"><stop offset="0" stop-color="#f2c4b0"/><stop offset="1" stop-color="#ffe3d7"/></linearGradient><linearGradient id="linear-gradient-3" x1="26" y1="63" x2="26" y2="38.99" gradientUnits="userSpaceOnUse"><stop offset="0" stop-color="#7aa8d7"/><stop offset="1" stop-color="#c3d2e7"/></linearGradient><linearGradient id="linear-gradient-4" x1="26" y1="58" x2="26" y2="39" gradientUnits="userSpaceOnUse"><stop offset="0.29" stop-color="#7aa8d7"/><stop offset="1" stop-color="#c3d2e7"/></linearGradient><linearGradient id="linear-gradient-5" x1="55" x2="55" y2="48" xlink:href="#linear-gradient-3"/><linearGradient id="linear-gradient-6" x1="55.49" y1="48" x2="55.49" y2="30.99" xlink:href="#linear-gradient-2"/><linearGradient id="linear-gradient-7" x1="26" y1="49" x2="26" y2="35.31" xlink:href="#linear-gradient-2"/><linearGradient id="linear-gradient-8" x1="40" y1="25" x2="40" y2="19" xlink:href="#linear-gradient-2"/><linearGradient id="linear-gradient-9" x1="12" y1="25" x2="12" y2="19" xlink:href="#linear-gradient-2"/><linearGradient id="linear-gradient-10" x1="20.5" y1="24" x2="20.5" y2="17" gradientUnits="userSpaceOnUse"><stop offset="0" stop-color="#9dd5df"/><stop offset="1" stop-color="#c3e1f5"/></linearGradient><linearGradient id="linear-gradient-11" x1="31.5" x2="31.5" xlink:href="#linear-gradient-10"/></defs><title>Female Teacher</title><g id="Female_Teacher" data-name="Female Teacher"><path class="cls-1" d="M42,13V41H10V12a9,9,0,0,1,9-9C22.6.61,25.5,1,30,1A12,12,0,0,1,42,13Z"/><path class="cls-2" d="M38,20c-.9,0-.93-.64-2-3.46A7,7,0,0,0,29.46,12c-4.41,0-7.71.56-10.52-2.47-2.73,3.16-3.44,6.07-4,9.61a1,1,0,0,1-2-.28c.62-4.33,1.71-8,5.28-11.57a1,1,0,0,1,1.54.16A5.75,5.75,0,0,0,24.61,10h4.85a9,9,0,0,1,8.42,5.84l1.06,2.81A1,1,0,0,1,38,20Z"/><path class="cls-3" d="M38,24a12,12,0,0,1-24,0c0-4.78-.07-3.53.2-5.4A17,17,0,0,1,19,9c2.75,4.17,7.21,2.69,11.15,3A8,8,0,0,1,37,17.19C38.27,20.73,38,19.2,38,24Z"/><path class="cls-4" d="M38,20c0,1.82.22,1.76-1-1.46C36,15.83,32.36,14,29.46,14c-4.41,0-7.71.56-10.52-2.47-2.71,3.14-4.42,6-4.94,9.55A17.17,17.17,0,0,1,19,9a6.74,6.74,0,0,0,4.89,3c.69.06.13,0,5.57,0A8,8,0,0,1,37,17.19Z"/><path class="cls-2" d="M42,37.93V41H10V37.93A17.08,17.08,0,0,1,17.86,36C34.48,36,37.16,35.38,42,37.93Z"/><path class="cls-5" d="M50,63H2c.64-3.84,1.36-8.14,2.05-12.3A14,14,0,0,1,17.86,39c17.94,0,17,0,18.15.13A14,14,0,0,1,48,50.7C48.64,54.86,49.36,59.16,50,63Z"/><polygon class="cls-6" points="33.89 39 38 45 31 48 33 52 26 58 19 52 21 48 14 45 18.11 39 33.89 39"/><rect class="cls-7" x="50" y="48" width="10" height="15"/><path class="cls-8" d="M62,35v4c0,3-3,5-3,5v4H51V44s-2-2-2-4c0-4.63-.6-9,4-9,.68,0,.94.34.88.95C55.28,30.29,62,30.49,62,35Z"/><path class="cls-9" d="M49.5,60H2.5L2,63H50Z"/><rect class="cls-9" x="50" y="60" width="10" height="3"/><path class="cls-10" d="M30,35.31V39L26,49,22,39V35.31A11.94,11.94,0,0,0,30,35.31Z"/><path class="cls-11" d="M39,25H38V19h1a3,3,0,0,1,0,6Z"/><path class="cls-12" d="M13,19h1v6H13a3,3,0,0,1,0-6Z"/><circle class="cls-13" cx="20.5" cy="20.5" r="3.5"/><circle class="cls-14" cx="31.5" cy="20.5" r="3.5"/><path class="cls-4" d="M30,35.31v2a11.94,11.94,0,0,1-8,0v-2A11.94,11.94,0,0,0,30,35.31Z"/><path d="M28.83,29.41a1,1,0,0,0-1.42,0,2,2,0,0,1-2.82,0,1,1,0,0,0-1.42,1.42C25.86,33.52,30.32,30.91,28.83,29.41Z"/><path d="M63,35c0-3.95-4.27-5.72-8-4.7V1a1,1,0,0,0-2,0V30c-2.28,0-5,1-5,6,0,3.79-.5,5.57,2,8.39V47a1,1,0,0,0-1,1c0,3,.07,3.34-.06,2.53A15,15,0,0,0,43,40.89V13A13,13,0,0,0,30,0c-4.54,0-7.53-.37-11.3,2A10,10,0,0,0,9,12V40.89a15,15,0,0,0-5.94,9.64L1,62.84a1,1,0,0,0,2,.32L5,50.86A12.94,12.94,0,0,1,16.13,40.13c-3.23,4.7-3.27,4.54-3.09,5.15s.08.43,6.59,3.22l-1.52,3a1,1,0,0,0,.24,1.21L25,58.46V63a1,1,0,0,0,2,0V58.46l6.65-5.7a1,1,0,0,0,.24-1.21l-1.52-3C39,45.66,38.78,45.89,39,45.28s.11-.49-3.09-5.15A12.94,12.94,0,0,1,47,50.86c2.17,13,1.93,12.77,2.67,13.07C51.53,64.68,51,62.54,51,49h8V63a1,1,0,0,0,2,0V48a1,1,0,0,0-1-1V44.5C63.52,41.66,63,39.15,63,35ZM31,38V36a13,13,0,0,0,7.83-10A4,4,0,0,0,41,25.44V39.66C37.3,37.76,34.51,38,31,38Zm-5,8.31c-3.53-8.83-3-6.79-3-9.66a13.34,13.34,0,0,0,6,0C29,39.52,29.49,37.57,26,46.31ZM39,24V20a2,2,0,0,1,0,4ZM27.6,18.29a4.52,4.52,0,0,0-3.2,0A4.48,4.48,0,0,0,16.76,18H15.32a16.17,16.17,0,0,1,3.62-7.47c2.8,3,6,2.47,10.52,2.47a7.06,7.06,0,0,1,6.72,5h-.94A4.48,4.48,0,0,0,27.6,18.29ZM31.5,18A2.5,2.5,0,1,1,29,20.5,2.5,2.5,0,0,1,31.5,18Zm-11,0A2.5,2.5,0,1,1,18,20.5,2.5,2.5,0,0,1,20.5,18ZM13,24a2,2,0,0,1,0-4Zm2-3.93c0-.1-.14-.07,1.05-.07a4.48,4.48,0,1,0,8.92.23c0-.11.68-.23,1-.23.18,0,1,.09,1,.23A4.48,4.48,0,1,0,36,20c1.14,0,1-.06,1,.18V24a11,11,0,0,1-18.78,7.78C14.47,28,15,24,15,20.07ZM19,4c.62,0,2.67-2,6.61-2H30A11,11,0,0,1,41,13v5.56A4.51,4.51,0,0,0,38.32,18l-.44-1.16A9,9,0,0,0,29.46,11H24.61a5.75,5.75,0,0,1-4.78-2.55,1,1,0,0,0-1.54-.16,18.16,18.16,0,0,0-5,9.71,4,4,0,0,0-2.29.56V12A8,8,0,0,1,19,4ZM11,25.44a3.92,3.92,0,0,0,2.17.56A12.94,12.94,0,0,0,21,36v2c-3.68,0-6.31-.23-10,1.66Zm9.24,26.31c1.77-3.54,1.9-3.55,1.7-4.09s-.22-.44-6.43-3.1L18.64,40h2.68L25,49.19v6.64Zm10.37-4.67a1,1,0,0,0-.5,1.37l1.65,3.3L27,55.83V49.19L30.68,40h2.68l3.13,4.56Zm27.84-3.91c-.59.39-.45.7-.45,3.83H52c0-3.26.09-3.32-.29-3.71A5.79,5.79,0,0,1,50,40c0-4.24-.58-7.81,2.66-8-.86,1.65-.66,3.43-.66,6,0,3.12,4,3.86,4,2a1,1,0,0,0-1-1,.91.91,0,0,1-1-1c0-2.47-.15-4,.49-5.14a1.07,1.07,0,0,0,.39-.4C57.07,31.41,61,32.14,61,35v4C61,41.42,58.47,43.15,58.45,43.17Z"/></g></svg>