<svg xmlns="http://www.w3.org/2000/svg" xmlns:xlink="http://www.w3.org/1999/xlink" viewBox="0 0 64 64"><defs><style>.cls-1{fill:url(#linear-gradient);}.cls-2{fill:url(#linear-gradient-2);}.cls-3{fill:url(#linear-gradient-3);}.cls-4{fill:#8a6762;}.cls-5{fill:url(#linear-gradient-4);}.cls-6{fill:#77cacb;}.cls-7{fill:url(#linear-gradient-5);}.cls-8{fill:url(#linear-gradient-6);}.cls-9{fill:url(#linear-gradient-7);}.cls-10{fill:url(#linear-gradient-8);}.cls-11{fill:#8288a1;}.cls-12{fill:#4da67f;}</style><linearGradient id="linear-gradient" x1="32" y1="63" x2="32" y2="59" gradientUnits="userSpaceOnUse"><stop offset="0" stop-color="#9b756d"/><stop offset="1" stop-color="#bc9388"/></linearGradient><linearGradient id="linear-gradient-2" x1="32" y1="59" x2="32" y2="48.35" gradientUnits="userSpaceOnUse"><stop offset="0" stop-color="#949aaf"/><stop offset="1" stop-color="#c6ccda"/></linearGradient><linearGradient id="linear-gradient-3" x1="32.1" y1="49" x2="32.1" y2="1.2" xlink:href="#linear-gradient-2"/><linearGradient id="linear-gradient-4" x1="27.98" y1="41.04" x2="27.98" y2="1.04" gradientUnits="userSpaceOnUse"><stop offset="0" stop-color="#9dd5df"/><stop offset="1" stop-color="#c3e1f5"/></linearGradient><linearGradient id="linear-gradient-5" x1="25.72" y1="37.77" x2="25.72" y2="21.28" gradientUnits="userSpaceOnUse"><stop offset="0" stop-color="#6ab891"/><stop offset="1" stop-color="#85cba9"/></linearGradient><linearGradient id="linear-gradient-6" x1="22.21" y1="21.28" x2="22.21" y2="3.06" xlink:href="#linear-gradient-5"/><linearGradient id="linear-gradient-7" x1="42.39" y1="36.36" x2="42.39" y2="13.54" xlink:href="#linear-gradient-5"/><linearGradient id="linear-gradient-8" x1="35.75" y1="11.42" x2="35.75" y2="1.14" xlink:href="#linear-gradient-5"/></defs><title>Geology</title><g id="Geology"><path class="cls-1" d="M44,62v1H20a5.09,5.09,0,0,1,.18-2A3,3,0,0,1,23,59H41A3,3,0,0,1,44,62Z"/><polyline class="cls-2" points="34 48.35 34 59 30 59 30 48.92"/><path class="cls-3" d="M8.2,40.8A28,28,0,0,0,47.8,1.2L45,4A24,24,0,0,1,11,38Z"/><path class="cls-4" d="M44,63H20a5.09,5.09,0,0,1,.18-2H43.82A5.19,5.19,0,0,1,44,63Z"/><path class="cls-5" d="M46.56,13.54a20,20,0,0,1-5.77,22.82C26,48.74,3.62,34.72,8.69,15.82,13.66-2.75,39.45-4.17,46.56,13.54Z"/><path class="cls-6" d="M22.83,40.31A20,20,0,0,1,8.06,19.5a20,20,0,0,0,39.88,0A20,20,0,0,1,22.83,40.31Z"/><path class="cls-7" d="M21.8,21.28c.71,1.23,1.93.52,3.86,1S31.9,26.06,31.39,28,27.46,31.08,25,32.5s-3.49,5.27-3.49,5.27l-1.41-2.44c-.71-1.23,2.52-5.55,2.78-6.52s-2.12-3.67-.9-4.37S22.51,22.51,21.8,21.28Z"/><path class="cls-8" d="M29,13.88A5.33,5.33,0,0,0,25,17c-.26,1-2.91-.78-4.13-.07s.2,3.16.9,4.38c-.7-1.22-3.35-3-5-4.45s-.63-5.35-.38-6.31c.2-.77-1.25-2.63-2.22-4a20.6,20.6,0,0,1,5-3.48C28.57,5.92,25.41,6,26.53,7.93c.71,1.22-.14.09,1.79.6S31.15,13.43,29,13.88Z"/><path class="cls-9" d="M40.79,36.36c-.87-1.56.31-6,.78-7.71.51-1.93-5.28-3.48-4.76-5.42s3-3.35,3-3.35c1.22-.7,3.87,1,5.8,1.56s-1.42-2.45-3.8-5.16,2.08-.51,4.79-2.74A20,20,0,0,1,40.79,36.36Z"/><path class="cls-10" d="M41.36,6.12A3,3,0,0,0,41,7.78c.19,3.15-4.65,1.86-7.1,3.27s-1.67-1.48-.64-5.35-3.08-3.93-3.08-3.93c.07-.25.12-.45.19-.63A19.93,19.93,0,0,1,41.36,6.12Z"/><rect class="cls-11" x="30" y="56" width="4" height="3"/><path class="cls-12" d="M40.79,36.36a5.31,5.31,0,0,1-.25-2.8,19.86,19.86,0,0,0,7.4-14.06A19.87,19.87,0,0,1,40.79,36.36Z"/><path d="M49,1A1,1,0,0,0,47.29.29C41.6,6,42.18,5.5,42,5.37A21,21,0,0,0,12.48,35.1L7.29,40.29A1,1,0,0,0,8,42a28.8,28.8,0,0,0,21,8v8H23a4,4,0,0,0-4,4v1a1,1,0,0,0,1,1H44a1,1,0,0,0,1-1V62a4,4,0,0,0-4-4H35V49.15C56.26,43.91,64.5,17.28,49,1ZM22.57,41.28c20,5.36,35.14-18.77,21-34.4l1.4-1.4A23,23,0,0,1,12.48,37.93l1.41-1.41A20.87,20.87,0,0,0,22.57,41.28ZM46,15a18.48,18.48,0,0,1,1,5.67c-.49-1-2.69-3.09-4.38-5A9.36,9.36,0,0,0,46,15Zm-.72,7.36c1.73.47,1.7-1.07,1.64-.14a18.85,18.85,0,0,1-5.47,12.11c.29-6,3.2-6-1.74-9.26-.67-.44-1.91-1.27-2-1.63a5.91,5.91,0,0,1,2.5-2.73C40.85,20.42,43.76,22,45.31,22.4ZM34.06,3a18.92,18.92,0,0,1,6.09,3.4A3.75,3.75,0,0,0,40,7.84c.11,1.8-3.79.86-6.73,2.42C33.38,7.59,35.07,5.15,34.06,3ZM25.67,8.43c.36.64.48.92,1,1.06a1,1,0,0,0,.76-.1c1.75-.23,2.38,3.3,1.36,3.51a6.69,6.69,0,0,0-4.51,3.33c-1.08-.22-2.64-.89-3.84-.2a2,2,0,0,0-1,1.67c-.6-.47-1.38-1.07-2-1.61-.35-.32-1.08-1.47-.08-5.31.28-1-.5-2.24-1.84-4.09a18.43,18.43,0,0,1,3.74-2.55c5,1.53,5.76,2.15,5.82,2.19C25.47,7,24.89,7.09,25.67,8.43ZM23.62,23.08a7.59,7.59,0,0,1,1.78.2c2,.53,5.28,3.48,5,4.45s-2.21,2-3.92,2.85c-2.19,1.1-3.67,1.71-5.18,4.88-.38-.65-.84-.47,1.49-4.4,1.28-2.17,1.45-2.28.4-4.45a7.88,7.88,0,0,1-.58-1.4A2,2,0,0,0,23.62,23.08Zm-14-7a19.14,19.14,0,0,1,4.42-8,9.74,9.74,0,0,1,1.34,2.24c-1.59,6.1.32,7,2.64,8.83a14.77,14.77,0,0,1,2.89,2.62c.87,1.51.78,1.66.55,1.79-2.06,1.19.21,4.05.41,5C21.33,30,18.17,34,19.24,35.83c1.45,2.51,1.53,2.94,2.28,2.94a1,1,0,0,0,1-.74s1-3.48,3-4.67c2.55-1.47,6.18-2.65,6.85-5.11.76-2.88-4.52-6.38-6.44-6.9s-3-.05-3.25-.57c-1.26-2.19-1.31-2.85-1.27-3,.76-.44,4,1.67,4.6-.55a4.44,4.44,0,0,1,3.15-2.36c3.54-.73,2.33-7.62-1.77-7.47-.39-.69.22-.69-.57-2.06-.29-.51-.95-1.11-4.72-2.38A18.61,18.61,0,0,1,29.19,2a1,1,0,0,0,.92.73,3,3,0,0,1,2,.84,2.1,2.1,0,0,1,.14,1.84c-.7,2.62-2.12,7,.59,7a3.23,3.23,0,0,0,1.51-.5c2.09-1.21,7.47,0,7.59-3.81a19,19,0,0,1,3.37,5.05c-2.06,1-4.46,0-5.1,1.53-.53,1.27,1.13,2.64,3.23,4.86-1.56-.66-3-1.19-4.17-.53-.28.16-2.82,1.69-3.43,3.95-.74,2.76,4.6,4.26,4.75,5.45-.73,2.76-1.39,5.73-1,7.59C25.25,47.15,5,33.53,9.65,16.08Zm0,24.71L11,39.37A24.85,24.85,0,0,0,28,46C50,46,61,19.81,46.37,4l1.42-1.41A27,27,0,0,1,9.63,40.79ZM43,62H21a2,2,0,0,1,2-2H41A2,2,0,0,1,43,62ZM33,58H31V49.85c.67-.07,1.34-.17,2-.29Z"/></g></svg>