<svg xmlns="http://www.w3.org/2000/svg" xmlns:xlink="http://www.w3.org/1999/xlink" viewBox="0 0 64 64"><defs><style>.cls-1{fill:url(#linear-gradient);}.cls-2{fill:#8a6762;}.cls-3{fill:url(#linear-gradient-2);}.cls-4{fill:url(#linear-gradient-3);}.cls-5{fill:url(#linear-gradient-4);}.cls-6{fill:#fcd2c3;}.cls-7{fill:url(#linear-gradient-5);}.cls-8{fill:#42455e;}.cls-9{fill:url(#linear-gradient-6);}.cls-10{fill:#5b8dc9;}.cls-11{fill:url(#linear-gradient-7);}.cls-12{fill:#dd8b37;}.cls-13{fill:url(#linear-gradient-8);}.cls-14{fill:url(#linear-gradient-9);}</style><linearGradient id="linear-gradient" x1="32" y1="42" x2="32" y2="10.95" gradientUnits="userSpaceOnUse"><stop offset="0" stop-color="#9b756d"/><stop offset="1" stop-color="#bc9388"/></linearGradient><linearGradient id="linear-gradient-2" x1="45" y1="28" x2="45" y2="22" gradientUnits="userSpaceOnUse"><stop offset="0" stop-color="#f2c4b0"/><stop offset="1" stop-color="#ffe3d7"/></linearGradient><linearGradient id="linear-gradient-3" x1="19" x2="19" xlink:href="#linear-gradient-2"/><linearGradient id="linear-gradient-4" x1="31.99" y1="39" x2="31.99" y2="14" xlink:href="#linear-gradient-2"/><linearGradient id="linear-gradient-5" x1="32" y1="63" x2="32" y2="43.27" gradientUnits="userSpaceOnUse"><stop offset="0" stop-color="#474f72"/><stop offset="1" stop-color="#878c9f"/></linearGradient><linearGradient id="linear-gradient-6" x1="32" y1="55.99" x2="32" y2="42" gradientUnits="userSpaceOnUse"><stop offset="0" stop-color="#7aa8d7"/><stop offset="1" stop-color="#c3d2e7"/></linearGradient><linearGradient id="linear-gradient-7" x1="32" y1="63" x2="32" y2="55" gradientUnits="userSpaceOnUse"><stop offset="0" stop-color="#e9a254"/><stop offset="1" stop-color="#f4bb79"/></linearGradient><linearGradient id="linear-gradient-8" x1="32" y1="43.66" x2="32" y2="38.31" xlink:href="#linear-gradient-2"/><linearGradient id="linear-gradient-9" y1="11" y2="1" xlink:href="#linear-gradient-5"/></defs><title>Girl Graduation</title><g id="Girl_Graduation" data-name="Girl Graduation"><path class="cls-1" d="M19,11a16.27,16.27,0,0,0-3,9.44V42H48V21a23,23,0,0,0-3-10Z"/><rect class="cls-2" x="16" y="39" width="32" height="3"/><path class="cls-2" d="M21,23a1,1,0,0,1-.92-1.39L21,19.46c4.19-9.78,11.09-2.41,18.45-7.29a1,1,0,0,1,1.26.12C44,15.55,43.48,18.78,44,21.84a1,1,0,0,1-2,.32c-.42-2.6.28-5.09-2.18-7.88-7.82,4.49-13.57-2-17,6C22,22.28,21.87,23,21,23Z"/><path class="cls-3" d="M45,28H42V22h3a3,3,0,0,1,0,6Z"/><path class="cls-4" d="M19,22h3v6H19a3,3,0,0,1,0-6Z"/><path class="cls-5" d="M44,23v4a12,12,0,0,1-24,0c0-4.81-.24-3.44.92-6.15A8,8,0,0,1,27.6,16c4.15-.36,7.91.95,12.4-2C43.07,17.07,43.53,20.13,44,23Z"/><path class="cls-6" d="M36,38.31v2a11.94,11.94,0,0,1-8,0v-2A11.94,11.94,0,0,0,36,38.31Z"/><path class="cls-7" d="M56,63H8c1.41-8.48,1.5-14.39,8.06-19.73H47.94C54.51,48.62,54.63,54.76,56,63Z"/><polygon class="cls-8" points="56 63 8 63 8.5 60 55.5 60 56 63"/><path class="cls-9" d="M48,42A14,14,0,0,1,34.62,56H29.37A14,14,0,0,1,16,42Z"/><path class="cls-10" d="M48,42a14.07,14.07,0,0,1-4.1,9.9C39.17,56.61,34.17,56,29.37,56A14,14,0,0,1,16,42c.4,0-.13-.12.69,2.33A14,14,0,0,0,29.37,54h5.25a14,14,0,0,0,12.69-9.65C48.12,41.89,47.6,42,48,42Z"/><circle class="cls-11" cx="32" cy="59" r="4"/><path class="cls-12" d="M32,63a4,4,0,0,1-3.87-5,4,4,0,0,0,7.74,0A4,4,0,0,1,32,63Z"/><path class="cls-13" d="M36,38.31V42a5.66,5.66,0,0,1-8,0V38.31A11.94,11.94,0,0,0,36,38.31Z"/><rect class="cls-14" x="19" y="1" width="26" height="10"/><rect class="cls-8" x="19" y="9" width="26" height="2"/><path class="cls-6" d="M44,24.11c-.43-2.58-1.73-5.06-4.17-7.83C36.09,18.43,33.09,18,28.28,18c-2.81,0-6.34,1.67-7.44,4.24S20,24.78,20,23l.92-2.15A8,8,0,0,1,28.28,16h5.23c4.5-.23,5.72-2,6.49-2A14.19,14.19,0,0,1,44,24.11Z"/><path d="M33.41,32.41a2,2,0,0,1-2.82,0,1,1,0,0,0-1.42,0C28,33.56,30.25,35,32,35s4-1.44,2.83-2.59A1,1,0,0,0,33.41,32.41Z"/><path d="M25,23v1a1,1,0,0,0,2,0V23A1,1,0,0,0,25,23Z"/><path d="M37,23v1a1,1,0,0,0,2,0V23A1,1,0,0,0,37,23Z"/><path d="M49,42.85C49,42,49,21.08,49,20a1,1,0,0,0,1-1V2h3a1,1,0,0,0,0-2H11a1,1,0,0,0,0,2h7v8.65a17.25,17.25,0,0,0-3,9.74c0,24,0,21.61,0,22.46-6.49,5.59-6.63,11.68-8,20a1,1,0,0,0,2,.32c1.3-7.84,1.4-12.95,6.37-17.91A15.06,15.06,0,0,0,27.54,56.79a5,5,0,1,0,8.92,0A14.94,14.94,0,0,0,48.64,45.25C56.42,53,53.1,64.52,56.16,64A1,1,0,0,0,57,62.84C55.59,54.49,55.46,48.44,49,42.85ZM31,54.11,24.71,43h2.91a6.64,6.64,0,0,0,8.76,0h2.91L33,54.11A5,5,0,0,0,31,54.11ZM17,28.44a3.92,3.92,0,0,0,2.17.56A12.94,12.94,0,0,0,27,39v2H17ZM45,27V23a2,2,0,0,1,0,4Zm-2,0a11,11,0,0,1-22,0c0-4.57-.21-3.3.84-5.76A7,7,0,0,1,28.28,17c4.86,0,7.89.39,11.55-1.72C43,18.89,43,22.53,43,27ZM35,39.65v1.91a4.66,4.66,0,0,1-6,0c0-2.17-.05-1.93.13-1.89A13.05,13.05,0,0,0,35,39.65ZM19,23v4a2,2,0,0,1,0-4ZM37,41V39a13,13,0,0,0,7.83-10A4,4,0,0,0,47,28.44V41ZM48,15.47C45.62,7.88,46,15.4,46,2h2ZM44,2v8H20V2ZM19.51,12h24.9A22.1,22.1,0,0,1,47,21c0,1.19.26,0-2.32,0a14.18,14.18,0,0,0-4-7.71C39.48,12.06,38.51,15,33.39,15H28.28c-3.46,0-6.72,1.82-8.51,6H19c-2.31,0-2,1.57-2-.61A15.21,15.21,0,0,1,19.51,12ZM17,43h5.37c7,12.45,6.77,11.89,6.67,12A13,13,0,0,1,17,43ZM32,62c-3.93,0-4-6,0-6S35.93,62,32,62ZM43.2,51.19a12.87,12.87,0,0,1-8.32,3.74L41.59,43H47A13.12,13.12,0,0,1,43.2,51.19Z"/></g></svg>