<svg xmlns="http://www.w3.org/2000/svg" xmlns:xlink="http://www.w3.org/1999/xlink" viewBox="0 0 64 64"><defs><style>.cls-1{fill:url(#linear-gradient);}.cls-2{fill:#42455e;}.cls-3{fill:#575f7c;}.cls-4{fill:url(#linear-gradient-2);}.cls-5{fill:url(#linear-gradient-3);}</style><linearGradient id="linear-gradient" x1="32" y1="53" x2="32" y2="29.45" gradientUnits="userSpaceOnUse"><stop offset="0" stop-color="#474f72"/><stop offset="1" stop-color="#878c9f"/></linearGradient><linearGradient id="linear-gradient-2" y1="37" y2="11" xlink:href="#linear-gradient"/><linearGradient id="linear-gradient-3" x1="54" y1="53" x2="54" y2="47" gradientUnits="userSpaceOnUse"><stop offset="0" stop-color="#e9a254"/><stop offset="1" stop-color="#f4bb79"/></linearGradient></defs><title>Graduation Cap</title><g id="Graduation_Cap" data-name="Graduation Cap"><path class="cls-1" d="M50,29.45V44c0,3.31-8.06,9-18,9s-18-5.69-18-9V29.45Z"/><path class="cls-2" d="M50,40.55V44c0,3.31-8.06,9-18,9s-18-5.69-18-9V40.55c0,3.31,8.06,9,18,9S50,43.86,50,40.55Z"/><polygon class="cls-3" points="50 29.45 50 31.62 32 39.17 14 31.62 14 29.45 50 29.45"/><polygon class="cls-4" points="32 37 1 24 32 11 63 24 32 37"/><path class="cls-5" d="M56.33,49,57,53H51l.67-4A2.36,2.36,0,0,1,56.33,49Z"/><path d="M63.39,23.08C30,9.09,32.21,9.83,31.61,10.08-2.17,24.25,0,23.05,0,24s-.18.59,13,6.12V44c0,4,8.51,10,19,10s19-6,19-10V30.12l2-.84V46.16a3.33,3.33,0,0,0-2.31,2.65l-.68,4A1,1,0,0,0,51,54c6.59,0,6.36.12,6.76-.35s.28-.49-.45-4.84A3.33,3.33,0,0,0,55,46.16V28.44c9.16-3.84,9-3.54,9-4.44A1,1,0,0,0,63.39,23.08ZM55.82,52H52.18l.48-2.86a1.36,1.36,0,0,1,2.68,0ZM49,44c0,2.39-7.18,8-17,8s-17-5.61-17-8V31c18.11,7.59,16.83,7.19,17.39,7L49,31Zm4.51-17.11L32.18,23a1,1,0,0,0-.36,2l18.31,3.33L32,35.92,3.59,24,32,12.08,60.41,24Z"/></g></svg>