<svg xmlns="http://www.w3.org/2000/svg" xmlns:xlink="http://www.w3.org/1999/xlink" viewBox="0 0 64 64"><defs><style>.cls-1{fill:url(#linear-gradient);}.cls-2{fill:#5b8dc9;}.cls-3{fill:url(#linear-gradient-2);}.cls-4{fill:#cf4055;}.cls-5{fill:url(#linear-gradient-3);}.cls-6{fill:#f6b756;}.cls-7{fill:url(#linear-gradient-4);}.cls-8{fill:url(#linear-gradient-5);}.cls-9{fill:url(#linear-gradient-6);}.cls-10{fill:url(#linear-gradient-7);}.cls-11{fill:#4da67f;}.cls-12{fill:url(#linear-gradient-8);}.cls-13{fill:#c7cdd8;}.cls-14{fill:url(#linear-gradient-9);}.cls-15{fill:url(#linear-gradient-10);}.cls-16{fill:url(#linear-gradient-11);}.cls-17{fill:#ffd39f;}.cls-18{fill:url(#linear-gradient-12);}.cls-19{fill:#fff;}.cls-20{fill:#7ece67;}</style><linearGradient id="linear-gradient" x1="23" y1="63" x2="23" y2="1" gradientUnits="userSpaceOnUse"><stop offset="0" stop-color="#7aa8d7"/><stop offset="1" stop-color="#c3d2e7"/></linearGradient><linearGradient id="linear-gradient-2" x1="9" y1="63" x2="9" y2="11" gradientUnits="userSpaceOnUse"><stop offset="0" stop-color="#da5466"/><stop offset="1" stop-color="#f4929c"/></linearGradient><linearGradient id="linear-gradient-3" x1="9" y1="58" x2="9" y2="16" gradientUnits="userSpaceOnUse"><stop offset="0" stop-color="#fbcc88"/><stop offset="1" stop-color="#ffe5c3"/></linearGradient><linearGradient id="linear-gradient-4" x1="33" y1="63" x2="33" y2="15" gradientUnits="userSpaceOnUse"><stop offset="0" stop-color="#8cdd79"/><stop offset="1" stop-color="#d4e6b6"/></linearGradient><linearGradient id="linear-gradient-5" x1="33" y1="57" x2="33" y2="53" gradientUnits="userSpaceOnUse"><stop offset="0" stop-color="#6ab891"/><stop offset="1" stop-color="#85cba9"/></linearGradient><linearGradient id="linear-gradient-6" y1="53" y2="49" xlink:href="#linear-gradient-5"/><linearGradient id="linear-gradient-7" x1="54.29" y1="63" x2="54.29" y2="7.45" gradientTransform="translate(6.94 -8.89) rotate(10)" xlink:href="#linear-gradient-5"/><linearGradient id="linear-gradient-8" x1="54.29" y1="57.23" x2="54.29" y2="13.21" gradientTransform="translate(6.94 -8.89) rotate(10)" gradientUnits="userSpaceOnUse"><stop offset="0" stop-color="#d4d8e1"/><stop offset="1" stop-color="#f3f4f5"/></linearGradient><linearGradient id="linear-gradient-9" x1="54.29" y1="53.01" x2="54.29" y2="17.43" gradientTransform="translate(6.94 -8.89) rotate(10)" xlink:href="#linear-gradient-5"/><linearGradient id="linear-gradient-10" x1="42" y1="63" x2="42" y2="18" xlink:href="#linear-gradient-3"/><linearGradient id="linear-gradient-11" x1="42" y1="59" x2="42" y2="22" gradientUnits="userSpaceOnUse"><stop offset="0" stop-color="#e9a254"/><stop offset="1" stop-color="#f4bb79"/></linearGradient><linearGradient id="linear-gradient-12" x1="23" y1="58" x2="23" y2="6" gradientTransform="matrix(1, 0, 0, 1, 0, 0)" xlink:href="#linear-gradient-8"/></defs><title>Library</title><g id="Library"><rect class="cls-1" x="17" y="1" width="12" height="62"/><rect class="cls-2" x="17" y="60" width="12" height="3"/><rect class="cls-3" x="1" y="11" width="16" height="52"/><rect class="cls-4" x="1" y="60" width="16" height="3"/><path class="cls-5" d="M11,58H7a2,2,0,0,0-2-2V18a2,2,0,0,0,2-2h4a2,2,0,0,0,2,2V56A2,2,0,0,0,11,58Z"/><path class="cls-6" d="M13,53v3a2,2,0,0,0-2,2H7a2,2,0,0,0-2-2V53a2,2,0,0,1,2,2h4A2,2,0,0,1,13,53Z"/><rect class="cls-7" x="29" y="15" width="8" height="48"/><rect class="cls-8" x="29" y="53" width="8" height="4"/><rect class="cls-9" x="29" y="49" width="8" height="4"/><rect class="cls-10" x="50.29" y="7.72" width="8" height="55" transform="translate(-5.29 9.96) rotate(-10)"/><rect class="cls-11" x="54.86" y="60.04" width="8" height="2.28" transform="translate(-9.73 11.15) rotate(-10)"/><rect class="cls-12" x="50.29" y="13.58" width="8" height="43.29" transform="translate(-5.29 9.96) rotate(-10)"/><rect class="cls-13" x="53.84" y="54.22" width="8" height="2.33" transform="translate(-8.74 10.89) rotate(-10)"/><rect class="cls-14" x="50.29" y="17.86" width="8" height="34.72" transform="translate(-5.29 9.96) rotate(-10)"/><rect class="cls-15" x="37" y="18" width="10" height="45"/><rect class="cls-16" x="37" y="22" width="10" height="37"/><rect class="cls-17" x="37" y="20" width="10" height="2"/><rect class="cls-6" x="37" y="61" width="10" height="2"/><rect class="cls-18" x="21" y="6" width="4" height="52"/><rect class="cls-13" x="21" y="54" width="4" height="4"/><rect class="cls-19" x="21" y="6" width="4" height="4"/><path class="cls-17" d="M13,18v3a2,2,0,0,1-2-2H7a2,2,0,0,1-2,2V18a2,2,0,0,0,2-2h4A2,2,0,0,0,13,18Z"/><rect class="cls-20" x="29" y="60" width="8" height="3"/><path d="M13,17a1,1,0,0,1-1-1,1,1,0,0,0-1-1H7a1,1,0,0,0-1,1,1,1,0,0,1-1,1,1,1,0,0,0-1,1V56a1,1,0,0,0,1,1,1,1,0,0,1,1,1,1,1,0,0,0,1,1h4a1,1,0,0,0,1-1,1,1,0,0,1,1-1,1,1,0,0,0,1-1V18A1,1,0,0,0,13,17ZM12,55.17A3,3,0,0,0,10.17,57H7.83A3,3,0,0,0,6,55.17V18.83A3,3,0,0,0,7.83,17h2.34A3,3,0,0,0,12,18.83Z"/><path d="M59.21,34.35C54.09,5.32,54.52,7,54,6.63s-.2-.26-8.62,1.22A1,1,0,0,0,44.59,9c1.31,7.45.06.37,1.41,8H38V15a1,1,0,0,0-1-1H30V1a1,1,0,0,0-1-1H17a1,1,0,0,0-1,1v9H1a1,1,0,0,0-1,1V63a1,1,0,0,0,1,1H47a1,1,0,0,0,1-1V28.37c1.83,10.37,3.3,18.72,6.14,34.8a1,1,0,0,0,1,.83c.14,0,1.28-.21,8.05-1.4A1,1,0,0,0,64,61.44C62.87,55.12,65,66.94,59.21,34.35Zm.87,16.46-5.91,1C51.51,36.73,51.72,38,48.49,19.63l5.91-1C57.9,38.47,56.59,31,60.08,50.81Zm-6-34.19-5.91,1-.39-2.25,5.9-1Zm.47,37.2,5.91-1,.4,2.25-5.91,1ZM52.64,8.6l.67,3.8-5.91,1-.67-3.79ZM46,19v2H38V19Zm0,39H38V23h8ZM36,52H30V50h6Zm-6,2h6v2H30Zm6-38V48H30V16ZM2,12H16V62H2ZM18,2H28V62H18ZM30,58h6v4H30Zm8,4V60h8v2Zm17.93-.16-.67-3.79,5.91-1,.67,3.8Z"/><path d="M25,5H21a1,1,0,0,0-1,1V58a1,1,0,0,0,1,1h4a1,1,0,0,0,1-1V6A1,1,0,0,0,25,5ZM24,57H22V7h2Z"/><path d="M43,54V26a1,1,0,0,0-2,0V54A1,1,0,0,0,43,54Z"/></g></svg>