<svg xmlns="http://www.w3.org/2000/svg" xmlns:xlink="http://www.w3.org/1999/xlink" viewBox="0 0 64 64"><defs><style>.cls-1{fill:url(#linear-gradient);}.cls-2{fill:url(#linear-gradient-2);}.cls-3{fill:url(#linear-gradient-3);}.cls-4{fill:#8288a1;}</style><linearGradient id="linear-gradient" x1="22" y1="31" x2="42" y2="31" gradientUnits="userSpaceOnUse"><stop offset="0" stop-color="#949aaf"/><stop offset="1" stop-color="#c6ccda"/></linearGradient><linearGradient id="linear-gradient-2" x1="42" x2="62" xlink:href="#linear-gradient"/><linearGradient id="linear-gradient-3" x1="2" x2="22" xlink:href="#linear-gradient"/></defs><title>Locker</title><g id="Locker"><rect class="cls-1" x="22" y="1" width="20" height="60"/><rect class="cls-2" x="42" y="1" width="20" height="60"/><rect class="cls-3" x="2" y="1" width="20" height="60"/><rect class="cls-4" x="22" y="59" width="20" height="2"/><rect class="cls-4" x="42" y="59" width="20" height="2"/><rect class="cls-4" x="2" y="59" width="20" height="2"/><path d="M62,0H2A1,1,0,0,0,1,1V61a1,1,0,0,0,1,1H3v1a1,1,0,0,0,2,0V62H19v1a1,1,0,0,0,2,0V62h2v1a1,1,0,0,0,2,0V62H39v1a1,1,0,0,0,2,0V62h2v1a1,1,0,0,0,2,0V62H59v1a1,1,0,0,0,2,0V62h1a1,1,0,0,0,1-1V1A1,1,0,0,0,62,0ZM41,60H23V2H41ZM3,2H21V60H3ZM61,60H43V2H61Z"/><path d="M6,8H18a1,1,0,0,0,0-2H6A1,1,0,0,0,6,8Z"/><path d="M6,13H18a1,1,0,0,0,0-2H6A1,1,0,0,0,6,13Z"/><path d="M6,18H18a1,1,0,0,0,0-2H6A1,1,0,0,0,6,18Z"/><path d="M26,8H38a1,1,0,0,0,0-2H26A1,1,0,0,0,26,8Z"/><path d="M26,13H38a1,1,0,0,0,0-2H26A1,1,0,0,0,26,13Z"/><path d="M26,18H38a1,1,0,0,0,0-2H26A1,1,0,0,0,26,18Z"/><path d="M46,8H58a1,1,0,0,0,0-2H46A1,1,0,0,0,46,8Z"/><path d="M46,13H58a1,1,0,0,0,0-2H46A1,1,0,0,0,46,13Z"/><path d="M46,18H58a1,1,0,0,0,0-2H46A1,1,0,0,0,46,18Z"/><path d="M6,47H18a1,1,0,0,0,0-2H6A1,1,0,0,0,6,47Z"/><path d="M6,52H18a1,1,0,0,0,0-2H6A1,1,0,0,0,6,52Z"/><path d="M6,57H18a1,1,0,0,0,0-2H6A1,1,0,0,0,6,57Z"/><path d="M26,47H38a1,1,0,0,0,0-2H26A1,1,0,0,0,26,47Z"/><path d="M26,52H38a1,1,0,0,0,0-2H26A1,1,0,0,0,26,52Z"/><path d="M26,57H38a1,1,0,0,0,0-2H26A1,1,0,0,0,26,57Z"/><path d="M46,47H58a1,1,0,0,0,0-2H46A1,1,0,0,0,46,47Z"/><path d="M46,52H58a1,1,0,0,0,0-2H46A1,1,0,0,0,46,52Z"/><path d="M46,57H58a1,1,0,0,0,0-2H46A1,1,0,0,0,46,57Z"/><path d="M17,30v4a1,1,0,0,0,2,0V30A1,1,0,0,0,17,30Z"/><path d="M37,30v4a1,1,0,0,0,2,0V30A1,1,0,0,0,37,30Z"/><path d="M57,30v4a1,1,0,0,0,2,0V30A1,1,0,0,0,57,30Z"/></g></svg>