<svg xmlns="http://www.w3.org/2000/svg" xmlns:xlink="http://www.w3.org/1999/xlink" viewBox="0 0 64 64"><defs><style>.cls-1{fill:url(#linear-gradient);}.cls-2{fill:url(#linear-gradient-2);}.cls-3{fill:url(#linear-gradient-3);}.cls-4{fill:url(#linear-gradient-4);}.cls-5{fill:url(#linear-gradient-5);}.cls-6{fill:url(#linear-gradient-6);}.cls-7{fill:url(#linear-gradient-7);}.cls-8{fill:url(#linear-gradient-8);}.cls-9{fill:url(#linear-gradient-9);}.cls-10{fill:#fcd2c3;}.cls-11{fill:url(#linear-gradient-10);}.cls-12{fill:#8a6762;}.cls-13{fill:url(#linear-gradient-11);}.cls-14{fill:url(#linear-gradient-12);}.cls-15{fill:url(#linear-gradient-13);}.cls-16{fill:url(#linear-gradient-14);}.cls-17{fill:#5b8dc9;}.cls-18{fill:#cf4055;}</style><linearGradient id="linear-gradient" x1="26" y1="63" x2="26" y2="38.99" gradientUnits="userSpaceOnUse"><stop offset="0" stop-color="#7aa8d7"/><stop offset="1" stop-color="#c3d2e7"/></linearGradient><linearGradient id="linear-gradient-2" x1="26" y1="36" x2="26" y2="9.19" gradientUnits="userSpaceOnUse"><stop offset="0" stop-color="#f2c4b0"/><stop offset="1" stop-color="#ffe3d7"/></linearGradient><linearGradient id="linear-gradient-3" x1="22" y1="46.83" x2="22" y2="39" xlink:href="#linear-gradient"/><linearGradient id="linear-gradient-4" x1="26" y1="43" x2="26" y2="35.31" xlink:href="#linear-gradient-2"/><linearGradient id="linear-gradient-5" x1="30" y1="46.83" x2="30" y2="39" xlink:href="#linear-gradient"/><linearGradient id="linear-gradient-6" x1="26" y1="49" x2="26" y2="43" gradientUnits="userSpaceOnUse"><stop offset="0" stop-color="#da5466"/><stop offset="1" stop-color="#f4929c"/></linearGradient><linearGradient id="linear-gradient-7" y1="63" y2="49.01" xlink:href="#linear-gradient-6"/><linearGradient id="linear-gradient-8" x1="40" y1="25" x2="40" y2="19" xlink:href="#linear-gradient-2"/><linearGradient id="linear-gradient-9" x1="12" y1="25" x2="12" y2="19" xlink:href="#linear-gradient-2"/><linearGradient id="linear-gradient-10" x1="25.5" y1="20" x2="25.5" y2="0.97" gradientUnits="userSpaceOnUse"><stop offset="0" stop-color="#9b756d"/><stop offset="1" stop-color="#bc9388"/></linearGradient><linearGradient id="linear-gradient-11" x1="55" x2="55" y2="48" xlink:href="#linear-gradient"/><linearGradient id="linear-gradient-12" x1="55.49" y1="48" x2="55.49" y2="30.99" xlink:href="#linear-gradient-2"/><linearGradient id="linear-gradient-13" x1="20.5" y1="24" x2="20.5" y2="17" gradientUnits="userSpaceOnUse"><stop offset="0" stop-color="#9dd5df"/><stop offset="1" stop-color="#c3e1f5"/></linearGradient><linearGradient id="linear-gradient-14" x1="31.5" x2="31.5" xlink:href="#linear-gradient-13"/></defs><title>Male Teacher</title><g id="Male_Teacher" data-name="Male Teacher"><path class="cls-1" d="M50,63H2c.64-3.84,1.36-8.14,2.05-12.3A14,14,0,0,1,16,39.13c1.22-.18.55-.13,18.15-.13A14,14,0,0,1,48,50.7C48.64,54.86,49.36,59.16,50,63Z"/><path class="cls-2" d="M38,9.19c0,15.93,0,15.25-.09,16.27A12,12,0,0,1,14,24V9.19Z"/><path class="cls-3" d="M26,43l-6.7,3.83L18,39h4Z"/><path class="cls-4" d="M30,35.31V39l-4,4-4-4V35.31A11.94,11.94,0,0,0,30,35.31Z"/><path class="cls-5" d="M34,39l-1.3,7.83L26,43l4-4Z"/><path class="cls-6" d="M29.36,44.92l-.73,2.18A2.77,2.77,0,0,1,26,49c-2.34,0-2.7-2.11-3.36-4.08L26,43Z"/><path class="cls-7" d="M29.75,63h-7.5c.47-3.82.22-1.78,1.5-12a2.27,2.27,0,0,1,4.5,0C29.5,61,29.27,59.12,29.75,63Z"/><path class="cls-8" d="M39,25H38V19h1a3,3,0,0,1,0,6Z"/><path class="cls-9" d="M13,19h1v6H13a3,3,0,0,1,0-6Z"/><path class="cls-10" d="M38,9.19c0,15.93,0,15.25-.09,16.27L33.61,14c-9.21,0-11.54.52-14.57-2a15.08,15.08,0,0,0-2.86,6.88l-2.18,5V9.19Z"/><path class="cls-11" d="M14,20c.64-4.48,1.74-7.74,5-11a6.72,6.72,0,0,0,5.61,3H35l3,8,1.71-6.83A9.8,9.8,0,0,0,30.21,1C25.73,1,22.61.59,19,3a8,8,0,0,0-8,8,14.37,14.37,0,0,0,2.06,7.43Z"/><path class="cls-12" d="M38,20l-3-8H24.61A6.74,6.74,0,0,1,19,9c-3.36,3.36-4.39,6.72-5,11A17.8,17.8,0,0,1,18.1,7a8,8,0,0,0,6.38,3H34.62a2,2,0,0,1,2,1.67Z"/><rect class="cls-13" x="50" y="48" width="10" height="15"/><path class="cls-14" d="M62,35v4c0,3-3,5-3,5v4H51V44s-2-2-2-4c0-4.63-.6-9,4-9,.68,0,.94.34.88.95C55.28,30.29,62,30.49,62,35Z"/><circle class="cls-15" cx="20.5" cy="20.5" r="3.5"/><circle class="cls-16" cx="31.5" cy="20.5" r="3.5"/><path class="cls-10" d="M30,35.31v2a11.94,11.94,0,0,1-8,0v-2A11.94,11.94,0,0,0,30,35.31Z"/><polygon class="cls-17" points="22.62 60 22.25 63 2 63 2.5 60 22.62 60"/><polygon class="cls-17" points="50 63 29.75 63 29.38 60 49.5 60 50 63"/><polygon class="cls-18" points="29.75 63 22.25 63 22.62 60 29.38 60 29.75 63"/><rect class="cls-17" x="50" y="60" width="10" height="3"/><path d="M28.83,29.41a1,1,0,0,0-1.42,0,2,2,0,0,1-2.82,0,1,1,0,0,0-1.42,1.42C25.86,33.52,30.32,30.91,28.83,29.41Z"/><path d="M63,35c0-3.95-4.27-5.72-8-4.7V1a1,1,0,0,0-2,0V30c-2.28,0-5,1-5,6,0,3.79-.5,5.57,2,8.39V47a1,1,0,0,0-1,1c0,3,.07,3.34-.06,2.53A15,15,0,0,0,34,38H31V36a13,13,0,0,0,7.83-10c5.23,0,5.6-7.3.69-7.95C40.75,13.12,41,12.48,41,10.79A10.8,10.8,0,0,0,30.21,0C25.49,0,22.47-.39,18.7,2c-7.24.25-11.23,8-6.91,16.21A4,4,0,0,0,13.17,26,12.94,12.94,0,0,0,21,36v2H18A15,15,0,0,0,3.06,50.53L1,62.84a1,1,0,0,0,2,.32L5,50.86A12.94,12.94,0,0,1,17.16,40c1.53,9.23.81,8.71,4.92,6.36a4.88,4.88,0,0,0,1.49,2.71c-.94,1-.68.69-2.31,13.78a1,1,0,0,0,2,.24l1.5-12a1.27,1.27,0,0,1,2.52,0l1.5,12a1,1,0,0,0,2-.24c-1.63-13.07-1.38-12.75-2.31-13.78a4.93,4.93,0,0,0,1.49-2.71c2.33,1.34,2.42,1.44,2.78,1.44a1,1,0,0,0,.84-.46c.17-.27,0,.32,1.3-7.34A12.94,12.94,0,0,1,47,50.86C49,63,48.83,64,50,64a1,1,0,0,0,.75-.36c.36-.43.25.4.25-14.64h8V63a1,1,0,0,0,2,0V48a1,1,0,0,0-1-1V44.5C63.52,41.66,63,39.15,63,35ZM32,45.25l-4.32-2.47L30.41,40h2.41Zm-4.35-27a4.52,4.52,0,0,0-3.2,0A4.48,4.48,0,0,0,16.76,18H15.32a16.17,16.17,0,0,1,3.62-7.47A7.69,7.69,0,0,0,24.61,13h9.7l1.87,5h-.94A4.48,4.48,0,0,0,27.6,18.29ZM31.5,18A2.5,2.5,0,1,1,29,20.5,2.5,2.5,0,0,1,31.5,18Zm-11,0A2.5,2.5,0,1,1,18,20.5,2.5,2.5,0,0,1,20.5,18ZM41,22a2,2,0,0,1-2,2c0-4.31,0-3.83,0-4A2,2,0,0,1,41,22ZM19,4c.63,0,2.64-2,6.61-2h4.6A8.81,8.81,0,0,1,39,10.79c0,1.52-.33,2.4-1.19,5.85C35.83,11.37,35.92,11,35,11H24.61a5.75,5.75,0,0,1-4.78-2.55,1,1,0,0,0-1.54-.16,18.14,18.14,0,0,0-4.83,8.8A13.4,13.4,0,0,1,12,11,7,7,0,0,1,19,4ZM12.84,20c.22.36.16-.3.16,4A2,2,0,0,1,12.84,20ZM15,24c0-3.3,0-3.89,0-4,1.35,0,1-.15,1,.5a4.5,4.5,0,0,0,9,0c0-.21-.05-.18,0-.28a2.5,2.5,0,0,1,2,0c0,.1,0,.07,0,.28a4.5,4.5,0,0,0,9,0c0-.65-.36-.5.93-.5.1.26.07-.36.07,4a11,11,0,0,1-22,0ZM29,36.65v1.94l-3,3-3-3V36.65A13.34,13.34,0,0,0,29,36.65ZM21.59,40l2.78,2.78-4.32,2.47L19.18,40Zm6.09,6.79a1.77,1.77,0,0,1-3.36,0l-.47-1.41L26,44.15l2.15,1.23Zm30.77-3.62c-.59.39-.45.7-.45,3.83H52c0-3.26.09-3.32-.29-3.71A5.79,5.79,0,0,1,50,40c0-4.24-.58-7.81,2.66-8-.86,1.65-.66,3.43-.66,6,0,3.12,4,3.86,4,2a1,1,0,0,0-1-1,.91.91,0,0,1-1-1c0-2.47-.15-4,.49-5.14a1.07,1.07,0,0,0,.39-.4C57.07,31.41,61,32.14,61,35v4C61,41.42,58.47,43.15,58.45,43.17Z"/></g></svg>