<svg xmlns="http://www.w3.org/2000/svg" xmlns:xlink="http://www.w3.org/1999/xlink" viewBox="0 0 64 64"><defs><style>.cls-1{fill:url(#linear-gradient);}.cls-2{fill:url(#linear-gradient-2);}.cls-3{fill:#8a6762;}.cls-4{fill:url(#linear-gradient-3);}.cls-5{fill:url(#linear-gradient-4);}.cls-6{fill:url(#linear-gradient-5);}.cls-7{fill:url(#linear-gradient-6);}.cls-8{fill:url(#linear-gradient-7);}.cls-9{fill:url(#linear-gradient-8);}.cls-10{fill:url(#linear-gradient-9);}.cls-11{fill:#42455e;}</style><linearGradient id="linear-gradient" x1="60" y1="35.8" x2="60" y2="29.8" gradientUnits="userSpaceOnUse"><stop offset="0" stop-color="#474f72"/><stop offset="1" stop-color="#878c9f"/></linearGradient><linearGradient id="linear-gradient-2" x1="28" y1="55" x2="28" y2="49" gradientUnits="userSpaceOnUse"><stop offset="0" stop-color="#9b756d"/><stop offset="1" stop-color="#bc9388"/></linearGradient><linearGradient id="linear-gradient-3" x1="7" y1="49" x2="7" y2="45" xlink:href="#linear-gradient"/><linearGradient id="linear-gradient-4" x1="49" y1="49" x2="49" y2="45" xlink:href="#linear-gradient"/><linearGradient id="linear-gradient-5" x1="28" y1="45" x2="28" y2="9" gradientUnits="userSpaceOnUse"><stop offset="0" stop-color="#949aaf"/><stop offset="1" stop-color="#c6ccda"/></linearGradient><linearGradient id="linear-gradient-6" x1="28" y1="44" x2="28" y2="38" xlink:href="#linear-gradient"/><linearGradient id="linear-gradient-7" x1="34" y1="44" x2="34" y2="38" xlink:href="#linear-gradient"/><linearGradient id="linear-gradient-8" x1="22" y1="44" x2="22" y2="38" xlink:href="#linear-gradient"/><linearGradient id="linear-gradient-9" x1="16" y1="44" x2="16" y2="38" xlink:href="#linear-gradient"/></defs><title>Momentum</title><g id="Momentum"><circle class="cls-1" cx="60" cy="32.8" r="3"/><rect class="cls-2" x="1" y="49" width="54" height="6"/><rect class="cls-3" x="1" y="53" width="54" height="2"/><path class="cls-4" d="M6,45H8a3,3,0,0,1,3,3v1a0,0,0,0,1,0,0H3a0,0,0,0,1,0,0V48A3,3,0,0,1,6,45Z"/><path class="cls-5" d="M48,45h2a3,3,0,0,1,3,3v1a0,0,0,0,1,0,0H45a0,0,0,0,1,0,0V48A3,3,0,0,1,48,45Z"/><path class="cls-6" d="M47,9H9a4,4,0,0,0-4,4V45H9V13H47V45h4V13A4,4,0,0,0,47,9Z"/><circle class="cls-7" cx="28" cy="41" r="3"/><circle class="cls-8" cx="34" cy="41" r="3"/><circle class="cls-9" cx="22" cy="41" r="3"/><circle class="cls-10" cx="16" cy="41" r="3"/><path class="cls-11" d="M62.12,34.92a3,3,0,0,1-4.94-3.12,3,3,0,0,0,5.64,0A3,3,0,0,1,62.12,34.92Z"/><path class="cls-11" d="M28,44a3,3,0,0,1-2.82-4,3,3,0,0,0,5.64,0A3,3,0,0,1,28,44Z"/><path class="cls-11" d="M34,44a3,3,0,0,1-2.82-4,3,3,0,0,0,5.64,0A3,3,0,0,1,34,44Z"/><path class="cls-11" d="M22,44a3,3,0,0,1-2.82-4,3,3,0,0,0,5.64,0A3,3,0,0,1,22,44Z"/><path class="cls-11" d="M16,44a3,3,0,0,1-2.82-4,3,3,0,0,0,5.64,0A3,3,0,0,1,16,44Z"/><path d="M62.83,30a4.1,4.1,0,0,0-4.84-.6l-6-6V13a5,5,0,0,0-5-5H9a5,5,0,0,0-5,5V44.56A4,4,0,0,0,2,48H1a1,1,0,0,0-1,1v6a1,1,0,0,0,1,1H55a1,1,0,0,0,1-1V49a1,1,0,0,0-1-1H54a4,4,0,0,0-2-3.44V26.21l4.56,4.57A4,4,0,1,0,62.83,30ZM6,46H8a2,2,0,0,1,2,2H4A2,2,0,0,1,6,46ZM21,14V37.14a4.05,4.05,0,0,0-2,1.24,4.05,4.05,0,0,0-2-1.24V14Zm6,0V37.14a4.05,4.05,0,0,0-2,1.24,4.05,4.05,0,0,0-2-1.24V14Zm6,0V37.14a4.05,4.05,0,0,0-2,1.24,4.05,4.05,0,0,0-2-1.24V14Zm1,25a2,2,0,1,1-2,2A2,2,0,0,1,34,39Zm-6,0a2,2,0,1,1-2,2A2,2,0,0,1,28,39Zm-6,0a2,2,0,1,1-2,2A2,2,0,0,1,22,39Zm-6,0a2,2,0,1,1-2,2A2,2,0,0,1,16,39Zm-1-1.86a4,4,0,1,0,4,6.48,4,4,0,0,0,6,0,4,4,0,0,0,6,0,4,4,0,1,0,4-6.48V14h4.79L46,20.21V44.56A4,4,0,0,0,44,48H12a4,4,0,0,0-2-3.44V14h5ZM46,17.39,42.61,14H46ZM54,54H2V50H54Zm-8-6a2,2,0,0,1,2-2h2a2,2,0,0,1,2,2Zm2-4V13a1,1,0,0,0-1-1H9a1,1,0,0,0-1,1V44H6V13a3,3,0,0,1,3-3H47a3,3,0,0,1,3,3V44Zm13.41-9.79A2,2,0,0,1,58,32.8a1.94,1.94,0,0,1,.59-1.41A2,2,0,0,1,61.41,34.21Z"/></g></svg>