<svg xmlns="http://www.w3.org/2000/svg" xmlns:xlink="http://www.w3.org/1999/xlink" viewBox="0 0 64 64"><defs><style>.cls-1{fill:url(#linear-gradient);}.cls-2{fill:#dd8b37;}.cls-3{fill:#f2a961;}.cls-4{fill:url(#linear-gradient-2);}.cls-5{fill:#e8c4a6;}.cls-6{fill:url(#linear-gradient-3);}.cls-7{fill:url(#linear-gradient-4);}.cls-8{fill:#42455e;}.cls-9{fill:url(#linear-gradient-5);}.cls-10{fill:url(#linear-gradient-6);}.cls-11{fill:url(#linear-gradient-7);}</style><linearGradient id="linear-gradient" x1="21.57" y1="63" x2="21.57" y2="21.87" gradientUnits="userSpaceOnUse"><stop offset="0" stop-color="#e9a254"/><stop offset="1" stop-color="#f4bb79"/></linearGradient><linearGradient id="linear-gradient-2" x1="39.93" y1="37.84" x2="39.93" y2="10.31" gradientUnits="userSpaceOnUse"><stop offset="0" stop-color="#d1a788"/><stop offset="1" stop-color="#f2d3b8"/></linearGradient><linearGradient id="linear-gradient-3" x1="56.23" y1="13.69" x2="56.23" y2="1.85" xlink:href="#linear-gradient-2"/><linearGradient id="linear-gradient-4" x1="24.92" y1="43.87" x2="24.92" y2="34.29" gradientUnits="userSpaceOnUse"><stop offset="0" stop-color="#474f72"/><stop offset="1" stop-color="#878c9f"/></linearGradient><linearGradient id="linear-gradient-5" x1="49" y1="58" x2="49" y2="52" gradientUnits="userSpaceOnUse"><stop offset="0" stop-color="#7aa8d7"/><stop offset="1" stop-color="#c3d2e7"/></linearGradient><linearGradient id="linear-gradient-6" x1="5" y1="22" x2="5" y2="16" xlink:href="#linear-gradient-5"/><linearGradient id="linear-gradient-7" x1="17" y1="18" x2="17" y2="12" xlink:href="#linear-gradient-5"/></defs><title>Music</title><g id="Music"><path class="cls-1" d="M40.49,41.74c-3.6,3.59-4.51,2.68-7.21,5.38s-1.75,9-5.35,12.64S18,66,8,56,.64,39.66,4.24,36.07s9.94-2.65,12.64-5.35,1.79-3.61,5.38-7.21C29.42,16.35,47.69,34.54,40.49,41.74Z"/><path class="cls-2" d="M33.28,47.12c-2.7,2.7-1.75,9-5.35,12.64S18,66,8,56C2,50,.53,45.3,1.12,41.75,1.59,44.82,3.54,48.55,8,53c10,10,16.34,7.36,19.93,3.76s2.65-9.94,5.35-12.64,3.61-1.79,7.21-5.38A5.38,5.38,0,0,0,42,36C43.26,42.67,36.48,43.92,33.28,47.12Z"/><path class="cls-3" d="M39.58,30.63l-10,10-2.83-2.83,9.47-11A19.77,19.77,0,0,1,39.58,30.63Z"/><path class="cls-4" d="M53.69,13.69c-2,2,1.08-1.07-24.15,24.15l-3.38-3.38L50.31,10.31Z"/><polygon class="cls-5" points="53.69 13.69 52.28 15.11 48.9 11.73 50.31 10.31 53.69 13.69"/><path class="cls-6" d="M62.15,8.62l-5.07,5.07H53.69l-3.38-3.38V6.92l5.07-5.07h3.39l3.38,3.38Z"/><circle class="cls-7" cx="24.92" cy="39.08" r="4.79"/><path class="cls-8" d="M29.59,40.08c-1-5-8.32-5-9.34,0a4.78,4.78,0,1,1,9.34,0Z"/><circle class="cls-9" cx="49" cy="55" r="3"/><circle class="cls-10" cx="5" cy="19" r="3"/><circle class="cls-11" cx="17" cy="15" r="3"/><path d="M63.71,10.45c-1.15-1.15-1-.94-.85-1.13.39-.39.29-.47.29-4.09,0-.56,0-.41-3.67-4.09-.4-.39-.48-.29-4.1-.29a1.1,1.1,0,0,0-.84.43l-1-1a1,1,0,0,0-1.41,1.42l1,1-2,2-1-1a1,1,0,0,0-1.42,1.41c1.15,1.15,1,.94.85,1.13-.39.39-.29.52-.29,3.67l-14.4,14.4c-5.15-3.9-10.33-4.51-13.35-1.49-3.65,3.65-2.89,4.72-5.39,7.21S7.33,31.56,3.53,35.36C-3.2,42.09.58,50,7.29,56.71S21.91,67.2,28.64,60.47c2.13-2.13,2.8-5.06,3.39-7.65,1.84-8,3.68-4.89,9.17-10.38,3-3,2.41-8.2-1.49-13.35l14.4-14.4c3.38,0,3.24.15,3.81-.43,1.08,1.08,1.19,1.28,1.7,1.28a1,1,0,0,0,.7-1.71l-1-1,2-2C62.39,12,62.49,12.15,63,12.15A1,1,0,0,0,63.71,10.45ZM39.78,41c-3.49,3.49-4.35,2.53-7.21,5.38-3,3-2,9.3-5.34,12.64-5.86,5.87-12.68,2.1-18.53-3.75S-.91,42.63,5,36.77c3.3-3.3,9.68-2.39,12.64-5.34s1.92-3.75,5.38-7.21c2.66-2.67,7.13-1,10.51,1.5l-7.66,7.66a5.78,5.78,0,1,0,4.8,4.8l7.66-7.66C40.75,33.9,42.45,38.37,39.78,41Zm-12.18.73a3.79,3.79,0,1,1,0-5.36A3.81,3.81,0,0,1,27.6,41.76Zm2.26-5.65a5.11,5.11,0,0,0-2-2L50.31,11.72l2,2ZM54.11,12.69l-2.8-2.8V7.34L55.8,2.85h2.55l2.8,2.8V8.2l-4.49,4.49Z"/><path d="M12.09,45.14a1,1,0,0,0-1.42,1.42c7.5,7.49,6.9,7.06,7.48,7.06a1,1,0,0,0,.71-1.71Z"/><path d="M58,43c-2.48,0-2.73-2-6-2a1,1,0,0,0-1,1v9.56A4,4,0,1,0,53,55V43.11c1.54.38,2.17,1.89,5,1.89A1,1,0,0,0,58,43ZM49,57a2,2,0,1,1,2-2A2,2,0,0,1,49,57Z"/><path d="M5,23a4,4,0,0,0,4-4V6.72L19,3.39v8.17A4,4,0,1,0,21,15c0-14,.18-13.38-.42-13.81s0-.44-12.9,3.86A1,1,0,0,0,7,6v9.56A4,4,0,1,0,5,23Zm12-6a2,2,0,1,1,2-2A2,2,0,0,1,17,17ZM5,17a2,2,0,1,1-2,2A2,2,0,0,1,5,17Z"/></g></svg>