<svg xmlns="http://www.w3.org/2000/svg" xmlns:xlink="http://www.w3.org/1999/xlink" viewBox="0 0 64 64"><defs><style>.cls-1{fill:url(#linear-gradient);}.cls-2{fill:url(#linear-gradient-2);}.cls-3{fill:url(#linear-gradient-3);}.cls-4{fill:#42455e;}.cls-5{fill:url(#linear-gradient-4);}.cls-6{fill:url(#linear-gradient-5);}.cls-7{fill:#f2a961;}.cls-8{fill:url(#linear-gradient-6);}.cls-9{fill:url(#linear-gradient-7);}.cls-10{fill:#c7cdd8;}.cls-11{fill:#dd8b37;}</style><linearGradient id="linear-gradient" x1="27" y1="63" x2="27" y2="1" gradientUnits="userSpaceOnUse"><stop offset="0" stop-color="#e9a254"/><stop offset="1" stop-color="#f4bb79"/></linearGradient><linearGradient id="linear-gradient-2" x1="60" y1="61" x2="60" y2="3" xlink:href="#linear-gradient"/><linearGradient id="linear-gradient-3" x1="56.98" y1="57.5" x2="63.02" y2="57.5" gradientUnits="userSpaceOnUse"><stop offset="0" stop-color="#d1a788"/><stop offset="1" stop-color="#f2d3b8"/></linearGradient><linearGradient id="linear-gradient-4" x1="60" y1="10" x2="60" y2="3" gradientUnits="userSpaceOnUse"><stop offset="0" stop-color="#d96bb0"/><stop offset="1" stop-color="#e49fc6"/></linearGradient><linearGradient id="linear-gradient-5" x1="57" y1="12" x2="63" y2="12" gradientUnits="userSpaceOnUse"><stop offset="0" stop-color="#949aaf"/><stop offset="1" stop-color="#c6ccda"/></linearGradient><linearGradient id="linear-gradient-6" x1="6" y1="63" x2="6" y2="1" gradientUnits="userSpaceOnUse"><stop offset="0" stop-color="#474f72"/><stop offset="1" stop-color="#878c9f"/></linearGradient><linearGradient id="linear-gradient-7" x1="30" y1="26" x2="30" y2="8" gradientUnits="userSpaceOnUse"><stop offset="0" stop-color="#d4d8e1"/><stop offset="1" stop-color="#f3f4f5"/></linearGradient></defs><title>Notebook</title><g id="Notebook"><rect class="cls-1" x="3" y="1" width="48" height="62" rx="2"/><path class="cls-2" d="M63,5V55l-3,6-3-6V5a2,2,0,0,1,2-2h2A2,2,0,0,1,63,5Z"/><path class="cls-3" d="M63,54.68c0,.45.41-.51-3,6.32-3.43-6.87-3-5.87-3-6.32A6.93,6.93,0,0,1,63,54.68Z"/><path class="cls-4" d="M61.43,58.14,60,61l-1.43-2.86A7.44,7.44,0,0,1,61.43,58.14Z"/><path class="cls-5" d="M59,3h2a2,2,0,0,1,2,2v5a0,0,0,0,1,0,0H57a0,0,0,0,1,0,0V5A2,2,0,0,1,59,3Z"/><rect class="cls-6" x="57" y="10" width="6" height="4"/><rect class="cls-7" x="57" y="14" width="6" height="2"/><path class="cls-8" d="M9,1V63H5a2,2,0,0,1-2-2V3A2,2,0,0,1,5,1Z"/><rect class="cls-9" x="15" y="8" width="30" height="18"/><rect class="cls-10" x="15" y="23" width="30" height="3"/><path class="cls-11" d="M51,58v3a2,2,0,0,1-2,2H9V60H49A2,2,0,0,0,51,58Z"/><path class="cls-4" d="M9,60v3H5a2,2,0,0,1-2-2V58a2,2,0,0,0,2,2Z"/><path d="M49,0H5A3,3,0,0,0,2,3V7H1A1,1,0,0,0,1,9H2v4H1a1,1,0,0,0,0,2H2v4H1a1,1,0,0,0,0,2H2v4H1a1,1,0,0,0,0,2H2v4H1a1,1,0,0,0,0,2H2v4H1a1,1,0,0,0,0,2H2v4H1a1,1,0,0,0,0,2H2v4H1a1,1,0,0,0,0,2H2v4H1a1,1,0,0,0,0,2H2v4a3,3,0,0,0,3,3H49a3,3,0,0,0,3-3V3A3,3,0,0,0,49,0ZM5,62a1,1,0,0,1-1-1V57H6a1,1,0,0,0,0-2H4V51H6a1,1,0,0,0,0-2H4V45H6a1,1,0,0,0,0-2H4V39H6a1,1,0,0,0,0-2H4V33H6a1,1,0,0,0,0-2H4V27H6a1,1,0,0,0,0-2H4V21H6a1,1,0,0,0,0-2H4V15H6a1,1,0,0,0,0-2H4V9H6A1,1,0,0,0,6,7H4V3A1,1,0,0,1,5,2H8V62Zm45-1a1,1,0,0,1-1,1H10V2H49a1,1,0,0,1,1,1Z"/><path d="M45,7H15a1,1,0,0,0-1,1V26a1,1,0,0,0,1,1H45a1,1,0,0,0,1-1V8A1,1,0,0,0,45,7ZM44,25H16V9H44Z"/><path d="M42,37H18a1,1,0,0,0,0,2H42A1,1,0,0,0,42,37Z"/><path d="M42,43H18a1,1,0,0,0,0,2H42A1,1,0,0,0,42,43Z"/><path d="M61,2H59a3,3,0,0,0-3,3V55c0,.34-.15-.06,3.11,6.45a1,1,0,0,0,1.78,0C64.15,55,64,55.34,64,55V5A3,3,0,0,0,61,2ZM59.14,57.05l-.89-1.79a6,6,0,0,1,3.5,0l-.89,1.79A8.24,8.24,0,0,0,59.14,57.05ZM62,13H58V11h4ZM58,53.27V15h4V53.27A8,8,0,0,0,58,53.27ZM58,5a1,1,0,0,1,1-1h2a1,1,0,0,1,1,1V9H58Z"/></g></svg>