<svg xmlns="http://www.w3.org/2000/svg" xmlns:xlink="http://www.w3.org/1999/xlink" viewBox="0 0 64 64"><defs><style>.cls-1{fill:url(#linear-gradient);}.cls-2{fill:url(#linear-gradient-2);}.cls-3{fill:#c7cdd8;}.cls-4{fill:url(#linear-gradient-3);}.cls-5{fill:url(#linear-gradient-4);}.cls-6{fill:#cf4055;}.cls-7{fill:url(#linear-gradient-5);}.cls-8{fill:url(#linear-gradient-6);}.cls-9{fill:#adb3c4;}.cls-10{fill:#42455e;}</style><linearGradient id="linear-gradient" x1="32" y1="51" x2="32" y2="7" gradientUnits="userSpaceOnUse"><stop offset="0" stop-color="#474f72"/><stop offset="1" stop-color="#878c9f"/></linearGradient><linearGradient id="linear-gradient-2" x1="32" y1="51" x2="32" y2="43" gradientUnits="userSpaceOnUse"><stop offset="0" stop-color="#d4d8e1"/><stop offset="1" stop-color="#f3f4f5"/></linearGradient><linearGradient id="linear-gradient-3" x1="32" y1="63" x2="32" y2="51" gradientUnits="userSpaceOnUse"><stop offset="0" stop-color="#949aaf"/><stop offset="1" stop-color="#c6ccda"/></linearGradient><linearGradient id="linear-gradient-4" x1="32" y1="37" x2="32" y2="5" gradientUnits="userSpaceOnUse"><stop offset="0" stop-color="#da5466"/><stop offset="1" stop-color="#f4929c"/></linearGradient><linearGradient id="linear-gradient-5" x1="13" y1="19" x2="32" y2="19" xlink:href="#linear-gradient-2"/><linearGradient id="linear-gradient-6" x1="32" y1="19" x2="51" y2="19" xlink:href="#linear-gradient-2"/></defs><title>Online LEarning</title><g id="Online_LEarning" data-name="Online LEarning"><path class="cls-1" d="M55,7h2a4,4,0,0,1,4,4V47a4,4,0,0,1-4,4H7a4,4,0,0,1-4-4V11A4,4,0,0,1,7,7H9"/><path class="cls-2" d="M3,43H61a0,0,0,0,1,0,0v4a4,4,0,0,1-4,4H7a4,4,0,0,1-4-4V43A0,0,0,0,1,3,43Z"/><path class="cls-3" d="M61,45v2a4,4,0,0,1-4,4H7a4,4,0,0,1-4-4V45a4,4,0,0,0,4,4H57A4,4,0,0,0,61,45Z"/><path class="cls-4" d="M42,63H22a3.27,3.27,0,0,0,2.22-.86C25.58,60.94,25.29,60.2,26,51H38c.29,3.78.14,1.79.7,9A3.32,3.32,0,0,0,42,63Z"/><path class="cls-5" d="M13,5H9V37H55V5H51"/><path class="cls-6" d="M13,35H9v2H55V35H51"/><path class="cls-7" d="M32,5V37a13.65,13.65,0,0,0-9.66-4H13V1h9.34A13.65,13.65,0,0,1,32,5Z"/><path class="cls-8" d="M32,5V37a13.65,13.65,0,0,1,9.66-4H51V1H41.66A13.65,13.65,0,0,0,32,5Z"/><path class="cls-3" d="M32,34v3a13.65,13.65,0,0,0-9.66-4H13V30h9.34A13.65,13.65,0,0,1,32,34Z"/><path class="cls-3" d="M51,30v3H41.66A13.65,13.65,0,0,0,32,37V34a13.65,13.65,0,0,1,9.66-4Z"/><polygon class="cls-9" points="38.23 54 25.77 54 26 51 38 51 38.23 54"/><rect class="cls-10" x="3" y="41" width="58" height="2"/><path d="M57,6H56V5a1,1,0,0,0-1-1H52V1a1,1,0,0,0-1-1C42,0,37.12-.86,32,3.65,26.85-.88,22,0,13,0a1,1,0,0,0-1,1V4H9A1,1,0,0,0,8,5V6H7a5,5,0,0,0-5,5V47a5,5,0,0,0,5,5H24.92l-.62,7.92A2.31,2.31,0,0,1,22,62H20a1,1,0,0,0,0,2H44a1,1,0,0,0,0-2H42a2.3,2.3,0,0,1-2.3-2.07L39.08,52H57a5,5,0,0,0,5-5V11A5,5,0,0,0,57,6ZM54,6V36H34.84c3.95-2.54,6.81-2,16.16-2a1,1,0,0,0,1-1V6ZM50,2V32c-8.16,0-12.26-.66-17,2.83V5.42A12.56,12.56,0,0,1,41.66,2ZM14,2c7.83,0,12.48-.82,17,3.42V34.83C26.16,31.27,21.91,32,14,32ZM10,6h2V33a1,1,0,0,0,1,1c9.28,0,12.21-.54,16.16,2H10ZM7,8H8V37a1,1,0,0,0,1,1H55a1,1,0,0,0,1-1V8h1a3,3,0,0,1,3,3V42H4V11A3,3,0,0,1,7,8ZM38.35,62H25.64c.77-1.21.61-1.38,1.29-10H37.08C37.68,59.84,37.52,60.69,38.35,62ZM60,47a3,3,0,0,1-3,3H7a3,3,0,0,1-3-3V44H60Z"/><path d="M31,48h2a1,1,0,0,0,0-2H31A1,1,0,0,0,31,48Z"/><path d="M18,8h9a1,1,0,0,0,0-2H18A1,1,0,0,0,18,8Z"/><path d="M18,13h9a1,1,0,0,0,0-2H18A1,1,0,0,0,18,13Z"/><path d="M18,18h9a1,1,0,0,0,0-2H18A1,1,0,0,0,18,18Z"/><path d="M18,23h9a1,1,0,0,0,0-2H18A1,1,0,0,0,18,23Z"/><path d="M18,28h9a1,1,0,0,0,0-2H18A1,1,0,0,0,18,28Z"/><path d="M37,8h9a1,1,0,0,0,0-2H37A1,1,0,0,0,37,8Z"/><path d="M37,13h9a1,1,0,0,0,0-2H37A1,1,0,0,0,37,13Z"/><path d="M37,18h9a1,1,0,0,0,0-2H37A1,1,0,0,0,37,18Z"/><path d="M37,23h9a1,1,0,0,0,0-2H37A1,1,0,0,0,37,23Z"/><path d="M37,28h9a1,1,0,0,0,0-2H37A1,1,0,0,0,37,28Z"/></g></svg>