<svg xmlns="http://www.w3.org/2000/svg" xmlns:xlink="http://www.w3.org/1999/xlink" viewBox="0 0 64 64"><defs><style>.cls-1{fill:url(#linear-gradient);}.cls-2{fill:#42455e;}.cls-3{fill:url(#linear-gradient-2);}.cls-4{fill:url(#linear-gradient-3);}.cls-5{fill:#c7cdd8;}.cls-6{fill:#dfe3ea;}.cls-7{fill:#e8677d;}</style><linearGradient id="linear-gradient" x1="32" y1="63" x2="32" y2="1" gradientUnits="userSpaceOnUse"><stop offset="0" stop-color="#474f72"/><stop offset="1" stop-color="#878c9f"/></linearGradient><linearGradient id="linear-gradient-2" x1="32" y1="55" x2="32" y2="5" gradientUnits="userSpaceOnUse"><stop offset="0" stop-color="#d4d8e1"/><stop offset="1" stop-color="#f3f4f5"/></linearGradient><linearGradient id="linear-gradient-3" x1="46" y1="50" x2="46" y2="5" gradientUnits="userSpaceOnUse"><stop offset="0" stop-color="#da5466"/><stop offset="1" stop-color="#f4929c"/></linearGradient></defs><title>PDF</title><g id="PDF"><rect class="cls-1" x="8" y="1" width="48" height="62" rx="3"/><path class="cls-2" d="M56,58v2a3,3,0,0,1-3,3H11a3,3,0,0,1-3-3V58a3,3,0,0,0,3,3H53A3,3,0,0,0,56,58Z"/><rect class="cls-3" x="12" y="5" width="40" height="50"/><polygon class="cls-4" points="48 50 46 48 44 50 44 5 48 5 48 50"/><rect class="cls-5" x="12" y="52" width="40" height="3"/><rect class="cls-6" x="12" y="5" width="40" height="3"/><rect class="cls-7" x="44" y="5" width="4" height="3"/><path d="M53,0H11A4,4,0,0,0,7,4V60a4,4,0,0,0,4,4H53a4,4,0,0,0,4-4V4A4,4,0,0,0,53,0Zm2,60a2,2,0,0,1-2,2H11a2,2,0,0,1-2-2V4a2,2,0,0,1,2-2H53a2,2,0,0,1,2,2Z"/><path d="M52,4H12a1,1,0,0,0-1,1V55a1,1,0,0,0,1,1H52a1,1,0,0,0,1-1V5A1,1,0,0,0,52,4ZM47,6c0,46.22.13,41.72-.29,41.29a1,1,0,0,0-1.42,0C44.87,47.72,45,52.21,45,6Zm4,48H13V6H43V50a1,1,0,0,0,1.71.71L46,49.41c1.36,1.36,1.64,1.82,2.38,1.51S49,53.64,49,6h2Z"/><path d="M33,58H31a1,1,0,0,0,0,2h2A1,1,0,0,0,33,58Z"/><path d="M40,10H22a1,1,0,0,0,0,2H40A1,1,0,0,0,40,10Z"/><path d="M40,16H38a1,1,0,0,0,0,2h2A1,1,0,0,0,40,16Z"/><path d="M18,18H34a1,1,0,0,0,0-2H18A1,1,0,0,0,18,18Z"/><path d="M40,22H25a1,1,0,0,0,0,2H40A1,1,0,0,0,40,22Z"/><path d="M18,24h3a1,1,0,0,0,0-2H18A1,1,0,0,0,18,24Z"/><path d="M40,28H34a1,1,0,0,0,0,2h6A1,1,0,0,0,40,28Z"/><path d="M18,30H30a1,1,0,0,0,0-2H18A1,1,0,0,0,18,30Z"/><path d="M40,34H18a1,1,0,0,0,0,2H40A1,1,0,0,0,40,34Z"/><path d="M40,40H28a1,1,0,0,0,0,2H40A1,1,0,0,0,40,40Z"/><path d="M18,42h6a1,1,0,0,0,0-2H18A1,1,0,0,0,18,42Z"/><path d="M36,46H18a1,1,0,0,0,0,2H36A1,1,0,0,0,36,46Z"/></g></svg>