<svg xmlns="http://www.w3.org/2000/svg" xmlns:xlink="http://www.w3.org/1999/xlink" viewBox="0 0 64 64"><defs><style>.cls-1{fill:url(#linear-gradient);}.cls-2{fill:url(#linear-gradient-2);}.cls-3{fill:#42455e;}.cls-4{fill:#c7cdd8;}.cls-5{fill:#575f7c;}.cls-6{fill:url(#linear-gradient-3);}.cls-7{fill:url(#linear-gradient-4);}.cls-8{fill:url(#linear-gradient-5);}.cls-9{fill:#5b8dc9;}.cls-10{fill:#dfe3ea;}</style><linearGradient id="linear-gradient" x1="32" y1="51" x2="32" y2="7" gradientUnits="userSpaceOnUse"><stop offset="0" stop-color="#d4d8e1"/><stop offset="1" stop-color="#f3f4f5"/></linearGradient><linearGradient id="linear-gradient-2" x1="32" y1="42.64" x2="32" y2="26.86" gradientUnits="userSpaceOnUse"><stop offset="0" stop-color="#474f72"/><stop offset="1" stop-color="#878c9f"/></linearGradient><linearGradient id="linear-gradient-3" y1="32" y2="14" xlink:href="#linear-gradient-2"/><linearGradient id="linear-gradient-4" x1="48" y1="44" x2="48" y2="39.91" gradientUnits="userSpaceOnUse"><stop offset="0" stop-color="#e9a254"/><stop offset="1" stop-color="#f4bb79"/></linearGradient><linearGradient id="linear-gradient-5" x1="32" y1="7" x2="32" y2="1" gradientUnits="userSpaceOnUse"><stop offset="0" stop-color="#7aa8d7"/><stop offset="1" stop-color="#c3d2e7"/></linearGradient></defs><title>Presentation</title><g id="Presentation"><rect class="cls-1" x="3" y="7" width="58" height="44"/><path class="cls-2" d="M44,26.86V36.5c0,2.26-5.37,6.14-12,6.14S20,38.76,20,36.5V26.86Z"/><path class="cls-3" d="M44,33.64V36.5c0,2.26-5.37,6.14-12,6.14S20,38.76,20,36.5V33.64c0,2.26,5.37,6.14,12,6.14S44,35.9,44,33.64Z"/><rect class="cls-4" x="3" y="48" width="58" height="3"/><polygon class="cls-5" points="44 26.86 44 29.04 32 34.18 20 29.04 20 26.86 44 26.86"/><polygon class="cls-6" points="32 32 11 23 32 14 53 23 32 32"/><path class="cls-7" d="M49.55,41.25,50,44H46l.45-2.75A1.57,1.57,0,0,1,49.55,41.25Z"/><rect class="cls-8" x="1" y="1" width="62" height="6"/><rect class="cls-9" x="1" y="5" width="62" height="2"/><rect class="cls-10" x="3" y="7" width="58" height="2"/><path d="M63,8a1,1,0,0,0,1-1V1a1,1,0,0,0-1-1H1A1,1,0,0,0,0,1V7A1,1,0,0,0,1,8H2V50H1a1,1,0,0,0,0,2H31v6.18a3,3,0,1,0,2,0V52H63a1,1,0,0,0,0-2H62V8ZM32,62a1,1,0,0,1,0-2A1,1,0,0,1,32,62ZM2,2H62V6H2ZM60,50H4V8H60Z"/><path d="M19,27.52v9c0,3.15,6.12,7.14,13,7.14s13-4,13-7.14v-9l2-.86V39.12a2.6,2.6,0,0,0-1.54,2C44.73,45.58,44.21,45,50,45a1,1,0,0,0,1-1.16c-.4-2.45-.34-4-2-4.72V25.8l4.39-1.88a1,1,0,0,0,0-1.84c-22.92-9.82-21.22-9.24-21.78-9C9,22.77,10,22.06,10,23S9.9,23.62,19,27.52ZM47.18,43c.24-1.48.19-1.87.6-2a.56.56,0,0,0,.44,0c.38.16.34.4.6,2ZM43,36.5c0,1.49-4.76,5.14-11,5.14S21,38,21,36.5V28.37c11.5,4.93,10.84,4.79,11.39,4.55L43,28.37ZM32,15.09,50.46,23l-2.35,1-16-2.14a1,1,0,0,0-.26,2l12.65,1.69L32,30.91,13.54,23Z"/></g></svg>