<svg xmlns="http://www.w3.org/2000/svg" xmlns:xlink="http://www.w3.org/1999/xlink" viewBox="0 0 64 64"><defs><style>.cls-1{fill:url(#linear-gradient);}.cls-2{fill:url(#linear-gradient-2);}.cls-3{fill:#dd8b37;}.cls-4{fill:url(#linear-gradient-3);}.cls-5{fill:url(#linear-gradient-4);}.cls-6{fill:url(#linear-gradient-5);}.cls-7{fill:#8288a1;}.cls-8{fill:url(#linear-gradient-6);}.cls-9{fill:url(#linear-gradient-7);}.cls-10{fill:url(#linear-gradient-8);}.cls-11{fill:url(#linear-gradient-9);}.cls-12{fill:url(#linear-gradient-10);}.cls-13{fill:url(#linear-gradient-11);}.cls-14{fill:url(#linear-gradient-12);}.cls-15{fill:#cf4055;}.cls-16{fill:#575f7c;}.cls-17{fill:#77cacb;}</style><linearGradient id="linear-gradient" x1="61" y1="24.98" x2="61" y2="17.02" gradientUnits="userSpaceOnUse"><stop offset="0" stop-color="#e9a254"/><stop offset="1" stop-color="#f4bb79"/></linearGradient><linearGradient id="linear-gradient-2" x1="3" y1="24.98" x2="3" y2="17.02" xlink:href="#linear-gradient"/><linearGradient id="linear-gradient-3" x1="32" y1="32.05" x2="32" y2="1" xlink:href="#linear-gradient"/><linearGradient id="linear-gradient-4" x1="32" y1="49" x2="32" y2="29" xlink:href="#linear-gradient"/><linearGradient id="linear-gradient-5" x1="32" y1="55" x2="32" y2="49" gradientUnits="userSpaceOnUse"><stop offset="0" stop-color="#949aaf"/><stop offset="1" stop-color="#c6ccda"/></linearGradient><linearGradient id="linear-gradient-6" x1="10" y1="63" x2="10" y2="55" gradientUnits="userSpaceOnUse"><stop offset="0" stop-color="#474f72"/><stop offset="1" stop-color="#878c9f"/></linearGradient><linearGradient id="linear-gradient-7" x1="54" x2="54" xlink:href="#linear-gradient-6"/><linearGradient id="linear-gradient-8" x1="32" y1="49" x2="32" y2="37" xlink:href="#linear-gradient-6"/><linearGradient id="linear-gradient-9" x1="12" y1="45" x2="12" y2="39" gradientUnits="userSpaceOnUse"><stop offset="0" stop-color="#d4d8e1"/><stop offset="1" stop-color="#f3f4f5"/></linearGradient><linearGradient id="linear-gradient-10" x1="52" x2="52" xlink:href="#linear-gradient-9"/><linearGradient id="linear-gradient-11" x1="32" y1="29" x2="32" y2="13" gradientUnits="userSpaceOnUse"><stop offset="0" stop-color="#9dd5df"/><stop offset="1" stop-color="#c3e1f5"/></linearGradient><linearGradient id="linear-gradient-12" x1="32" y1="9" x2="32" y2="5" xlink:href="#linear-gradient-9"/></defs><title>School Bus</title><g id="School_Bus" data-name="School Bus"><path class="cls-1" d="M59,23V19a2,2,0,0,1,4,0v4A2,2,0,0,1,59,23Z"/><path class="cls-2" d="M5,23V19a2,2,0,0,0-4,0v4A2,2,0,0,0,5,23Z"/><path class="cls-3" d="M63,21v2a2,2,0,0,1-4,0V21a2,2,0,0,0,4,0Z"/><path class="cls-3" d="M5,21v2a2,2,0,0,1-4,0V21a2,2,0,0,0,4,0Z"/><path class="cls-4" d="M55,13v19H9V13C9,5,18.75,1,32,1S55,5,55,13Z"/><path class="cls-3" d="M55,28.32v3.73H9V28.32A14.86,14.86,0,0,1,17,26H47A14.86,14.86,0,0,1,55,28.32Z"/><path class="cls-5" d="M17,29H47A12,12,0,0,1,59,41v8a0,0,0,0,1,0,0H5a0,0,0,0,1,0,0V41A12,12,0,0,1,17,29Z"/><rect class="cls-6" x="4" y="49" width="56" height="6"/><rect class="cls-7" x="4" y="53" width="56" height="2"/><rect class="cls-3" x="5" y="47" width="54" height="2"/><path class="cls-8" d="M6,55h8a0,0,0,0,1,0,0v6a2,2,0,0,1-2,2H8a2,2,0,0,1-2-2V55A0,0,0,0,1,6,55Z"/><path class="cls-9" d="M50,55h8a0,0,0,0,1,0,0v6a2,2,0,0,1-2,2H52a2,2,0,0,1-2-2V55A0,0,0,0,1,50,55Z"/><rect class="cls-10" x="19" y="37" width="26" height="12"/><circle class="cls-11" cx="12" cy="42" r="3"/><circle class="cls-12" cx="52" cy="42" r="3"/><rect class="cls-13" x="13" y="13" width="38" height="16"/><rect class="cls-14" x="27" y="5" width="10" height="4"/><path class="cls-15" d="M43,9a2,2,0,1,1,2-2A2,2,0,0,1,43,9Zm0-2Z"/><path class="cls-15" d="M21,9a2,2,0,1,1,2-2A2,2,0,0,1,21,9Zm0-2h0Zm0,0h0Zm0,0h0Zm0,0h0Zm0,0h0Zm0,0h0Zm0,0h0Zm0,0h0Z"/><rect class="cls-16" x="6" y="55" width="8" height="3"/><rect class="cls-16" x="50" y="55" width="8" height="3"/><path class="cls-17" d="M51,26.55V29H13V26.55A14.69,14.69,0,0,1,17,26C49.77,26,48.37,25.8,51,26.55Z"/><path d="M12,38a4,4,0,1,0,4,4A4,4,0,0,0,12,38Zm0,6a2,2,0,1,1,2-2A2,2,0,0,1,12,44Z"/><path d="M48,42a4,4,0,1,0,4-4A4,4,0,0,0,48,42Zm6,0a2,2,0,1,1-2-2A2,2,0,0,1,54,42Z"/><path d="M37,4H27a1,1,0,0,0-1,1V9a1,1,0,0,0,1,1H37a1,1,0,0,0,1-1V5A1,1,0,0,0,37,4ZM36,8H28V6h8Z"/><path d="M62,16.18V15a3,3,0,0,0-3-3H55.93C55.21,4.47,46.4,0,32,0S8.79,4.47,8.07,12H5a3,3,0,0,0-3,3v1.18A3,3,0,0,0,0,19v4a3,3,0,0,0,6,0V19a3,3,0,0,0-2-2.82V15a1,1,0,0,1,1-1H8V31.64C3.2,36.26,4,41.07,4,48a1,1,0,0,0-1,1v6a1,1,0,0,0,1,1H5v5a3,3,0,0,0,3,3h4a3,3,0,0,0,3-3V56H49v5a3,3,0,0,0,3,3h4a3,3,0,0,0,3-3V56h1a1,1,0,0,0,1-1V49a1,1,0,0,0-1-1c0-6.92.8-11.74-4-16.36V14h3a1,1,0,0,1,1,1v1.18A3,3,0,0,0,58,19v4a3,3,0,0,0,6,0V19A3,3,0,0,0,62,16.18ZM4,23a1,1,0,0,1-2,0V19a1,1,0,0,1,2,0Zm9,38a1,1,0,0,1-1,1H8a1,1,0,0,1-1-1V56h6Zm44,0a1,1,0,0,1-1,1H52a1,1,0,0,1-1-1V56h6Zm2-7H5V50H59ZM37,38v2H27V38Zm7,0v2H39V38ZM27,48V46H37v2Zm-7-6h5v2H20Zm7,0H37v2H27Zm17,2H39V42h5Zm-5,2h5v2H39ZM25,40H20V38h5Zm-5,6h5v2H20Zm38-5v7H46V37a1,1,0,0,0-1-1H19a1,1,0,0,0-1,1V48H6V41A11,11,0,0,1,17,30H47A11,11,0,0,1,58,41ZM14,28V14H31V28ZM50,14V28H33V14Zm2,15V13a1,1,0,0,0-1-1H13a1,1,0,0,0-1,1V29a16.84,16.84,0,0,0-2,1.06V13C10,4.89,21.36,2,32,2S54,4.89,54,13V30.06A14.12,14.12,0,0,0,52,29Zm10-6a1,1,0,0,1-2,0V19a1,1,0,0,1,2,0Z"/><circle cx="43" cy="7" r="2"/><circle cx="21" cy="7" r="2"/></g></svg>