<svg xmlns="http://www.w3.org/2000/svg" xmlns:xlink="http://www.w3.org/1999/xlink" viewBox="0 0 64 64"><defs><style>.cls-1{fill:url(#linear-gradient);}.cls-2{fill:#f69163;}.cls-3{fill:url(#linear-gradient-2);}.cls-4{fill:#cf4055;}</style><linearGradient id="linear-gradient" x1="44.97" y1="33.06" x2="44.97" y2="1" gradientUnits="userSpaceOnUse"><stop offset="0" stop-color="#f8aa88"/><stop offset="1" stop-color="#fac2ab"/></linearGradient><linearGradient id="linear-gradient-2" x1="21" y1="39" x2="21" y2="33" gradientTransform="translate(42 72) rotate(180)" gradientUnits="userSpaceOnUse"><stop offset="0" stop-color="#da5466"/><stop offset="1" stop-color="#f4929c"/></linearGradient></defs><title>Sport</title><g id="Sport"><path class="cls-1" d="M53,30.85c-12.5,7.33-27.59-4.73-23.27-18.62A16,16,0,0,1,48.5,1.4C62.55,4.49,65.65,23.43,53,30.85Z"/><path class="cls-2" d="M53,30.85A16,16,0,0,1,29,16,16,16,0,0,0,61,16,16,16,0,0,1,53,30.85Z"/><rect class="cls-3" x="3" y="33" width="36" height="6" transform="translate(42 72) rotate(-180)"/><rect class="cls-4" x="3" y="37" width="36" height="2" transform="translate(42 76) rotate(-180)"/><path d="M60.83,23.14C66.62,8.18,50.31-5.69,36.5,2.28A17,17,0,0,0,37,32H3a1,1,0,0,0-1,1v6a1,1,0,0,0,1,1H4.32C5.16,42.19,8,50.51,8,63a1,1,0,0,0,2,0c0-1.5-.05-2.92-.12-4.29L12,56.16l3.5,4.2V63a1,1,0,0,0,2,0V60.36l3.5-4.2,3.5,4.2V63a1,1,0,0,0,2,0V60.36l3.5-4.2,2.12,2.55C32.05,60.08,32,61.5,32,63a1,1,0,0,0,2,0c0-12.49,2.84-20.81,3.68-23H39a1,1,0,0,0,1-1V33.23a16.92,16.92,0,0,0,20.75-9.91A.49.49,0,0,0,60.83,23.14ZM33.17,49.24,30,53,26.8,49.2,30,45.36C33.42,49.47,33.19,49.14,33.17,49.24Zm-7.67-1.6L22.3,43.8,25.47,40c.1,0-.18-.29,3.23,3.8ZM8.82,49.18,12,45.36l3.2,3.84L12,53C8.58,48.94,8.84,49.28,8.82,49.18ZM13.3,43.8c3.41-4.08,3.13-3.8,3.23-3.8l3.17,3.8-3.2,3.84ZM21,45.36l3.2,3.84L21,53,17.8,49.2ZM28.14,40h3.72L30,42.24ZM21,42.24,19.13,40h3.74Zm-9,0L10.14,40h3.72ZM7.53,40l3.17,3.8L8.32,46.65A51.5,51.5,0,0,0,6.46,40ZM9.69,55.82c-.09-1-.18-1.89-.29-2.77l1.3,1.55Zm6.81,2.62L13.3,54.6l3.2-3.84,3.2,3.84Zm9,0L22.3,54.6l3.2-3.84,3.2,3.84Zm5.8-3.84,1.3-1.55c-.11.88-.2,1.81-.29,2.77Zm2.38-8L31.3,43.8,34.47,40h1.07A51.5,51.5,0,0,0,33.68,46.65ZM38,38H4V34H38ZM59.93,18.27C58.1,13.6,55.22,12.2,49.28,9.2,46.76,7.92,45.45,7.2,44.8,6a19.22,19.22,0,0,1,11,.54A14.92,14.92,0,0,1,59.93,18.27ZM39.7,5.83,38.38,3.54a15,15,0,0,1,4.89-1.43,3.57,3.57,0,0,0-.91,2.57A20.14,20.14,0,0,0,39.7,5.83Zm12-2.22a21.41,21.41,0,0,0-7.31.46c.32-1.13,1.93-1.63,3.08-1.84A15.09,15.09,0,0,1,51.73,3.61Zm-15.07.95L38,6.83a22.81,22.81,0,0,0-2.32,1.72A3.53,3.53,0,0,0,33,8.06,14.85,14.85,0,0,1,36.66,4.56Zm-5.72,7.23c.77-.9,2-2,3.16-1.76A21.18,21.18,0,0,0,30,16.13,15.26,15.26,0,0,1,30.94,11.79Zm-.35,9.31a19.3,19.3,0,0,1,5-9.76c1.29,2.17,0,5.84.44,13.29a11.29,11.29,0,0,0,2.58,5.93A14.84,14.84,0,0,1,30.59,21.1ZM43,31.84c-3-2-4.8-5.22-4.92-7.33-.48-8,1.14-11.62-.94-14.54A19.83,19.83,0,0,1,39,8.58L51.61,30.44A15,15,0,0,1,43,31.84Zm10.37-2.4L40.72,7.58a19.47,19.47,0,0,1,2.14-.93c1.49,3.26,5.49,3.7,12.12,8.08,1.77,1.17,3.69,4.33,3.88,7.93A14.88,14.88,0,0,1,53.34,29.44Z"/></g></svg>