<svg xmlns="http://www.w3.org/2000/svg" xmlns:xlink="http://www.w3.org/1999/xlink" viewBox="0 0 64 64"><defs><style>.cls-1{fill:url(#linear-gradient);}.cls-2{fill:#eab39b;}.cls-3{fill:url(#linear-gradient-2);}.cls-4{fill:url(#linear-gradient-3);}.cls-5{fill:url(#linear-gradient-4);}.cls-6{fill:url(#linear-gradient-5);}.cls-7{fill:#f6b756;}.cls-8{fill:url(#linear-gradient-6);}.cls-9{fill:#cba07a;}.cls-10{fill:#e8c4a6;}.cls-11{fill:#c7cdd8;}.cls-12{fill:#dfe3ea;}</style><linearGradient id="linear-gradient" x1="19.5" y1="26" x2="19.5" y2="13" gradientUnits="userSpaceOnUse"><stop offset="0" stop-color="#f2c4b0"/><stop offset="1" stop-color="#ffe3d7"/></linearGradient><linearGradient id="linear-gradient-2" x1="15" y1="62.98" x2="15" y2="52" gradientUnits="userSpaceOnUse"><stop offset="0" stop-color="#d4d8e1"/><stop offset="1" stop-color="#f3f4f5"/></linearGradient><linearGradient id="linear-gradient-3" x1="24" y1="62.98" x2="24" xlink:href="#linear-gradient-2"/><linearGradient id="linear-gradient-4" x1="20.19" y1="37" x2="20.19" y2="13" xlink:href="#linear-gradient-2"/><linearGradient id="linear-gradient-5" x1="51" y1="25" x2="51" y2="1" gradientUnits="userSpaceOnUse"><stop offset="0" stop-color="#fbcc88"/><stop offset="1" stop-color="#ffe5c3"/></linearGradient><linearGradient id="linear-gradient-6" x1="20" y1="52" x2="20" y2="37" gradientTransform="translate(40 89) rotate(-180)" gradientUnits="userSpaceOnUse"><stop offset="0" stop-color="#d1a788"/><stop offset="1" stop-color="#f2d3b8"/></linearGradient></defs><title>Student Question</title><g id="Student_Question" data-name="Student Question"><path class="cls-1" d="M19.54,26A5.46,5.46,0,0,1,14,20.54V18.46a5.5,5.5,0,0,1,11,0v2.08A5.45,5.45,0,0,1,19.54,26Z"/><path class="cls-2" d="M25,18.54v2a5.5,5.5,0,0,1-11,0v-2a5.5,5.5,0,0,0,11,0Z"/><path class="cls-3" d="M13,52h4v9a2,2,0,0,1-4,0Z"/><path class="cls-4" d="M22,52h4v9a2,2,0,0,1-4,0Z"/><path class="cls-5" d="M34,27a4,4,0,0,1-4,4H26c0,4.81,0,3.48,0,6-13.53-.08-4.57,0-16.32,0a3.28,3.28,0,0,1-3-4.68A11.23,11.23,0,0,1,16.82,26H30V15a2,2,0,0,1,3.41-1.41C34.22,14.38,34,14.09,34,27Z"/><path class="cls-6" d="M51,1a12,12,0,0,0-8.49,20.49L39,25H51A12,12,0,0,0,51,1Z"/><path class="cls-7" d="M51,25H39l3.51-3.51a12,12,0,0,1-3.41-10,12,12,0,0,0,23.8,0A12,12,0,0,1,51,25Z"/><rect class="cls-8" x="3" y="37" width="34" height="15" transform="translate(40 89) rotate(180)"/><rect class="cls-9" x="3" y="50" width="34" height="2" transform="translate(40 102) rotate(180)"/><rect class="cls-10" x="3" y="38" width="34" height="3" transform="translate(40 79) rotate(180)"/><path class="cls-11" d="M26,35v2c-13.53-.08-4.57,0-16.32,0a3.36,3.36,0,0,1-3.07-2Z"/><rect class="cls-12" x="13" y="52" width="4" height="3"/><rect class="cls-12" x="22" y="52" width="4" height="3"/><path d="M39,36H27V32h3a5,5,0,0,0,5-5V15a3,3,0,0,0-6,0V25H24.2c2.07-2.16,1.8-4.4,1.8-6.54a6.5,6.5,0,0,0-13,0c0,2.36-.24,4.55,1.94,6.69a12.26,12.26,0,0,0-9.17,6.71A4.21,4.21,0,0,0,6,35.93c.07.1.62.07-5,.07a1,1,0,0,0,0,2H2V63a1,1,0,0,0,2,0V53h8v8a3,3,0,0,0,6,0V53h3v8a3,3,0,0,0,6,0V53h9V63a1,1,0,0,0,2,0V38h1A1,1,0,0,0,39,36ZM15,18.46a4.5,4.5,0,0,1,9,0v2.08a4.5,4.5,0,0,1-9,0ZM13.45,31.57H11a1,1,0,0,0,0,2h2.45A3.49,3.49,0,0,1,16.8,36c-1,0-3.06,0-7.1,0a2.29,2.29,0,0,1-2.13-3.25A10.29,10.29,0,0,1,16.82,27H30a1,1,0,0,0,1-1V15a1,1,0,0,1,2,0V27a3,3,0,0,1-3,3c-4.34,0-4.32-.1-4.71.29S25,30.52,25,36H18.85A5.47,5.47,0,0,0,13.45,31.57ZM16,61a1,1,0,0,1-2,0V53h2Zm9,0a1,1,0,0,1-2,0V53h2ZM36,51H4V38H36Z"/><path d="M51,0a13,13,0,0,0-9.87,21.46c-3,3-3.39,3.11-3.05,3.92S38.31,26,51,26A13,13,0,0,0,51,0Zm0,24H41.41l1.81-1.81a1,1,0,0,0,0-1.41A11,11,0,1,1,51,24Z"/><path d="M52.17,4.13A5,5,0,0,0,46,9a1,1,0,0,0,2,0,3,3,0,1,1,4.59,2.55C50,13.16,49.11,17,51,17a1,1,0,0,0,1-1,3.32,3.32,0,0,1,1.65-2.76A5,5,0,0,0,52.17,4.13Z"/><path d="M51,18a1,1,0,0,0,0,2A1,1,0,0,0,51,18Z"/></g></svg>