<svg xmlns="http://www.w3.org/2000/svg" xmlns:xlink="http://www.w3.org/1999/xlink" viewBox="0 0 64 64"><defs><style>.cls-1{fill:url(#linear-gradient);}.cls-2{fill:url(#linear-gradient-2);}.cls-3{fill:#cba07a;}.cls-4{fill:url(#linear-gradient-3);}.cls-5{fill:url(#linear-gradient-4);}.cls-6{fill:url(#linear-gradient-5);}.cls-7{fill:url(#linear-gradient-6);}.cls-8{fill:url(#linear-gradient-7);}.cls-9{fill:url(#linear-gradient-8);}.cls-10{fill:url(#linear-gradient-9);}.cls-11{fill:#5b8dc9;}</style><linearGradient id="linear-gradient" x1="32" y1="26" x2="32" y2="22" gradientTransform="translate(64 48) rotate(-180)" gradientUnits="userSpaceOnUse"><stop offset="0" stop-color="#9b756d"/><stop offset="1" stop-color="#bc9388"/></linearGradient><linearGradient id="linear-gradient-2" x1="32" y1="52" x2="32" y2="26" gradientTransform="translate(64 78) rotate(-180)" gradientUnits="userSpaceOnUse"><stop offset="0" stop-color="#d1a788"/><stop offset="1" stop-color="#f2d3b8"/></linearGradient><linearGradient id="linear-gradient-3" x1="32" y1="48" x2="32" y2="30" gradientTransform="matrix(1, 0, 0, 1, 0, 0)" xlink:href="#linear-gradient"/><linearGradient id="linear-gradient-4" x1="58" y1="60" x2="58" y2="52" gradientTransform="translate(116 112) rotate(-180)" xlink:href="#linear-gradient"/><linearGradient id="linear-gradient-5" x1="6" y1="60" x2="6" y2="52" gradientTransform="translate(12 112) rotate(-180)" xlink:href="#linear-gradient"/><linearGradient id="linear-gradient-6" x1="11" y1="22" x2="11" y2="14" gradientTransform="translate(22 36) rotate(-180)" gradientUnits="userSpaceOnUse"><stop offset="0" stop-color="#949aaf"/><stop offset="1" stop-color="#c6ccda"/></linearGradient><linearGradient id="linear-gradient-7" x1="53.99" y1="22" x2="53.99" y2="18" gradientUnits="userSpaceOnUse"><stop offset="0" stop-color="#d4d8e1"/><stop offset="1" stop-color="#f3f4f5"/></linearGradient><linearGradient id="linear-gradient-8" x1="54.01" y1="18" x2="54.01" y2="14" xlink:href="#linear-gradient-7"/><linearGradient id="linear-gradient-9" x1="32" y1="22" x2="32" y2="4" gradientTransform="translate(64 26) rotate(-180)" gradientUnits="userSpaceOnUse"><stop offset="0" stop-color="#7aa8d7"/><stop offset="1" stop-color="#c3d2e7"/></linearGradient></defs><title>Teacher Desk</title><g id="Teacher_Desk" data-name="Teacher Desk"><rect class="cls-1" x="1" y="22" width="62" height="4" transform="translate(64 48) rotate(180)"/><rect class="cls-2" x="4" y="26" width="56" height="26" transform="translate(64 78) rotate(180)"/><rect class="cls-3" x="4" y="50" width="56" height="2" transform="translate(64 102) rotate(180)"/><path class="cls-4" d="M13,30H51a4,4,0,0,0,4,4V44a4,4,0,0,0-4,4H13a4,4,0,0,0-4-4V34A4,4,0,0,0,13,30Z"/><rect class="cls-5" x="56" y="52" width="4" height="8" transform="translate(116 112) rotate(180)"/><rect class="cls-6" x="4" y="52" width="4" height="8" transform="translate(12 112) rotate(180)"/><rect class="cls-7" x="7" y="14" width="8" height="8" transform="translate(22 36) rotate(180)"/><path class="cls-8" d="M46,22H60a2,2,0,0,0,0-4H46Z"/><path class="cls-9" d="M60,18H50a2,2,0,0,1,0-4H60Z"/><path class="cls-10" d="M22,4H42a0,0,0,0,1,0,0V17a5,5,0,0,1-5,5H27a5,5,0,0,1-5-5V4A0,0,0,0,1,22,4Z" transform="translate(64 26) rotate(180)"/><rect class="cls-11" x="22" y="20" width="20" height="2"/><path d="M63,21c-.43,0,0,.1,0-1a3,3,0,0,0-2-2.82V14a1,1,0,0,0-1-1H50a3,3,0,0,0-2.82,4H46a1,1,0,0,0-1,1v3H43V9a6,6,0,0,0-6-6H27a6,6,0,0,0-6,6V21H16V14a1,1,0,0,0-1-1H14V8a1,1,0,0,0-2,0v5H10V11a1,1,0,0,0-2,0v2H7a1,1,0,0,0-1,1v7H1a1,1,0,0,0-1,1v4a1,1,0,0,0,1,1H3V60a1,1,0,0,0,1,1H8a1,1,0,0,0,1-1V53H21v7a1,1,0,0,0,2,0V53H41v7a1,1,0,0,0,2,0V53H55v7a1,1,0,0,0,1,1h4a1,1,0,0,0,1-1V27h2a1,1,0,0,0,1-1V22A1,1,0,0,0,63,21ZM50,15h9v2H50A1,1,0,0,1,50,15Zm-3,4H60a1,1,0,0,1,0,2H47ZM23,9a4,4,0,0,1,4-4H37a4,4,0,0,1,4,4V21H23ZM8,15h6v6H8ZM7,59H5V53H7Zm52,0H57V53h2Zm0-8H5V27H59Zm3-26H2V23H62Z"/><path d="M9,45a3,3,0,0,1,3,3,1,1,0,0,0,1,1H51a1,1,0,0,0,1-1,3,3,0,0,1,3-3,1,1,0,0,0,1-1V34a1,1,0,0,0-1-1,3,3,0,0,1-3-3,1,1,0,0,0-1-1H13a1,1,0,0,0-1,1,3,3,0,0,1-3,3,1,1,0,0,0-1,1V44A1,1,0,0,0,9,45Zm1-10.1A5,5,0,0,0,13.9,31H50.1A5,5,0,0,0,54,34.9v8.2A5,5,0,0,0,50.1,47H13.9A5,5,0,0,0,10,43.1Z"/><path d="M37,11H27a1,1,0,0,0,0,2H37A1,1,0,0,0,37,11Z"/><path d="M37,17H27a1,1,0,0,0,0,2H37A1,1,0,0,0,37,17Z"/></g></svg>