<svg xmlns="http://www.w3.org/2000/svg" xmlns:xlink="http://www.w3.org/1999/xlink" viewBox="0 0 64 64"><defs><style>.cls-1{fill:url(#linear-gradient);}.cls-2{fill:#4da67f;}.cls-3{fill:url(#linear-gradient-2);}.cls-4{fill:#5b8dc9;}.cls-5{fill:url(#linear-gradient-3);}.cls-6{fill:url(#linear-gradient-4);}.cls-7{fill:url(#linear-gradient-5);}.cls-8{fill:url(#linear-gradient-6);}.cls-9{fill:url(#linear-gradient-7);}.cls-10{fill:url(#linear-gradient-8);}.cls-11{fill:#eab39b;}.cls-12{fill:url(#linear-gradient-13);}.cls-13{fill:#c7cdd8;}</style><linearGradient id="linear-gradient" x1="38" y1="35" x2="38" y2="1" gradientUnits="userSpaceOnUse"><stop offset="0" stop-color="#6ab891"/><stop offset="1" stop-color="#85cba9"/></linearGradient><linearGradient id="linear-gradient-2" x1="20.5" y1="63" x2="20.5" y2="19.01" gradientUnits="userSpaceOnUse"><stop offset="0" stop-color="#7aa8d7"/><stop offset="1" stop-color="#c3d2e7"/></linearGradient><linearGradient id="linear-gradient-3" x1="13.5" y1="26" x2="13.5" y2="13" gradientUnits="userSpaceOnUse"><stop offset="0" stop-color="#f2c4b0"/><stop offset="1" stop-color="#ffe3d7"/></linearGradient><linearGradient id="linear-gradient-4" x1="31" y1="53" x2="31" y2="41" xlink:href="#linear-gradient-3"/><linearGradient id="linear-gradient-5" x1="31" y1="63" x2="31" y2="53" gradientUnits="userSpaceOnUse"><stop offset="0" stop-color="#d4d8e1"/><stop offset="1" stop-color="#f3f4f5"/></linearGradient><linearGradient id="linear-gradient-6" x1="51" y1="53" x2="51" y2="41" xlink:href="#linear-gradient-3"/><linearGradient id="linear-gradient-7" x1="51" x2="51" y2="53" xlink:href="#linear-gradient-5"/><linearGradient id="linear-gradient-8" x1="11" y1="53" x2="11" y2="41" xlink:href="#linear-gradient-3"/><linearGradient id="linear-gradient-13" x1="11" x2="11" y2="53" xlink:href="#linear-gradient-5"/></defs><title>Teaching</title><g id="Teaching"><path class="cls-1" d="M63,1V35H13V1Z"/><rect class="cls-2" x="20" y="32" width="43" height="3"/><path class="cls-3" d="M39,21.22c0,1.05.17.56-7.18,9.78H21V63H6V48a4,4,0,0,1-4-4V32a6,6,0,0,1,6-6H29.18l4.68-5.63C35.69,18.15,39,18.79,39,21.22Z"/><path class="cls-4" d="M21,56.38V63H6V52.1A12,12,0,0,1,21,56.38Z"/><path class="cls-5" d="M13.5,26A5.5,5.5,0,0,1,8,20.5v-2a5.5,5.5,0,0,1,11,0v2A5.5,5.5,0,0,1,13.5,26Z"/><path class="cls-6" d="M31,53a5,5,0,0,1-5-5V46a5,5,0,0,1,10,0v2A5,5,0,0,1,31,53Z"/><path class="cls-7" d="M41,63H21a10,10,0,0,1,20,0Z"/><path class="cls-8" d="M51,53a5,5,0,0,1-5-5V46a5,5,0,0,1,10,0v2A5,5,0,0,1,51,53Z"/><path class="cls-9" d="M61,63H41a10,10,0,0,1,20,0Z"/><path class="cls-10" d="M11,53a5,5,0,0,1-5-5V46a5,5,0,0,1,10,0v2A5,5,0,0,1,11,53Z"/><path class="cls-5" d="M13.5,26A5.5,5.5,0,0,1,8,20.5v-2a5.5,5.5,0,0,1,11,0v2A5.5,5.5,0,0,1,13.5,26Z"/><path class="cls-6" d="M31,53a5,5,0,0,1-5-5V46a5,5,0,0,1,10,0v2A5,5,0,0,1,31,53Z"/><path class="cls-8" d="M51,53a5,5,0,0,1-5-5V46a5,5,0,0,1,10,0v2A5,5,0,0,1,51,53Z"/><path class="cls-10" d="M11,53a5,5,0,0,1-5-5V46a5,5,0,0,1,10,0v2A5,5,0,0,1,11,53Z"/><path class="cls-11" d="M19,18.5v2a5.5,5.5,0,0,1-11,0v-2a5.5,5.5,0,0,0,11,0Z"/><path class="cls-11" d="M36,46v2a5,5,0,0,1-10,0V46a5,5,0,0,0,10,0Z"/><path class="cls-11" d="M56,46v2a5,5,0,0,1-10,0V46a5,5,0,0,0,10,0Z"/><path class="cls-11" d="M16,46v2A5,5,0,0,1,6,48V46a5,5,0,0,0,10,0Z"/><path class="cls-12" d="M21,63H1a10,10,0,0,1,20,0Z"/><path class="cls-13" d="M20.8,61a10.2,10.2,0,0,1,.2,2H1a10,10,0,0,1,.2-2Z"/><path class="cls-13" d="M40.8,61a10.2,10.2,0,0,1,.2,2H21a10,10,0,0,1,.2-2Z"/><path class="cls-13" d="M61,63H41a10,10,0,0,1,.2-2H60.8A10.2,10.2,0,0,1,61,63Z"/><path d="M63,0H13a1,1,0,0,0-1,1V12.18A6.51,6.51,0,0,0,7,18.5c0,2.29-.23,4.37,1.82,6.5H8a7,7,0,0,0-7,7V44a5,5,0,0,0,4.08,4.91,6,6,0,0,0,2.17,3.76A11,11,0,0,0,0,63a1,1,0,0,0,2,0,9,9,0,0,1,18,0,1,1,0,0,0,2,0,9,9,0,0,1,18,0,1,1,0,0,0,2,0,9,9,0,0,1,18,0,1,1,0,0,0,2,0,11,11,0,0,0-7.25-10.33c2.52-2,2.25-4.5,2.25-6.67a6,6,0,0,0-12,0c0,2.24-.27,4.65,2.25,6.67A11.08,11.08,0,0,0,41,58.44a11.08,11.08,0,0,0-6.25-5.77c2.52-2,2.25-4.5,2.25-6.67a6,6,0,0,0-12,0c0,2.24-.27,4.65,2.25,6.67a11.06,11.06,0,0,0-5.25,4V36H63a1,1,0,0,0,1-1V1A1,1,0,0,0,63,0ZM47,48V46a4,4,0,0,1,8,0v2a4,4,0,0,1-8,0ZM27,48V46a4,4,0,0,1,8,0v2a4,4,0,0,1-8,0ZM9,18.5a4.5,4.5,0,0,1,9,0v2a4.5,4.5,0,0,1-9,0ZM7,48V46a4,4,0,0,1,8,0v2a4,4,0,0,1-8,0Zm7.75,4.67c2.52-2,2.25-4.5,2.25-6.67A6,6,0,0,0,7,41.54V32a1,1,0,0,0-2,0V46.82A3,3,0,0,1,3,44V32a5,5,0,0,1,5-5c23.11,0,21.52.15,22-.36,4.88-5.87,5.1-6.64,6.83-6.64a1.22,1.22,0,0,1,.95,2l-6.39,8H21a1,1,0,0,0-1,1V56.7A11.06,11.06,0,0,0,14.75,52.67ZM62,34H22V32c10.51,0,10.18.15,10.6-.38,7.29-9.13,7.4-8.9,7.4-10.4a3.24,3.24,0,0,0-2-3V5a1,1,0,0,0-2,0V18.07c-2.34.38-2.88,1.62-7.29,6.93H18.18C20.25,22.84,20,20.64,20,18.5A6.49,6.49,0,0,0,14,12V2H62Z"/><path d="M5,61v2a1,1,0,0,0,2,0V61A1,1,0,0,0,5,61Z"/><path d="M15,61v2a1,1,0,0,0,2,0V61A1,1,0,0,0,15,61Z"/><path d="M25,61v2a1,1,0,0,0,2,0V61A1,1,0,0,0,25,61Z"/><path d="M35,61v2a1,1,0,0,0,2,0V61A1,1,0,0,0,35,61Z"/><path d="M45,61v2a1,1,0,0,0,2,0V61A1,1,0,0,0,45,61Z"/><path d="M55,61v2a1,1,0,0,0,2,0V61A1,1,0,0,0,55,61Z"/></g></svg>