<svg xmlns="http://www.w3.org/2000/svg" xmlns:xlink="http://www.w3.org/1999/xlink" viewBox="0 0 64 64"><defs><style>.cls-1{fill:url(#linear-gradient);}.cls-2{fill:#c7cdd8;}.cls-3{fill:url(#linear-gradient-2);}.cls-4{fill:url(#linear-gradient-3);}.cls-5{fill:url(#linear-gradient-4);}.cls-6{fill:url(#linear-gradient-5);}.cls-7{fill:#575f7c;}.cls-8{fill:url(#linear-gradient-6);}.cls-9{fill:url(#linear-gradient-7);}.cls-10{fill:url(#linear-gradient-8);}</style><linearGradient id="linear-gradient" x1="19.97" y1="47.07" x2="19.97" y2="1" gradientUnits="userSpaceOnUse"><stop offset="0" stop-color="#d4d8e1"/><stop offset="1" stop-color="#f3f4f5"/></linearGradient><linearGradient id="linear-gradient-2" x1="44" y1="63" x2="44" y2="17" xlink:href="#linear-gradient"/><linearGradient id="linear-gradient-3" x1="35" y1="40" x2="35" y2="34" gradientUnits="userSpaceOnUse"><stop offset="0" stop-color="#474f72"/><stop offset="1" stop-color="#878c9f"/></linearGradient><linearGradient id="linear-gradient-4" x1="53.5" x2="53.5" xlink:href="#linear-gradient-3"/><linearGradient id="linear-gradient-5" x1="44" y1="57" x2="44" y2="49" xlink:href="#linear-gradient-3"/><linearGradient id="linear-gradient-6" x1="11.12" y1="25.74" x2="11.12" y2="18.99" xlink:href="#linear-gradient-3"/><linearGradient id="linear-gradient-7" x1="29.34" y1="22.51" x2="29.34" y2="15.86" xlink:href="#linear-gradient-3"/><linearGradient id="linear-gradient-8" x1="19.76" y1="41.27" x2="19.76" y2="31.78" xlink:href="#linear-gradient-3"/></defs><title>Theatter</title><g id="Theatter"><path class="cls-1" d="M38.93,17.44,26,46.5c-14.24,3.28-22-8-24.51-22.5C-1.34,7.88,8.54,2.91,16.82,1.45,37.4-2.18,38.64,17.14,38.93,17.44Z"/><path class="cls-2" d="M38.93,17.44,26,46.5C11.64,49.82,4,38.38,1.5,24a28.43,28.43,0,0,1-.45-6.8A30.29,30.29,0,0,0,1.5,21C4,35.39,11.63,46.82,26,43.5,30.4,34.3,38.65,17.16,38.93,17.44Z"/><path class="cls-2" d="M38.93,17.44,26,46.5a18.93,18.93,0,0,1-2,.36c-1.36-6.08-1.8-15.33,1.19-21.66C27.63,20.13,38.8,17.31,38.93,17.44Z"/><path class="cls-3" d="M63,36.55C63,48.55,59.1,63,44,63S25,48.55,25,36.55C25,20.18,35.6,17,44,17S63,20.18,63,36.55Z"/><path class="cls-2" d="M44,63C29.65,63,24.4,49.29,25,35.18,25.37,46.82,29.58,60,44,60S62.63,46.82,63,35.18C63.59,49.19,58.42,63,44,63Z"/><path class="cls-4" d="M40,38.82c0,2.66-2.24,0-5,0s-5,2.66-5,0a5,5,0,0,1,10,0Z"/><path class="cls-5" d="M58,38.82c0,2.66-2,0-4.5,0s-4.5,2.66-4.5,0a4.51,4.51,0,1,1,9,0Z"/><path class="cls-6" d="M34.8,50.58c0-3.55,4.12,0,9.2,0s9.2-3.55,9.2,0S49.08,57,44,57,34.8,54.12,34.8,50.58Z"/><path class="cls-7" d="M40,38.82a1.84,1.84,0,0,1-.15.85c-1.23-4.88-8.48-4.88-9.7,0a1.84,1.84,0,0,1-.15-.85,5,5,0,0,1,10,0Z"/><path class="cls-7" d="M58,38.82a2.06,2.06,0,0,1-.13.86,4.44,4.44,0,0,0-8.74,0,2.06,2.06,0,0,1-.13-.86,4.51,4.51,0,1,1,9,0Z"/><path class="cls-7" d="M53.2,50.58a4.54,4.54,0,0,1-.14,1.1c-.74-1.94-4.52.9-9.06.9s-8.32-2.84-9.06-.9a4.54,4.54,0,0,1-.14-1.1c0-3.55,4.12,0,9.2,0S53.2,47,53.2,50.58Z"/><path class="cls-8" d="M16,20.05c-.46-2.62-2.2.39-4.92.87s-5.39-1.75-4.92.87A4.91,4.91,0,0,0,12,25.66,4.9,4.9,0,0,0,16,20.05Z"/><path class="cls-9" d="M33.65,19.19a5,5,0,0,0,.11-2.26c-.46-2.62-2,.35-4.43.78s-4.9-1.84-4.43.78a4.72,4.72,0,0,0,4.45,4"/><path class="cls-10" d="M25,38.13c-6.22.22-10.1,5.6-10.78,1.77-.74-4.24,4.72-8.54,11.09-8.09"/><path class="cls-7" d="M16,21.86c-.51-2.27-2.23.59-4.88,1.06-2,.36-4-.77-4.7-.32a4.4,4.4,0,0,1-.22-.81c-.47-2.62,2.2-.39,4.92-.87s4.46-3.49,4.92-.87A4.58,4.58,0,0,1,16,21.86Z"/><path class="cls-7" d="M33.74,18.82c-.48-2.43-2,.47-4.41.89-1.78.31-3.57-.8-4.22-.42a4.93,4.93,0,0,1-.21-.8c-.47-2.62,2-.35,4.43-.78s4-3.4,4.43-.78A5,5,0,0,1,33.74,18.82Z"/><path class="cls-7" d="M25.34,31.81l-.1,2c-4.6-.33-10.06,2.2-10.94,6.29C13.14,36.63,18.13,31.31,25.34,31.81Z"/><path d="M44,16a29.11,29.11,0,0,0-4.28.31c-2.61-13-11.07-18-23.07-15.84C4,2.71-1.78,11.12.52,24.17c2.55,14.5,10.27,26.27,24.74,23.51C27.23,55.71,32.14,64,44,64c18,0,20-19.2,20-27.45C64,23.3,56.9,16,44,16ZM24.63,45.77C11.48,48.08,4.8,37,2.48,23.83.35,11.71,5.23,4.51,17,2.44,28,.48,35.35,4.91,37.74,16.68a20.17,20.17,0,0,0-2.91.92c0-1-.27-2.24-1.2-2.63-1.48-.62-2.72,1.45-4.47,1.76s-3.64-1.21-4.81-.12-.24,5.31,3.28,6.57a19.41,19.41,0,0,0-3.1,7.63c-10.3,0-13.55,9.48-10,11.25,2.17,1.09,5.05-2.3,9.57-2.85C24.4,45.91,25.23,45.66,24.63,45.77ZM29,21.47a3.73,3.73,0,0,1-3.14-3.2,8.52,8.52,0,0,0,3.62.42,8.6,8.6,0,0,0,3.27-1.63,4.2,4.2,0,0,1,0,1.54A15.72,15.72,0,0,0,29,21.47ZM24,37.2c-4.35.46-7.7,3.29-8.59,3.08a1.15,1.15,0,0,1-.19-.55c-.66-3.82,4.36-6.83,9-6.93A31.62,31.62,0,0,0,24,37.2ZM44,62C28.79,62,26.28,46.39,26,38.12,25.6,24.38,31.92,18,44,18s18,6.24,18,18.55C62,44.2,60.25,62,44,62Z"/><path d="M40.22,40.74c2-1.36.22-7.74-5.22-7.74s-7.21,6.41-5.22,7.74c1.38.93,3.16-.92,5.22-.92S38.81,41.68,40.22,40.74ZM31.7,38.65c-.81.33-.7.29-.7.17a4,4,0,0,1,8,0c0,.12.1.16-.7-.17C35.62,37.54,34.39,37.54,31.7,38.65Z"/><path d="M53.5,33c-5,0-6.67,6.51-4.71,7.77,1.35.86,2.94-1,4.71-1,1.41,0,2.76,1.18,3.9,1.18C60.5,41,59.11,33,53.5,33ZM57,38.86a8.72,8.72,0,0,0-3.5-1,8.82,8.82,0,0,0-3.5,1,3.52,3.52,0,1,1,7,0Z"/><path d="M53.33,48.41c-1.84-1.36-5.18,1.17-9.33,1.17S36.51,47,34.67,48.41C32.13,50.3,34.81,58,44,58S55.87,50.31,53.33,48.41ZM44,56c-4.52,0-8.2-2.43-8.2-5.42a2.33,2.33,0,0,1,.06-.56c.8-.33,4.37,1.56,8.14,1.56s7.36-1.9,8.11-1.58c0,0,.09.12.09.58C52.2,53.57,48.52,56,44,56Z"/><path d="M15.92,18.12c-.88-.38-1.71.14-2.6.71-2,1.27-2.68,1.39-5,.88-1-.23-2-.44-2.68.23-1.75,1.68,1.11,7.65,6.49,6.71S18.11,19.09,15.92,18.12Zm-4.15,6.56a3.91,3.91,0,0,1-4.62-3.17,11.21,11.21,0,0,0,4.13.39A11.21,11.21,0,0,0,15,20.13s0,.06,0,.1h0A3.92,3.92,0,0,1,11.77,24.68Z"/></g></svg>