<svg xmlns="http://www.w3.org/2000/svg" xmlns:xlink="http://www.w3.org/1999/xlink" viewBox="0 0 64 64"><defs><style>.cls-1{fill:url(#linear-gradient);}.cls-2{fill:#c7cdd8;}.cls-3{fill:url(#linear-gradient-2);}.cls-4{fill:#5b8dc9;}.cls-5{fill:url(#linear-gradient-3);}.cls-6{fill:#77cacb;}.cls-7{fill:url(#linear-gradient-4);}.cls-8{fill:#dd8b37;}.cls-9{fill:url(#linear-gradient-5);}.cls-10{fill:url(#linear-gradient-6);}.cls-11{fill:url(#linear-gradient-7);}.cls-12{fill:#cba07a;}.cls-13{fill:#d861b0;}.cls-14{fill:#8288a1;}</style><linearGradient id="linear-gradient" x1="11" y1="14" x2="11" y2="6" gradientTransform="translate(22 20) rotate(-180)" gradientUnits="userSpaceOnUse"><stop offset="0" stop-color="#d4d8e1"/><stop offset="1" stop-color="#f3f4f5"/></linearGradient><linearGradient id="linear-gradient-2" x1="8.5" y1="14" x2="8.5" y2="6" gradientUnits="userSpaceOnUse"><stop offset="0" stop-color="#7aa8d7"/><stop offset="1" stop-color="#c3d2e7"/></linearGradient><linearGradient id="linear-gradient-3" x1="32" y1="63" x2="32" y2="21" gradientUnits="userSpaceOnUse"><stop offset="0" stop-color="#9dd5df"/><stop offset="1" stop-color="#c3e1f5"/></linearGradient><linearGradient id="linear-gradient-4" x1="25.5" y1="50" x2="25.5" y2="0.94" gradientUnits="userSpaceOnUse"><stop offset="0" stop-color="#e9a254"/><stop offset="1" stop-color="#f4bb79"/></linearGradient><linearGradient id="linear-gradient-5" x1="5.29" y1="50" x2="5.29" y2="41.43" gradientUnits="userSpaceOnUse"><stop offset="0" stop-color="#d1a788"/><stop offset="1" stop-color="#f2d3b8"/></linearGradient><linearGradient id="linear-gradient-6" x1="44.75" y1="11.5" x2="44.75" y2="1" gradientUnits="userSpaceOnUse"><stop offset="0" stop-color="#d96bb0"/><stop offset="1" stop-color="#e49fc6"/></linearGradient><linearGradient id="linear-gradient-7" x1="40.5" y1="14.5" x2="40.5" y2="6.5" gradientTransform="translate(19.29 -25.56) rotate(45)" gradientUnits="userSpaceOnUse"><stop offset="0" stop-color="#949aaf"/><stop offset="1" stop-color="#c6ccda"/></linearGradient></defs><title>Tools</title><g id="Tools"><path class="cls-1" d="M6,6H18a0,0,0,0,1,0,0v8a0,0,0,0,1,0,0H6a2,2,0,0,1-2-2V8A2,2,0,0,1,6,6Z" transform="translate(22 20) rotate(180)"/><path class="cls-2" d="M18,10v2a2,2,0,0,1-2,2H13V12h3A2,2,0,0,0,18,10Z"/><rect class="cls-3" x="4" y="6" width="9" height="8"/><rect class="cls-4" x="4" y="12" width="9" height="2"/><path class="cls-5" d="M1,63H63V21ZM53,39.85V53H33.59Z"/><polygon class="cls-6" points="63 60 63 63 1 63 5.43 60 63 60"/><path class="cls-7" d="M1,50l8.5-3.5L49.29,6.71a2.41,2.41,0,0,0,0-3.42C47.77,1.77,47.26,1,46,1S48.31-2.31,4.5,41.5Z"/><path class="cls-8" d="M50,5c0,1.38,3.31-2.31-40.5,41.5L1,50l8.5-6.5C52.33.67,49.29,3.72,49.48,3.5A2.4,2.4,0,0,1,50,5Z"/><path class="cls-9" d="M9.57,46.43c-.1.1.71-.25-8.57,3.57,3.74-9.09,3.46-8.46,3.57-8.57A8,8,0,0,1,9.57,46.43Z"/><path class="cls-10" d="M39.5,6.5l5,5,4.79-4.79a2.41,2.41,0,0,0,0-3.42C47.77,1.77,47.26,1,46,1S44.44,1.56,39.5,6.5Z"/><rect class="cls-11" x="38.38" y="6.96" width="4.24" height="7.07" transform="translate(4.44 31.71) rotate(-45)"/><path class="cls-12" d="M8.47,44.29a8.34,8.34,0,0,1,1.1,2.14c-.11.11.58-.2-8.57,3.57Z"/><path class="cls-13" d="M50,5c0,1.4-.56,1.56-5.5,6.5L43,10c6.93-6.93,6.31-6.3,6.48-6.5A2.4,2.4,0,0,1,50,5Z"/><rect class="cls-14" x="40.13" y="11.19" width="4.24" height="2.12" transform="translate(3.71 33.46) rotate(-45)"/><path d="M63.47,20.12c-.79-.42,3.15-2.78-63,42.05A1,1,0,0,0,1,64H63a1,1,0,0,0,1-1C64,17.47,64.24,20.53,63.47,20.12ZM62,62H59V59a1,1,0,0,0-2,0v3H54V61a1,1,0,0,0-2,0v1H49V59a1,1,0,0,0-2,0v3H44V61a1,1,0,0,0-2,0v1H39V59a1,1,0,0,0-2,0v3H34V61a1,1,0,0,0-2,0v1H29V59a1,1,0,0,0-2,0v3H24V61a1,1,0,0,0-2,0v1H19V59a1,1,0,0,0-2,0v3H14V61a1,1,0,0,0-2,0v1H4.26L62,22.89Z"/><path d="M33.59,54H53a1,1,0,0,0,1-1c0-14.29.21-13.64-.53-14S54,38,33,52.17A1,1,0,0,0,33.59,54ZM52,41.74V52H36.85Z"/><path d="M1,51c.28,0-.42.26,8.88-3.58.33-.13-1.66,1.78,40.12-40a3.43,3.43,0,0,0,0-4.84L48.42,1a3.51,3.51,0,0,0-4.84,0c-1,1-41.91,41.92-39.79,39.79-.19.2.11-.48-3.71,8.83A1,1,0,0,0,1,51ZM36.5,10.91l3.59,3.59L9.89,44.7A9,9,0,0,0,6.3,41.12ZM3.39,46.82l1.69-4.1a7,7,0,0,1,3.2,3.2l-4.1,1.69A3.7,3.7,0,0,0,3.39,46.82ZM41.5,13.09,37.91,9.5,39.5,7.91l3.59,3.59ZM47,2.42c3,3,3,2.12-2.5,7.67L40.91,6.5,45,2.42A1.44,1.44,0,0,1,47,2.42Z"/><path d="M4,15H16a3,3,0,0,0,3-3V8a3,3,0,0,0-3-3H4A1,1,0,0,0,3,6v8A1,1,0,0,0,4,15ZM17,8v4a1,1,0,0,1-1,1H14V7h2A1,1,0,0,1,17,8ZM5,7h7v6H5Z"/></g></svg>