<svg xmlns="http://www.w3.org/2000/svg" xmlns:xlink="http://www.w3.org/1999/xlink" viewBox="0 0 64 64"><defs><style>.cls-1{fill:url(#linear-gradient);}.cls-2{fill:#77cacb;}.cls-3{fill:url(#linear-gradient-2);}.cls-4{fill:url(#linear-gradient-3);}.cls-5{fill:#42455e;}.cls-6{fill:#575f7c;}.cls-7{fill:url(#linear-gradient-4);}.cls-8{fill:url(#linear-gradient-5);}</style><linearGradient id="linear-gradient" x1="32" y1="59" x2="32" y2="5" gradientUnits="userSpaceOnUse"><stop offset="0" stop-color="#9dd5df"/><stop offset="1" stop-color="#c3e1f5"/></linearGradient><linearGradient id="linear-gradient-2" x1="32" y1="59" x2="32" y2="49" gradientUnits="userSpaceOnUse"><stop offset="0" stop-color="#949aaf"/><stop offset="1" stop-color="#c6ccda"/></linearGradient><linearGradient id="linear-gradient-3" x1="32" y1="40.64" x2="32" y2="24.86" gradientUnits="userSpaceOnUse"><stop offset="0" stop-color="#474f72"/><stop offset="1" stop-color="#878c9f"/></linearGradient><linearGradient id="linear-gradient-4" y1="30" y2="12" xlink:href="#linear-gradient-3"/><linearGradient id="linear-gradient-5" x1="48" y1="42" x2="48" y2="37.91" gradientUnits="userSpaceOnUse"><stop offset="0" stop-color="#e9a254"/><stop offset="1" stop-color="#f4bb79"/></linearGradient></defs><title>Tutorial</title><g id="Tutorial"><rect class="cls-1" x="1" y="5" width="62" height="54"/><rect class="cls-2" x="1" y="46" width="62" height="13"/><rect class="cls-3" x="1" y="49" width="62" height="10"/><path class="cls-4" d="M44,24.86V34.5c0,2.26-5.37,6.14-12,6.14S20,36.76,20,34.5V24.86Z"/><path class="cls-5" d="M44,31.64V34.5c0,2.26-5.37,6.14-12,6.14S20,36.76,20,34.5V31.64c0,2.26,5.37,6.14,12,6.14S44,33.9,44,31.64Z"/><polygon class="cls-6" points="44 24.86 44 27.04 32 32.18 20 27.04 20 24.86 44 24.86"/><polygon class="cls-7" points="32 30 11 21 32 12 53 21 32 30"/><path class="cls-8" d="M49.55,39.25,50,42H46l.45-2.75A1.57,1.57,0,0,1,49.55,39.25Z"/><path d="M63,4H1A1,1,0,0,0,0,5V59a1,1,0,0,0,1,1H63a1,1,0,0,0,1-1V5A1,1,0,0,0,63,4ZM62,6V48H2V6Zm0,52H2V50H62Z"/><path d="M19,25.52v9c0,3.15,6.12,7.14,13,7.14s13-4,13-7.14v-9l2-.86V37.12a2.6,2.6,0,0,0-1.54,2C44.73,43.58,44.21,43,50,43a1,1,0,0,0,1-1.16c-.4-2.45-.34-4-2-4.72V23.8l4.39-1.88a1,1,0,0,0,0-1.84c-23-9.85-21.22-9.24-21.78-9C8.91,20.81,10,20.06,10,21S9.9,21.62,19,25.52ZM47.18,41c.24-1.48.19-1.87.6-2a.56.56,0,0,0,.44,0c.38.16.34.4.6,2ZM43,34.5c0,1.49-4.76,5.14-11,5.14S21,36,21,34.5V26.37c11.48,4.93,10.84,4.79,11.39,4.55L43,26.37ZM32,13.09,50.46,21l-2.35,1-16-2.14a1,1,0,0,0-.26,2l12.65,1.69L32,28.91,13.54,21Z"/><path d="M4.47,55.85a1,1,0,0,0,1,0C7.43,54.9,8,54.79,8,54s-.65-.94-2.55-1.89A1,1,0,0,0,4,53C4,55.08,3.88,55.48,4.47,55.85Z"/><path d="M11,55H34a1,1,0,0,0,2,0V53a1,1,0,0,0-2,0H11A1,1,0,0,0,11,55Z"/><path d="M38,55H59a1,1,0,0,0,0-2H38A1,1,0,0,0,38,55Z"/></g></svg>